<svg xmlns="http://www.w3.org/2000/svg" xmlns:xlink="http://www.w3.org/1999/xlink" width="156.897" height="40.693" viewBox="0 0 156.897 40.693">
  <defs>
    <clipPath id="clip-path">
      <rect id="Rectangle_2054" data-name="Rectangle 2054" width="156.897" height="40.693" fill="none"/>
    </clipPath>
  </defs>
  <g id="Group_13766" data-name="Group 13766" clip-path="url(#clip-path)">
    <path id="Path_80543" data-name="Path 80543" d="M71.345,65.409c-2.347-.2-2.314-2.053-.978-5.9l.782-2.217h7.693l1.728,4.922c.685,1.989.1,3.064-1.728,3.195v.2h7.432v-.2c-1.369-.13-1.988-1.239-2.966-3.977L76.3,41.547h-.261L69.748,59.313c-1.369,3.944-2.217,5.933-3.782,6.1v.2h5.379ZM75,46.241,78.582,56.51H71.41Z" transform="translate(-52.699 -33.191)" fill="#fff"/>
    <path id="Path_80544" data-name="Path 80544" d="M163.286,72.636c0,2.771,1.4,4.108,3.814,4.108a7.156,7.156,0,0,0,5.183-3.032l-.2-.13a5.616,5.616,0,0,1-3.586,1.7c-1.695,0-2.575-1.011-2.575-2.934V60.477h5.639l.457-1.206h-6.1V55h-.2c-.945,2.934-2.086,4.238-3.684,4.922l-.456.2v.359h1.695Z" transform="translate(-129.091 -43.939)" fill="#fff"/>
    <path id="Path_80545" data-name="Path 80545" d="M220.478,92.152c3.456,0,5.444-2.315,6.585-4.27l-.2-.131a6.336,6.336,0,0,1-5.118,2.8c-3.651,0-5.477-3.651-5.477-8.28a11.123,11.123,0,0,1,.1-1.467H227.03c.2-4.107-2.412-6.52-5.835-6.52-4.205,0-7.693,3.814-7.693,9.193,0,4.857,2.64,8.671,6.976,8.671m.554-17.408c2.477,0,3.456,2.184,3.195,5.542h-7.791c.489-3.032,2.086-5.542,4.6-5.542" transform="translate(-170.561 -59.347)" fill="#fff"/>
    <path id="Path_80546" data-name="Path 80546" d="M284.8,38.719v17.8c0,2.086-.1,3.195-1.434,3.195v.2h5.509v-.2c-1.337,0-1.434-1.108-1.434-3.195v-22.1h-.131l-4.173,1.043v.2c1.108.293,1.663.978,1.663,3.064" transform="translate(-226.195 -27.494)" fill="#fff"/>
    <path id="Path_80547" data-name="Path 80547" d="M317.789,79.176v9.453c0,2.086-.1,3.195-1.434,3.195v.2h5.509v-.2c-1.337,0-1.434-1.108-1.434-3.195V74.612h-.13l-4.173,1.3v.2c1.108.293,1.662.978,1.662,3.064" transform="translate(-252.546 -59.606)" fill="#fff"/>
    <path id="Path_80548" data-name="Path 80548" d="M321.874,46.331a1.826,1.826,0,1,0-1.858-1.825,1.822,1.822,0,0,0,1.858,1.825" transform="translate(-255.653 -34.096)" fill="#fff"/>
    <path id="Path_80549" data-name="Path 80549" d="M355.339,92.152c3.456,0,5.444-2.315,6.585-4.27l-.2-.131a6.336,6.336,0,0,1-5.118,2.8c-3.651,0-5.477-3.651-5.477-8.28a11.123,11.123,0,0,1,.1-1.467h10.659c.2-4.107-2.412-6.52-5.835-6.52-4.205,0-7.693,3.814-7.693,9.193,0,4.857,2.64,8.671,6.976,8.671m.554-17.408c2.477,0,3.456,2.184,3.195,5.542H351.3c.489-3.032,2.086-5.542,4.6-5.542" transform="translate(-278.299 -59.347)" fill="#fff"/>
    <path id="Path_80550" data-name="Path 80550" d="M419.814,78.917V88.37c0,2.086-.1,3.195-1.434,3.195v.2h5.509v-.2c-1.337,0-1.434-1.108-1.434-3.195V78.3a3.277,3.277,0,0,1,2.608-1.728,4.26,4.26,0,0,1,2.25.783h.2l.652-2.8a3.165,3.165,0,0,0-1.271-.261c-1.662,0-3.1,1.5-4.433,3.553V74.353h-.13l-4.173,1.3v.2c1.108.293,1.662.978,1.662,3.064" transform="translate(-334.051 -59.347)" fill="#fff"/>
    <path id="Path_80551" data-name="Path 80551" d="M107.571,0H0V40.693H156.9V0Zm-.662,40.032H.661V.661H106.91Zm49.326,0H107.571V.661h48.664Z" fill="#fff"/>
    <path id="Path_80552" data-name="Path 80552" d="M603.216,60.515c0,2.51-.978,3.292-3.195,3.292V64h8.835v-.2c-2.217,0-3-.782-3-3.292V39.945h-.2a10.235,10.235,0,0,1-6.324,5.933v.2a11.1,11.1,0,0,0,3.879-1.271Z" transform="translate(-478.795 -31.911)" fill="#fff"/>
    <path id="Path_80553" data-name="Path 80553" d="M664.1,55.893c0-4.3-3.26-7.335-9.193-8.085l-2.086-.228.62-6.1a27.1,27.1,0,0,0,5.216.619c2.934,0,4.368-.881,5.313-3.456h-.2c-.619.489-1.825.913-4.27.913a30.97,30.97,0,0,1-6.357-.717l-1.206,11.409,1.891.228c4.694.587,8.182,2.869,8.182,6.781a5.568,5.568,0,0,1-5.77,5.639c-2.771,0-3.978-1.825-4.727-4.531h-.2l-.391,3.977a12.178,12.178,0,0,0,5.02,1.011c4.629,0,8.149-2.9,8.149-7.465" transform="translate(-520.009 -30.875)" fill="#fff"/>
  </g>
</svg>
