<svg xmlns="http://www.w3.org/2000/svg" xmlns:xlink="http://www.w3.org/1999/xlink" width="121.982" height="31.638" viewBox="0 0 121.982 31.638">
  <defs>
    <clipPath id="clip-path">
      <rect id="Rectangle_55" data-name="Rectangle 55" width="121.982" height="31.638" fill="#1e1e1e"/>
    </clipPath>
  </defs>
  <g id="Group_291" data-name="Group 291" transform="translate(-50 -23.031)">
    <path id="Path_49" data-name="Path 49" d="M.514.514h82.6V31.123H.514ZM0,31.638H83.633V0H0Z" transform="translate(50 23.031)" fill="#1e1e1e"/>
    <g id="Group_62" data-name="Group 62" transform="translate(50 23.032)">
      <g id="Group_61" data-name="Group 61" clip-path="url(#clip-path)">
        <path id="Path_50" data-name="Path 50" d="M43.251,35.848V36H37.473v-.152c1.419-.1,1.875-.938,1.343-2.484l-1.343-3.827H31.492l-.608,1.723c-1.039,2.991-1.064,4.436.76,4.587V36H27.462v-.152c1.216-.127,1.875-1.673,2.94-4.739L35.293,17.3h.2l5.449,15.46c.761,2.129,1.242,2.991,2.306,3.092M37.27,28.929l-2.788-7.984-2.788,7.984Z" transform="translate(-17.147 -10.8)" fill="#1e1e1e"/>
        <path id="Path_51" data-name="Path 51" d="M75.583,37.444a5.564,5.564,0,0,1-4.03,2.357c-1.875,0-2.965-1.039-2.965-3.193V27.154H67.27v-.279l.355-.152c1.242-.532,2.129-1.546,2.864-3.827h.152v3.32h4.74l-.355.938H70.641V36.38c0,1.5.684,2.281,2,2.281a4.366,4.366,0,0,0,2.788-1.318Z" transform="translate(-42.002 -14.297)" fill="#1e1e1e"/>
        <path id="Path_52" data-name="Path 52" d="M99.424,41.495a5.894,5.894,0,0,1-5.12,3.32c-3.371,0-5.424-2.965-5.424-6.742,0-4.182,2.712-7.147,5.981-7.147,2.661,0,4.688,1.875,4.536,5.069H91.111a8.613,8.613,0,0,0-.076,1.14c0,3.6,1.419,6.438,4.258,6.438a4.926,4.926,0,0,0,3.979-2.18Zm-8.262-5.905h6.057c.2-2.611-.557-4.309-2.484-4.309-1.952,0-3.193,1.952-3.574,4.309" transform="translate(-55.496 -19.31)" fill="#1e1e1e"/>
        <path id="Path_53" data-name="Path 53" d="M118.05,33.995c1.039,0,1.115-.862,1.115-2.484V17.673c0-1.622-.431-2.154-1.293-2.383v-.152l3.244-.811h.1V31.511c0,1.622.076,2.484,1.115,2.484v.152H118.05Z" transform="translate(-73.598 -8.946)" fill="#1e1e1e"/>
        <path id="Path_54" data-name="Path 54" d="M131.781,36.143c1.039,0,1.115-.862,1.115-2.484v-7.35c0-1.622-.43-2.154-1.292-2.383v-.152l3.244-1.014h.1v10.9c0,1.622.076,2.484,1.115,2.484v.152h-4.283Zm.431-16.955a1.432,1.432,0,1,1,1.445,1.419,1.423,1.423,0,0,1-1.445-1.419" transform="translate(-82.172 -11.094)" fill="#1e1e1e"/>
        <path id="Path_55" data-name="Path 55" d="M155.567,41.495a5.894,5.894,0,0,1-5.12,3.32c-3.371,0-5.423-2.965-5.423-6.742,0-4.182,2.712-7.147,5.981-7.147,2.661,0,4.688,1.875,4.536,5.069h-8.288a8.621,8.621,0,0,0-.076,1.14c0,3.6,1.419,6.438,4.258,6.438a4.926,4.926,0,0,0,3.979-2.18ZM147.3,35.589h6.057c.2-2.611-.557-4.309-2.484-4.309-1.952,0-3.193,1.952-3.574,4.309" transform="translate(-90.551 -19.31)" fill="#1e1e1e"/>
        <path id="Path_56" data-name="Path 56" d="M181.857,31.129l-.507,2.18H181.2a3.31,3.31,0,0,0-1.749-.608,2.549,2.549,0,0,0-2.028,1.343v7.831c0,1.622.076,2.484,1.115,2.484v.152h-4.283v-.152c1.039,0,1.115-.862,1.115-2.484v-7.35c0-1.622-.431-2.154-1.293-2.383V31.99l3.244-1.014h.1v2.712c1.039-1.6,2.155-2.762,3.447-2.762a2.46,2.46,0,0,1,.988.2" transform="translate(-108.69 -19.31)" fill="#1e1e1e"/>
        <path id="Path_57" data-name="Path 57" d="M260.151,31.638H221.288V0h38.863ZM221.8,31.123h37.835V.514H221.8Z" transform="translate(-138.169 0)" fill="#1e1e1e"/>
        <path id="Path_58" data-name="Path 58" d="M256.9,35.181v.152h-6.868v-.152c1.724,0,2.484-.608,2.484-2.559V20.405a8.63,8.63,0,0,1-3.016.988v-.152a7.958,7.958,0,0,0,4.917-4.613h.152V32.622c0,1.951.608,2.559,2.332,2.559" transform="translate(-155.786 -10.383)" fill="#1e1e1e"/>
        <path id="Path_59" data-name="Path 59" d="M281.218,29.5c0,3.548-2.737,5.8-6.336,5.8a9.464,9.464,0,0,1-3.9-.786l.3-3.092h.152c.583,2.1,1.521,3.523,3.675,3.523a4.329,4.329,0,0,0,4.486-4.385c0-3.042-2.712-4.815-6.361-5.272l-1.47-.178.938-8.87a24.074,24.074,0,0,0,4.942.557c1.9,0,2.839-.33,3.32-.71h.152c-.735,2-1.85,2.686-4.131,2.686a21.064,21.064,0,0,1-4.055-.482l-.482,4.74,1.622.177c4.613.583,7.147,2.94,7.147,6.286" transform="translate(-169.195 -10.046)" fill="#1e1e1e"/>
      </g>
    </g>
  </g>
</svg>
