<?xml version="1.0" encoding="UTF-8"?>
<svg xmlns="http://www.w3.org/2000/svg" id="Layer_1" viewBox="0 0 799.3099 256.699">
  <path d="m99.1237,144.6652c.0278.4346.0797.8691.0798,1.3037.0042,14.2777.0683,28.5561-.065,42.8326-.0205,2.1905-.8993,4.3872-1.4753,6.5558-2.0401,7.68-6.0975,14.1535-12.0305,19.3634-5.5851,4.9045-12.0457,8.1462-19.4356,9.3384-1.519.2451-3.0602.3503-4.5886.5402-.2664.0331-.5204.1675-.7801.2551h-4.9785c-1.2428-.1763-2.484-.3648-3.7287-.5268-5.1735-.6734-9.9865-2.3318-14.508-4.9818-5.0747-2.9743-9.2998-6.8262-12.6436-11.649-3.7482-5.4061-6.0993-11.3332-6.9048-17.9266-.4701-3.8482-.4478-7.6643.1191-11.4401.6803-4.5306,2.2315-8.8141,4.4719-12.8517,2.7284-4.9173,6.294-9.0815,10.7129-12.5131,6.0852-4.7257,12.9991-7.3565,20.6471-8.0804,1.0278-.073,2.0554-.2086,3.0833-.2097,14.0082-.0142,28.0164-.0098,42.0245-.01Z" fill="#c6c6c5"></path>
  <path d="m14.9428,52.876c0-2.9797,0-5.9594,0-8.9391.0815-.0858.2129-.1594.2374-.2592.6485-2.6394,1.085-5.3507,1.9678-7.9086,1.7559-5.0877,5.0939-9.1769,9.1023-12.642,2.7463-2.3741,5.8999-4.1625,9.417-5.3647,3.4226-1.1699,6.8997-1.9104,10.4673-1.9252,17.2317-.0714,34.4638-.0327,51.6958-.0297.5248,0,1.0496.0367,1.5743.0563-.002,16.27-.0066,32.5401-.0044,48.8101.0007,5.3354.019,10.6709.0295,16.0064-.0831.0309-.1665.0618-.2498.0927-17.332-.0094-34.6641-.0194-51.9961-.0264-.7432-.0003-1.4865.0272-2.2297.0418-.2638.0589-.5276.1178-.7914.1767-1.6673-.2909-3.3577-.4875-4.9978-.8893-6.573-1.6103-12.0231-5.0855-16.5-10.1192-3.2403-3.6433-5.4783-7.8255-6.6719-12.5535-.3791-1.5018-.7018-3.0177-1.0502-4.5272Z" fill="#a2a1a1"></path>
  <path d="m44.1626,80.9653c.2638-.0589.5276-.1178.7915-.1768.5031.0731,1.0061.2097,1.5092.2101,17.5596.0121,35.1193.0114,52.6789.0125l.0839.0168.0834-.0192c-.0013,8.9139-.0027,17.8278-.0042,26.7419-.0348.81-.0694,1.6199-.1039,2.4298,0,2.1982-.0001,4.3964-.0002,6.5946.035.8104.07,1.6209.105,2.4313-.0067,8.391-.0123,16.7821-.023,25.1731-.0007.5225-.0412,1.045-.063,1.5675-14.0732.0002-28.1465-.0042-42.2198.01-1.0326.001-2.0651.1366-3.0976.2097-2.3818-.0731-4.7678-.2705-7.1445-.1914-4.0199.1338-7.8497-.6203-11.5414-2.1219-9.8993-4.0266-16.3191-11.1888-19.2182-21.4685-.4238-1.5028-.7074-3.045-1.0559-4.569,0-2.9797,0-5.9594,0-8.9391.0859-.1329.2152-.255.2513-.4002.5478-2.2022.8418-4.5017,1.6616-6.5963,4.8681-12.4368,14.0689-19.3292,27.3069-20.9149Z" fill="#b5b5b6"></path>
  <path d="m99.4295,80.6804c-.0103-5.3354-.0286-10.6709-.0293-16.0063-.0022-16.27.0024-32.5401.0045-48.8101.2619-.0195.5237-.0571.7853-.0558,16.6533.0846,33.3068.1406,49.9594.3022,1.9615.019,3.9721.433,5.8656.9859,6.1688,1.8011,11.3947,5.1202,15.5152,10.1013,3.0358,3.6698,5.2132,7.777,6.3603,12.408.3777,1.5248.703,3.0625,1.0523,4.5943v8.6762c-.4074,1.601-.7938,3.2077-1.2261,4.8019-1.1718,4.3214-3.2199,8.1621-6.0936,11.6225-3.0716,3.6987-6.7242,6.6051-11.057,8.6299-3.8663,1.8068-7.9232,2.9257-12.2446,2.9047-3.6328-.0177-7.2659.0136-10.8991.0228-.9021.0353-1.8039.071-2.7057.1067-1.7632-.0121-3.5264-.0242-5.2893-.0361-.9678-.0268-1.9359-.0537-2.9041-.0807-9.0228.008-18.0456.0159-27.0684.0239-.0141-.063-.0226-.1268-.0254-.1913Z" fill="#bababa"></path>
  <path d="m129.4271,80.9283c1.7632.0121,3.5264.0242,5.2896.0363.8773.0877,1.7546.1754,2.6319.263,6.1376.8499,11.5672,3.2535,16.3182,7.2515,5.9074,4.9711,9.5142,11.3211,10.7103,18.8387,1.3849,8.7041.1863,17.0543-4.8715,24.5756-4.0282,5.9902-9.5094,10.0878-16.2784,12.4591-3.0766,1.0778-6.2643,1.6654-9.5701,1.6167-3.9558-.0582-7.8733-.0176-11.739-1.2351-3.7574-1.1834-7.2375-2.837-10.3104-5.2375-4.1618-3.2511-7.5489-7.2131-9.5356-12.1552-1.0674-2.6552-1.739-5.4692-2.5893-8.2116-.0268-.7886-.0535-1.5772-.0801-2.3658v-6.5727c.0268-.7883.0537-1.5766.0805-2.3649.1519-.4858.3416-.9632.45-1.4585,2.3637-10.7989,8.6061-18.5054,18.7275-22.895,2.7936-1.2116,5.9224-1.652,8.8974-2.4463.623-.0328,1.2461-.0656,1.8691-.0984Z" fill="#878787"></path>
  <path d="m137.3485,81.2276c-.8773-.0877-1.7546-.1753-2.6319-.263.9018-.0357,1.8036-.0715,2.7057-.1067-.0244.1236-.0491.2467-.0738.3698Z" fill="#f9b6b6"></path>
  <path d="m99.4025,116.7641c.0267.7886.0533,1.5772.0801,2.3658-.0516.0424-.1107.0678-.1768.0764-.0348-.8103-.0697-1.6207-.1049-2.4312.067-.0058.1342-.0095.2016-.011Z" fill="#bc9ac8"></path>
  <path d="m99.1422,81.0111c-17.5596-.0011-35.1193-.0004-52.6789-.0125-.5031-.0003-1.0061-.137-1.5092-.2101.7432-.0145,1.4864-.042,2.2297-.0417,17.332.007,34.6641.0169,51.9962.0263.001.0814-.0116.1608-.0378.238Z" fill="#a2a1a1"></path>
  <path d="m99.1422,81.0111c.0261-.0772.0388-.1566.0378-.238.0832-.0308.1666-.0617.2497-.0926.0026.0644.0111.1282.025.1911-.0131.0874-.0614.1331-.1452.1371l-.0834.0192-.0839-.0168Z" fill="#bc9ac8"></path>
  <path d="m99.4025,116.7641c-.0674.0015-.1346.0052-.2016.011.0002-2.1982.0003-4.3964.0002-6.5947.0669.0057.1341.0094.2014.011v6.5727Z" fill="#5a67b0"></path>
  <path d="m99.4025,110.1914c-.0673-.0016-.1345-.0053-.2014-.011.0347-.8099.0693-1.6198.1041-2.4298.0666.0083.1257.0336.1777.0759-.0267.7883-.0536,1.5766-.0804,2.3649Z" fill="#bc9ac8"></path>
  <path d="m127.558,81.0267c-.3449-.0599-.6897-.1199-1.0346-.1794.9681.0274,1.9362.0544,2.904.0811-.6233.0326-1.2464.0654-1.8694.0982Z" fill="#f8b5b6"></path>
  <g>
    <path d="m571.1083,201.7569v-5.7791c-.0004-19.4819-.0055-38.9638.0013-58.4457.0024-6.9335-2.356-12.7229-7.4194-17.7109-8.4197-8.2941-20.0714-5.6688-27.2677-.2659-6.313,4.7396-8.5359,11.333-8.4589,19.1262.191,19.3241.0692,38.6514.0492,57.9774-.0057,5.5735-.0425,5.5945-5.7806,5.6488-3.7343.0353-7.4716-.0846-11.203.0215-2.7323.0777-3.6132-1.2811-3.4856-3.7334.0484-.9323-.0106-1.8697-.0106-2.8048-.0007-30.2359-.0049-60.4718.0037-90.7077.0021-7.1431.0225-7.144,7.4314-7.1638,1.7254-.0046,3.4508-.0034,5.1762-.0007q7.0689.0111,8.6098,7.2849c8.3775-7.7165,17.8655-11.8359,29.2177-10.6746,11.3484,1.1608,19.749,7.0392,26.7284,16.5859,1.799-1.4882,3.6931-2.7336,5.1861-4.3457,6.5343-7.0559,14.4124-11.5419,24.1159-12.168,12.3388-.7961,22.6811,3.2991,30.6929,12.9558,7.5819,9.1387,9.2014,20.0571,9.3709,31.2298.2909,19.1658.0924,38.3392.0694,57.5093-.0068,5.6296-.0531,5.6326-5.8198,5.6471-3.137.0079-6.2742.0175-9.4112.0016-5.3031-.0269-5.4212-.1091-5.4196-5.594.0063-21.3499-.0589-42.7006.1221-64.0491.0728-8.5922-4.2673-14.4558-11.1584-18.5286-6.8635-4.0564-14.3134-4.0861-21.1546.0598-6.9447,4.2087-11.0221,10.4212-10.9745,18.9076.1188,21.1703.147,42.3412.1895,63.5119.0109,5.4125-.0267,5.4407-5.4692,5.4955-4.3647.044-8.7302.0089-13.9313.0089Z" fill="#a2a1a1"></path>
    <path d="m456.6659,182.0057c-4.7165,2.7162-8.5105,5.2077-12.5629,7.1734-9.506,4.6113-19.5732,4.724-29.3569,1.6178-20.2436-6.4273-30.1666-21.4415-32.6224-41.656-1.99-16.38,3.0756-30.7379,14.7867-42.4811,13.2928-13.3293,38.2563-17.6311,54.8865-4.169,1.1745.9507,2.6654,1.5155,4.0386,2.2761q1.9022-7.2846,9.6752-7.285,11.6846-.0006,11.6847,11.5317c.0002,27.434-.0835,54.8684.0394,82.3019.0541,12.0587-2.987,23.1575-10.0395,32.9167-9.5028,13.15-22.7237,20.0941-38.9075,21.1792-9.5677.6415-18.7696-1.1334-27.2594-5.8149-2.3347-1.2875-3.8892-2.5568-1.7482-5.5914,2.5822-3.6601,4.4998-7.7766,6.8429-11.6124,1.2813-2.0973,2.879-1.3987,4.7315-.4104,10.8238,5.7743,21.6442,5.4767,31.7518-1.3788,8.6707-5.8809,13.7804-14.1958,14.0422-24.9439.1052-4.319.0173-8.6427.0173-13.6539Zm.0458-37.8929c.166-14.8038-6.2546-24.472-18.8848-28.815-12.0459-4.1422-23.2499,1.0057-28.8865,7.4318-8.0049,9.1261-8.6386,20.2588-5.6393,31.3988,3.5715,13.2647,18.1283,21.2377,31.0635,18.715,11.9736-2.3351,23.2801-12.7591,22.3471-28.7306Z" fill="#a2a1a1"></path>
    <path d="m760.4014,189.983c-6.5348,5.8405-13.8094,10.3384-22.4396,12.2475-15.7586,3.486-29.9419.34-42.7467-9.6175-10.5788-8.2264-16.8681-19.2206-19.0666-31.8505-3.7126-21.328,1.1415-40.7596,18.4805-55.148,17.7165-14.7017,43.67-15.0742,61.6006-.8479,1.3088,1.0384,2.8244,1.8196,4.7088,3.0155.3693-3.2426.4604-6.1341,1.13-8.8866.2659-1.0934,1.7666-2.6128,2.7869-2.6781,4.5293-.29,9.0884-.1105,13.6366-.1252,3.2878-.0106,3.1623,2.2427,3.1593,4.5254-.0197,15.2738-.0095,30.5477-.0094,45.8215.0001,16.3648-.11,32.7308.0797,49.0934.0453,3.9085-1.2308,5.3388-5.1056,5.0925-3.4344-.2183-6.9063-.1385-10.3451.0738-3.5992.2222-5.3464-1.005-4.9193-4.8027.2047-1.8201.0352-3.6818.0352-5.5246-.3284-.1295-.6568-.2591-.9852-.3886Zm.9918-39.9491c0-1.2367-.0365-2.4746.0059-3.7099.3194-9.3044-3.8133-16.991-10.0764-23.1806-5.6318-5.5657-13.0221-8.6467-21.1557-9.1059-10.8998-.6153-20.1778,3.3588-27.235,11.3743-9.1679,10.4128-10.066,23.0681-6.8142,35.7392,5.4958,21.4157,29.7735,31.6226,49.8283,19.5236,11.1304-6.7149,16.1584-17.5413,15.4471-30.6407Z" fill="#a2a1a1"></path>
    <path d="m243.1695,108.007c9.5223,0,18.4317-.0084,27.341.003,5.6422.0072,11.2849.095,16.9264.0454,2.7742-.0244,3.9923,1.0989,3.8501,3.9233-.1487,2.9519-.0285,5.9171-.0298,8.8765q-.0028,6.7574-7.0386,6.7725c-11.5998.0084-23.1997.0026-34.7995.0028-1.8676,0-3.7352,0-6.1692,0-.1566,2.2851-.4029,4.2281-.4056,6.1714-.0288,20.7158-.008,41.4317-.0268,62.1475-.0054,5.923-.0439,5.9231-6.0601,5.9162-3.2911-.0037-6.5954-.1925-9.8699.0378-3.5974.2529-4.852-1.3408-4.5516-4.6656.0698-.7723.0021-1.5566.0021-2.3354-.0004-47.1947-.0027-94.3895.0022-141.5842q.0007-6.8978,6.9832-6.9076c23.5131-.004,47.0263-.0083,70.5394.0038,5.9684.0031,5.9916.0303,6.1423,5.9431.0674,2.646.0467,5.2952.0193,7.9425-.0539,5.2093-.4538,5.6087-5.5983,5.6097-17.0862.0033-34.1724-.0068-51.2586-.0043q-6.3301.0009-6.339,6.4198c-.0051,9.8128-.0172,19.6256.0118,29.4382.0055,1.8471.1892,3.6938.3293,6.2435Z" fill="#a2a1a1"></path>
    <path d="m332.1002,149.744c0-15.7171.1003-31.4354-.0738-47.1506-.0411-3.7151.8035-5.4804,4.9039-5.0994,3.4156.3174,6.8981.2533,10.3264.0128,3.3917-.238,4.2524,1.175,4.229,4.3353-.1199,16.1815-.0518,32.3644-.0557,48.5468-.0038,15.5586-.1483,31.1191.0678,46.6746.0559,4.0267-1.3265,5.1838-5.1249,4.8559-3.2638-.2817-6.5895-.2818-9.8544-.0101-3.6055.3001-4.5185-1.1371-4.4857-4.5476.1528-15.8713.0676-31.7449.0673-47.6176Z" fill="#a2a1a1"></path>
    <path d="m329.2363,65.6288c.0286-7.4563,5.462-12.9908,12.7852-13.0231,7.5506-.0333,13.3019,5.1824,13.2474,12.0138-.0614,7.7053-6.4759,14.0429-14.0866,13.9177-6.5619-.108-11.9727-5.9546-11.946-12.9083Z" fill="#a2a1a1"></path>
  </g>
</svg>
