<?xml version="1.0" encoding="UTF-8"?>
<svg xmlns="http://www.w3.org/2000/svg" id="Layer_1" viewBox="0 0 632.0241 616.3812">
  <g id="bujdaI.tif">
    <g>
      <path d="m632.0241,99.2223v417.9365c-.182.2045-.4841.3862-.528.6169-.6391,3.3624-1.2977,6.7226-1.8459,10.1005-1.4762,9.0958-4.7718,17.5977-8.7646,25.8043-6.3259,13.0019-15.0946,24.2146-25.841,33.8848-7.7646,6.987-16.4256,12.6438-25.7864,17.2233-9.0619,4.4332-18.6041,7.4542-28.5371,9.2046-2.8179.4966-5.67.7995-8.5064,1.1912-.8365.1034-1.6729.2066-2.5094.3099-.9633.1536-1.9266.3074-2.8899.461-.8381-.7938-1.6356-.4338-2.4274.0857-1.0027-.0542-2.0055-.1084-3.0082-.1626-1.0995-.0329-2.1991-.0946-3.2986-.0946-134.3118-.0043-268.6235-.0043-402.9353,0-1.0995,0-2.1991.0621-3.2986.0952l-3.6112.1526c-.7837-.543-1.5721-.9847-2.4224-.1142-.7646-.141-1.5292-.282-2.2938-.423-.8344-.1044-1.6688-.2088-2.5032-.3132-1.7563-.2025-3.5127-.4048-5.269-.6074-7.5098-.8661-14.7375-2.8473-21.7866-5.5267-8.1848-3.1111-15.9907-6.9499-23.2863-11.8335-6.7494-4.5179-13.0648-9.5905-18.6783-15.4146-4.6878-4.8636-8.9381-10.1594-12.6472-15.8562-5.5658-8.5484-10.117-17.5703-13.3182-27.2778-2.9842-9.0492-4.8492-18.281-5.0543-27.8248-.0495-.9007-.099-1.8015-.1485-2.7022-.0843-1.2018-.1687-2.4037-.253-3.6055.041-.9983.1179-1.9967.118-2.995.0053-128.7982.0053-257.5965-.0004-386.3947,0-1.0983-.0817-2.1965-.1252-3.2948.1147-2.4562.2294-4.9123.3441-7.3685.1841-5.9104.9248-11.7839,2.2611-17.5099,1.5636-6.7002,3.7243-13.2477,6.6047-19.5473,2.6069-5.7013,5.3994-11.2981,8.8737-16.5074,5.586-8.3756,11.8007-16.2434,19.6002-22.72,3.3695-2.798,6.5968-5.824,10.2232-8.2454,12.1166-8.0901,25.1436-14.2178,39.4801-17.287,4.5052-.9645,9.0206-1.8851,13.6417-2.1118,2.4163-.1836,4.8326-.3672,7.2489-.5509,140.3162,0,280.6323,0,420.9485,0,.4076.183.8005.4746,1.225.5318,3.5054.4723,7.0882.5971,10.5124,1.402,9.153,2.1515,18.2257,4.5679,26.8002,8.6204,13.7175,6.4833,25.5552,15.4586,35.6548,26.6909,3.6418,4.0503,6.8586,8.5123,10.0006,12.9757,5.1631,7.3344,9.0706,15.372,11.9519,23.84,2.2623,6.6489,4.3429,13.3857,4.9427,20.4703.1342,1.5846.7491,3.1285,1.1427,4.6912Zm-187.4423,37.3438c-.2504.1126-.5008.2252-.7512.3378-.2168.1016-.4337.2032-.6505.3048-.6316.1526-1.2632.3052-1.8948.4577-.3708.0519-.7416.1039-1.1125.1558-.4302.1486-.8603.2971-1.2905.4457-3.3851.6198-6.3671,2.1886-9.1545,4.098-6.1151,4.1889-10.5469,9.6498-12.3933,16.976-.0521.1649-.1042.3298-.1562.4947-.2466.664-.4933,1.3279-.7397,1.9917-.0854.2225-.1708.4449-.2562.6674.076.1377.1596.2706.2508.3987-.1521.6328-.3042,1.2655-.4563,1.8983-.1368.2235-.2736.4469-.4104.6704-.0019,2.5493-.0038,5.0987-.0057,7.6481.1355.2188.271.4376.4065.6564.0658.7857.1315,1.5714.1973,2.3571.1466.6153.2932,1.2305.4399,1.8458.037.2347.074.4693.1111.704.1738.5693.3475,1.1387.5213,1.708,1.5604,4.4464,3.814,8.5132,6.6983,12.2348.1021.1721.2337.3178.3946.437.1514.0186.2213.104.2097.2561.1052.1207.2179.234.338.3398.1591.0014.2465.0812.2624.2395.1124.1406.2414.2638.387.3697.138-.0197.2079.0401.2099.1795.1528.139.3057.278.4585.417,3.4103,2.5475,7.0205,4.7399,11.0365,6.2111.3459.1398.6917.2796,1.0376.4194.2507.0438.5013.0876.752.1314.4063.1373.8127.2745,1.219.4118,2.4341.2093,4.865.4817,7.3034.608,1.9784.1025,3.9659.0294,5.9494.0342.7651-.1494,1.5301-.2989,2.2952-.4483.4258-.0543.8515-.1085,1.2773-.1628.3714-.1266.7428-.2533,1.1142-.3799,1.4957-.5543,3.0174-1.0479,4.4827-1.6734,6.3022-2.6902,10.8737-7.3151,14.4419-13.0423.1406-.3313.2813-.6626.4219-.9939l.1547-.1434.4526-1.0389.1385-.1634c.1469-.3639.2939-.7278.4408-1.0918.0749-.2609.1498-.5218.2247-.7827.1248-.3534.2495-.7069.3743-1.0603l.1261-.0763c.1565-.5825.313-1.1651.4694-1.7476,0,0,.0702-.0469.0701-.047.1519-.2599.3038-.5199.4557-.7798.0608-.357.1217-.714.1824-1.0709.1337-.4488.2675-.8976.4012-1.3464-.0211-.5378-.0422-1.0756-.0633-1.6133.101-.4151.2021-.8301.3031-1.2452.1365-.213.2731-.4259.4097-.6388-.1596-2.5975-.3191-5.195-.4787-7.7926l-.2396-1.7803c-.1679-.718-.3358-1.4359-.5037-2.1539-.1698-.4481-.3686-.8876-.5042-1.3458-.5532-1.8678-.8217-3.8764-1.6898-5.5812-1.3289-2.6098-2.8528-5.1822-4.6777-7.4636-3.1606-3.9514-7.1591-6.8504-12.1573-8.1609-.4555-.1622-.9109-.3245-1.3664-.4867-.2777-.0479-.5555-.0957-.8332-.1436-.3201-.1309-.6403-.2617-.9604-.3926-.3789-.0492-.7577-.0984-1.1366-.1476-.6213-.1493-1.2426-.2987-1.8639-.448-.3921-.0611-.7841-.1221-1.1762-.1832-.6272-.0752-1.2544-.1504-1.8816-.2256l-7.2016.1461c-.1113-.1607-.2491-.2939-.4135-.3996Zm32.3171,297.7802l.105-.1521c.1489-.2345.2977-.469.4466-.7035.0627-.3817.1254-.7635.188-1.1452.0527-.0591.1594-.1327.1482-.1745-.0365-.1353-.1164-.2588-.1795-.3869-.0119-.8014-.0237-1.6028-.0356-2.4042.1685-.9578.4842-1.9157.4846-2.8736.0232-65.24.023-130.4799.002-195.7199-.0003-.9662-.2858-1.9323-.4382-2.8985-.4566-.7916-.9131-1.5832-1.3697-2.3748-.3861-.1687-.7723-.3373-1.1584-.506-1.0973-.0528-2.1946-.1504-3.292-.1515-11.2198-.0113-22.4396-.0072-33.6595-.0069-5.109.0001-10.218.0079-15.3271-.002-1.5465-.003-3.0611.0111-3.7044,1.8222-.061.2327-.1219.4654-.1828.6981-.0726,1.2951-.2086,2.5902-.2088,3.8853-.0103,65.5189-.0094,131.0378-.0065,196.5566,0,1.1014.0375,2.2028.0576,3.3042.0899.4516.1797.9033.2696,1.3549.6292.7722,1.2585,1.5444,1.8878,2.3166.4082.2221.8163.4443,1.2245.6665.3201,1.4107,1.4642,1.1175,2.4115,1.1182,16.0618.0121,32.1236.0094,48.1855.0042.4966-.0001,1.0657.0769,1.4686-.1345.3654-.1917.5497-.7284.8139-1.113l-.013.0168c.4233-.1571.8465-.3141,1.2698-.4712l.1354-.0732.4769-.452Zm-271.7773-56.6888c.163-.2611.326-.5222.489-.7833.8322-2.7238,1.6644-5.4475,2.4966-8.1712.5001-.0242,1.0003-.0696,1.5004-.0696,32.1561.0051,64.3123.0139,96.4684.0224.0938.1767.2135.3446.2776.5315,3.9185,11.4188,7.8086,22.8475,11.7579,34.2557,1.6937,4.8926,3.5097,9.7427,5.27,14.6122-.0975.1952-.0457.3457.1553.4515,1.3995,4.2072,2.7141,8.446,4.2604,12.5985.3689.9908,1.5107,1.6938,2.2971,2.5292.8505.1809,1.7006.5182,2.5514.5196,17.6681.0299,35.3363.0304,53.0045-.0029.9525-.0018,1.9045-.3512,2.8567-.5388,1.4119-.66,1.3424-1.8239,1.0429-3.0661-.1266-.3151-.2533-.6302-.3799-.9453-.2798-1.0562-.486-2.1386-.8497-3.1651-25.4702-71.8806-50.9565-143.7553-76.4274-215.6356-2.003-5.6525-3.9053-11.3407-5.8544-17.0123-.1155-.2402-.2311-.4805-.3466-.7207-2.0886-5.9765-4.1771-11.953-6.2657-17.9294-.1146-.2371-.2292-.4742-.3437-.7113-1.0903-3.1638-2.1806-6.3276-3.271-9.4914l-.353-.7348c-.6326-1.6824-1.3416-3.341-1.8751-5.0542-.4836-1.5529-1.4412-2.335-3.0327-2.4051-.2685-.0203-.5369-.0406-.8054-.061-22.3791-.002-44.7582-.0039-67.1373-.0059-.266.0288-.5321.0576-.7981.0864-.6294.616-1.2588,1.232-1.8881,1.848-.0493.2687-.0986.5375-.1479.8062-.1472,2.7967-.2945,5.5935-.4417,8.3902-.1426.4007-.2853.8013-.4279,1.202l-.3299,4.8555c-.0741.2353-.1483.4706-.2224.7059-.0673.5509-.1346,1.1019-.202,1.6528-.1396.4274-.2792.8548-.4189,1.2822.0599.1947.0191.3652-.1224.5117-.1552.4428-.3105.8856-.4657,1.3284-.3199,1.1761-.6398,2.3523-.9597,3.5284-.0896.2079-.1793.4157-.2689.6236.066.1995.0286.3772-.112.5333l-.4559,1.35c-.0913.3583-.1826.7167-.2739,1.075l-.3389.7141c-1.4887,4.3719-2.9775,8.7437-4.4662,13.1156-.1146.2391-.2292.4783-.3438.7174-1.4869,4.3707-2.9738,8.7414-4.4607,13.1121l-.3475.7266c-1.4861,4.3678-2.9722,8.7357-4.4583,13.1035-.1165.2457-.233.4914-.3495.7371-1.486,4.3644-2.972,8.7289-4.458,13.0933-.117.2478-.234.4956-.351.7434-1.4845,4.3621-2.9691,8.7243-4.4536,13.0864-.1183.2508-.2366.5016-.3549.7523l-.2716,1.0568c-.1133.2383-.2267.4766-.34.7149-1.4884,4.3716-2.9767,8.7432-4.4651,13.1149l-.3432.7244c-1.4872,4.3684-2.9744,8.7368-4.4616,13.1051-.116.2431-.232.4862-.348.7292-1.4818,4.3634-2.9636,8.7268-4.4454,13.0902-.1177.2521-.2354.5042-.3532.7562-1.0162,2.9862-2.0323,5.9725-3.0485,8.9587-.1228.1519-.2457.3038-.3685.4556-1.4805,4.4615-2.961,8.9229-4.4415,13.3844l-.3628.4454-4.4472,13.3925c-.1193.1458-.2386.2917-.3579.4375-.0825.444-.1651.888-.2476,1.3319-.1271.159-.2541.318-.3812.477-1.2744,3.8639-2.5489,7.7279-3.8233,11.5918-.1176.1431-.2353.2861-.3529.4291-.0066.4248-.0133.8495-.0199,1.2743-.0537.1854-.1073.3708-.1609.5562-.2603.6463-.5475,1.2833-.7768,1.9405-3.3847,9.6972-6.7831,19.3896-10.1329,29.0988-2.2411,6.4957-4.4106,13.016-6.6122,19.5254-.2003.098-.2486.24-.1449.4258-.3756.9165-.7934,1.8182-1.1201,2.7518-2.4013,6.8618-4.7335,13.7484-7.2051,20.5847-.7128,1.9716-1.5796,3.846-.9908,6.1803.6507.3538,1.4254.775,2.2002,1.1963,16.8069.0305,33.6138.0674,50.4207.0675.6531,0,1.3062-.3527,1.9593-.541.9119-.9475,2.1097-1.7535,2.6662-2.8771.7604-1.5352,1.0328-3.3121,1.5144-4.9854.2031-.115.2556-.2724.1575-.4724.3791-.8504.7582-1.7008,1.1373-2.5512.1772-.7759.3544-1.5519.5317-2.3279l.0679-.0471c.1759-.5903.3519-1.1806.5278-1.771l.0432-.0307c.1631-.2594.3262-.5188.4893-.7781.1867-.761.3404-1.5319.5656-2.2812,1.0209-3.3965,2.0619-6.7869,3.0957-10.1795.2058-.12.2608-.2835.1649-.4903l.4283-1.3401c.1956-.109.2418-.2577.1384-.4458.1872-.2513.3745-.5026.5617-.7538l.5313-2.3303.0653-.0449.531-1.7717.0424-.0301c.1632-.2602.3265-.5204.4898-.7806.187-.7608.3415-1.5313.5667-2.2806,1.0208-3.3961,2.0615-6.786,3.095-10.1782.205-.1199.2595-.2829.1634-.489.143-.4482.286-.8964.429-1.3446.1965-.107.2429-.2544.1389-.442.1873-.2513.3746-.5026.562-.7539.1771-.777.3542-1.5539.5313-2.3309,0,0,.064-.0444.0639-.0444.1775-.5905.355-1.181.5325-1.7715l.0424-.0301Z" fill="#a2a1a1"></path>
      <path d="m111.8471,615.8791c1.0995-.0331,2.1991-.0952,3.2986-.0952,134.3118-.0043,268.6235-.0043,402.9353,0,1.0995,0,2.1991.0617,3.2986.0945-.0031.1675-.0047.3352-.0049.5028H111.852c-.0009-.1674-.0026-.3347-.0049-.5021Z" fill="#a2a1a1"></path>
      <path d="m.5675,111.848c.0435,1.0983.1251,2.1965.1252,3.2948.0058,128.7982.0058,257.5965.0004,386.3947,0,.9983-.0769,1.9967-.1179,2.995-.1917.0008-.3835.0002-.5752-.002V111.8506l.2838-.0031s.2838.0005.2838.0005Z" fill="#a2a1a1"></path>
      <path d="m.5675,111.848l-.2838-.0005L0,111.8506C0,109.4453,0,107.0399,0,104.6345c.3039-.0516.6078-.1032.9117-.1549-.1147,2.4561-.2294,4.9123-.3441,7.3685Z" fill="#a2a1a1"></path>
      <path d="m101.5964.5509c.1563-.175.1672-.3586.0326-.5509C104.0344,0,106.4398,0,108.8453,0c-2.4163.1836-4.8326.3672-7.2489.5509Z" fill="#a2a1a1"></path>
      <path d="m526.8152,615.9555c.1181.1504.1086.2924-.0283.4258h-2.4054c-.0549-.1144-.0528-.2278.0063-.3401.7918-.5195,1.5892-.8795,2.4274-.0857Z" fill="#a2a1a1"></path>
      <path d="m105.8385,616.3812c-.1264-.1482-.1347-.3028-.025-.4638.8503-.8704,1.6388-.4287,2.4224.1141.0636.1151.0663.2317.0079.3497h-2.4054Z" fill="#a2a1a1"></path>
      <path d="m.9767,510.8403l-.1233.0897s-.1368-.0673-.1367-.0685c-.2388-.1066-.4777-.212-.7167-.3174,0-.8018,0-1.6036,0-2.4054.2761-.0002.5522-.0004.8282-.0006.0495.9007.099,1.8015.1485,2.7022Z" fill="#a2a1a1"></path>
      <path d="m108.2439,616.3812c.0583-.118.0557-.2346-.0079-.3497,1.2037-.0507,2.4074-.1015,3.6112-.1524.0023.1674.004.3347.0049.5021h-3.6081Z" fill="#a2a1a1"></path>
      <path d="m.8282,508.138c-.2761.0002-.5522.0004-.8282.0006v-3.6081c.1917.0022.3835.0028.5752.002.0843,1.2018.1687,2.4037.253,3.6055Z" fill="#a2a1a1"></path>
      <path d="m524.3879,616.0411c-.0592.1123-.0613.2257-.0063.3401h-3.0068c.0002-.1677.0018-.3353.0049-.5028,1.0027.0543,2.0055.1086,3.0082.1627Z" fill="#a2a1a1"></path>
      <path d="m0,510.5441c.2389.1054.4779.2108.7167.3174-.239.0955-.4778.1897-.7167.2839,0-.2004,0-.4009,0-.6013Z" fill="#a2a1a1"></path>
      <path d="m477.5716,429.3799c-.0319-1.1996-.0916-2.3992-.0918-3.5988-.0045-64.767-.0047-129.5339.002-194.3009.0001-1.1974.09-2.3948.1381-3.5922.1525.9661.4379,1.9323.4382,2.8985.021,65.24.0211,130.4799-.002,195.7199-.0003.9579-.316,1.9157-.4846,2.8736Z" fill="#a2a1a1"></path>
      <path d="m475.0298,435.326c-.2642.3846-.4485.9213-.8139,1.113-.4029.2113-.972.1343-1.4686.1345-16.0618.0052-32.1236.008-48.1855-.0042-.9473-.0007-2.0914.2925-2.4115-1.1182,1.2007-.0244,2.4014-.0687,3.6022-.0703,16.4258-.0217,32.8515-.0375,49.2773-.0548Z" fill="#a2a1a1"></path>
      <path d="m208.1072,368.7031c1.1208-.2261,2.2413-.6478,3.3625-.6496,23.8034-.038,47.6069-.0288,71.4103-.0288,6.701,0,13.4022-.0268,20.1027.0282,1.0327.0085,2.0623.3927,3.0934.603-32.1562-.0084-64.3123-.0173-96.4684-.0224-.5001,0-1.0003.0453-1.5004.0696Z" fill="#a2a1a1"></path>
      <path d="m330.0943,433.6344c15.8769-.0203,31.7538-.0438,47.6308-.0586,3.594-.0033,7.1879.0235,10.7818.0365-.9522.1877-1.9042.5371-2.8567.5389-17.6681.0334-35.3363.0328-53.0045.0029-.8508-.0015-1.7009-.3388-2.5514-.5197Z" fill="#a2a1a1"></path>
      <path d="m475.0298,435.326c-16.4258.0173-32.8515.0331-49.2773.0548-1.2008.0016-2.4015.0459-3.6022.0703-.4082-.2221-.8163-.4443-1.2245-.6664,18.0713.0105,36.1426.0209,54.214.0313-.0475.1741-.0885.3497-.123.5268l.013-.0168Z" fill="#a2a1a1"></path>
      <path d="m132.8669,434.0857c.7523-.1707,1.5045-.4897,2.257-.4904,16.7076-.0156,33.4153.0039,50.123.0168-.6531.1884-1.3062.5411-1.9593.5411-16.8069-.0001-33.6138-.037-50.4207-.0675Z" fill="#a2a1a1"></path>
      <path d="m416.0514,165.3247c-.0021,2.6379-.0042,5.2759-.0063,7.9138-.1623-.0392-.3238-.0817-.4844-.1274.0019-2.5493.0038-5.0987.0055-7.6489.1609-.0488.3227-.0944.4852-.1375Z" fill="#a2a1a1"></path>
      <path d="m481.1824,173.242c.0017-2.6364.0033-5.2728.005-7.9092.1596,2.5975.3192,5.195.4788,7.7931-.1601.0436-.3215.0821-.4839.1161Z" fill="#a2a1a1"></path>
      <path d="m532.2145,615.1846c-.8364.1033-1.6728.2066-2.5093.3099.8364-.1033,1.6728-.2066,2.5093-.3099Z" fill="#a2a1a1"></path>
      <path d="m203.9514,381.8345c.1771-.777.3542-1.554.5313-2.331-.1771.777-.3542,1.554-.5313,2.331Z" fill="#a2a1a1"></path>
      <path d="m453.4931,202.6718c.7651-.1494,1.5302-.2989,2.2952-.4483-.7651.1494-1.5302.2989-2.2952.4483Z" fill="#a2a1a1"></path>
      <path d="m103.5198,615.4946c-.8343-.1044-1.6687-.2088-2.5031-.3132.8343.1044,1.6687.2088,2.5031.3132Z" fill="#a2a1a1"></path>
      <path d="m480.9479,163.5525c-.1679-.718-.3358-1.436-.5037-2.154.1679.718.3358,1.436.5037,2.154Z" fill="#a2a1a1"></path>
      <path d="m197.3367,402.2804c.1772-.7768.3543-1.5535.5314-2.3303-.1771.7768-.3542,1.5535-.5314,2.3303Z" fill="#a2a1a1"></path>
      <path d="m190.7222,422.726c.1773-.776.3545-1.552.5317-2.3279-.1773.776-.3545,1.552-.5317,2.3279Z" fill="#a2a1a1"></path>
      <path d="m416.7153,178.6744c.1738.5694.3476,1.1387.5214,1.7081-.1738-.5694-.3476-1.1387-.5214-1.7081Z" fill="#a2a1a1"></path>
      <path d="m457.1187,137.6764c-.6213-.1493-1.2426-.2987-1.8639-.448.6213.1493,1.2426.2987,1.8639.448Z" fill="#a2a1a1"></path>
      <path d="m479.4378,181.6144c.1565-.5826.313-1.1651.4695-1.7476-.1565.5826-.313,1.1651-.4695,1.7476Z" fill="#a2a1a1"></path>
      <path d="m416.1645,176.1246c.1466.6153.2933,1.2306.4399,1.8458-.1467-.6153-.2933-1.2305-.4399-1.8458Z" fill="#a2a1a1"></path>
      <path d="m191.3218,420.351c.176-.5903.3519-1.1807.5279-1.771-.176.5904-.3519,1.1807-.5279,1.771Z" fill="#a2a1a1"></path>
      <path d="m197.9333,399.9052c.177-.5906.354-1.1812.531-1.7717-.177.5906-.354,1.1812-.531,1.7717Z" fill="#a2a1a1"></path>
      <path d="m480.5341,176.8935c.1398-.628.2796-1.2561.4194-1.8841.0211.5378.0421,1.0756.0634,1.6137-.1633.0861-.3242.176-.4828.2704Z" fill="#a2a1a1"></path>
      <path d="m443.18,137.2087c-.6315.1526-1.2629.3052-1.8946.4578.6314-.1526,1.263-.3052,1.8946-.4578Z" fill="#a2a1a1"></path>
      <path d="m454.0785,137.0452c-.6274-.0755-1.2548-.151-1.8819-.226.6275.0756,1.2547.1508,1.8819.226Z" fill="#a2a1a1"></path>
      <path d="m204.5467,379.4592c.1775-.5905.3551-1.1811.5325-1.7716-.1776.5906-.3551,1.181-.5325,1.7716Z" fill="#a2a1a1"></path>
      <path d="m457.0655,202.0607c.3715-.1267.743-.2534,1.1143-.38-.3716.1267-.7429.2534-1.1143.38Z" fill="#a2a1a1"></path>
      <path d="m439.0213,201.6177c.4063.1373.8127.2746,1.219.4118-.4063-.1373-.8127-.2746-1.219-.4118Z" fill="#a2a1a1"></path>
      <path d="m437.2317,201.0669c.346.1398.692.2796,1.0378.4194-.3461-.1398-.6919-.2796-1.0378-.4194Z" fill="#a2a1a1"></path>
      <path d="m418.7684,431.1131c.0899.4516.1798.9032.2697,1.3548-.09-.4515-.1798-.9032-.2697-1.3548Z" fill="#a2a1a1"></path>
      <path d="m475.0168,435.3428c.0345-.1771.0755-.3528.123-.5268.3823.0185.7647.037,1.1469.0556-.4233.1571-.8466.3142-1.2698.4712Z" fill="#a2a1a1"></path>
      <path d="m476.2503,225.5131c-.3861-.1687-.7723-.3374-1.1584-.506.3861.1687.7723.3373,1.1584.506Z" fill="#a2a1a1"></path>
      <path d="m461.4152,138.847c-.4555-.1623-.911-.3245-1.3664-.4868.4555.1623.9109.3245,1.3664.4868Z" fill="#a2a1a1"></path>
      <path d="m477.1042,186.9651c.1407-.3314.2814-.6627.422-.994-.1407.3314-.2813.6627-.422.994Z" fill="#a2a1a1"></path>
      <path d="m477.6808,185.8277c.1509-.3464.3018-.6927.4526-1.039-.1509.3464-.3017.6927-.4526,1.039Z" fill="#a2a1a1"></path>
      <path d="m215.8022,184.0288c-.152.4498-.304.8996-.4559,1.3497.152-.4497.304-.8997.4559-1.3497Z" fill="#a2a1a1"></path>
      <path d="m478.2719,184.6254c.147-.364.2939-.728.4408-1.0919-.147.364-.2939.7279-.4408,1.0919Z" fill="#a2a1a1"></path>
      <path d="m440.1727,137.8223c-.4301.1486-.8601.2972-1.2903.4457.43-.1486.8602-.2972,1.2903-.4457Z" fill="#a2a1a1"></path>
      <path d="m478.9374,182.7509c.1248-.3535.2496-.7069.3743-1.0603-.1248.3535-.2496.7069-.3743,1.0603Z" fill="#a2a1a1"></path>
      <path d="m217.6085,178.0151c-.1553.4426-.3106.8853-.4658,1.3281.1553-.4426.3106-.8854.4658-1.3281Z" fill="#a2a1a1"></path>
      <path d="m480.5341,176.8935c.1585-.0943.3195-.1843.4827-.2704-.1339.4484-.2676.8972-.4013,1.346-.0271-.3586-.0543-.7171-.0814-1.0756Z" fill="#a2a1a1"></path>
      <path d="m219.3319,167.805l-.4279,1.202.4279-1.202Z" fill="#a2a1a1"></path>
      <path d="m218.1498,176.2212c-.1397.4273-.2793.8545-.4189,1.282.1397-.4272.2793-.8546.4189-1.282Z" fill="#a2a1a1"></path>
      <path d="m190.4183,257.4125c-.1134.2381-.2267.4763-.3401.7147.1134-.2381.2267-.4764.3401-.7147Z" fill="#a2a1a1"></path>
      <path d="m191.0448,255.6034c-.1183.2506-.2366.5011-.3549.752.1183-.2504.2366-.5012.3549-.752Z" fill="#a2a1a1"></path>
      <path d="m185.6132,271.2424c-.1144.2413-.2288.4826-.3432.7241.1144-.2412.2288-.4827.3432-.7241Z" fill="#a2a1a1"></path>
      <path d="m195.8494,241.7737c-.117.2476-.2341.4951-.3511.743.117-.2475.234-.4953.3511-.743Z" fill="#a2a1a1"></path>
      <path d="m416.6516,162.2106c-.0729.228-.1457.4559-.2185.6839-.0911-.1282-.1747-.2611-.2508-.3991.1518-.1028.3082-.1976.4693-.2848Z" fill="#a2a1a1"></path>
      <path d="m180.8084,285.0719c-.116.2429-.232.4858-.348.7289.116-.2428.232-.4859.348-.7289Z" fill="#a2a1a1"></path>
      <path d="m200.657,227.9432c-.1165.2455-.233.491-.3495.7368.1165-.2454.233-.4911.3495-.7368Z" fill="#a2a1a1"></path>
      <path d="m419.109,226.6689c-.0612.2327-.1224.4654-.1832.6981.0613-.2327.1223-.4654.1832-.6981Z" fill="#a2a1a1"></path>
      <path d="m176.015,298.8914c-.1177.2519-.2355.5038-.3532.7559.1178-.2518.2355-.5039.3532-.7559Z" fill="#a2a1a1"></path>
      <path d="m295.8113,164.9351c-.1177-.245-.2354-.4899-.3531-.7349.1177.245.2354.4899.3531.7349Z" fill="#a2a1a1"></path>
      <path d="m172.6134,308.6064c-.0681.1972-.1909.3491-.3685.4556.1229-.1519.2457-.3038.3685-.4556Z" fill="#a2a1a1"></path>
      <path d="m205.4628,214.1131c-.1159.242-.2317.484-.3476.7263.1159-.2419.2317-.4841.3476-.7263Z" fill="#a2a1a1"></path>
      <path d="m167.8034,322.4464c-.0676.193-.1886.3415-.3629.4454.121-.1485.2419-.297.3629-.4454Z" fill="#a2a1a1"></path>
      <path d="m162.9934,336.2843c-.0679.189-.1872.3349-.358.4375.1194-.1459.2387-.2917.358-.4375Z" fill="#a2a1a1"></path>
      <path d="m162.3878,338.0537c-.1271.159-.2542.318-.3812.477.1271-.159.2542-.318.3812-.477Z" fill="#a2a1a1"></path>
      <path d="m158.1833,350.1225c-.0681.1849-.1857.3279-.353.4292.1177-.1431.2353-.2861.353-.4292Z" fill="#a2a1a1"></path>
      <path d="m157.8105,351.8259c-.0536.1854-.1073.3708-.1609.5562.0536-.1854.1073-.3708.1609-.5562Z" fill="#a2a1a1"></path>
      <path d="m416.6516,162.2106c-.1611.0872-.3175.182-.4693.2848.0854-.2221.1709-.4446.2562-.667.0702.1279.1413.2553.2131.3822Z" fill="#a2a1a1"></path>
      <path d="m205.1215,377.6576c.163-.2609.3261-.5217.4891-.7829-.163.2607-.326.5218-.4891.7829Z" fill="#a2a1a1"></path>
      <path d="m416.0514,165.3247c-.1625.0431-.3243.0887-.4852.1375.137-.2226.2738-.4461.4106-.6695.0915.168.1163.3454.0746.5321Z" fill="#a2a1a1"></path>
      <path d="m203.2505,383.0304c.0084-.1596.0551-.3073.1396-.4425.1033.1881.057.3355-.1396.4425Z" fill="#a2a1a1"></path>
      <path d="m202.6581,384.864c.0056-.1798.0605-.3431.1641-.4895.0954.2066.041.3696-.1641.4895Z" fill="#a2a1a1"></path>
      <path d="m198.5066,398.1034c.1633-.2599.3265-.5199.4898-.7802-.1633.2598-.3265.52-.4898.7802Z" fill="#a2a1a1"></path>
      <path d="m210.2673,200.2835c-.1146.239-.2293.478-.3439.7172.1147-.2389.2293-.478.3439-.7172Z" fill="#a2a1a1"></path>
      <path d="m425.7367,194.4388c.153.1391.306.2781.4587.4171-.1531-.1391-.3059-.2781-.4587-.4171Z" fill="#a2a1a1"></path>
      <path d="m140.1276,402.9468c-.0184.1524-.0671.2947-.1455.4263-.1031-.1863-.0548-.3282.1455-.4263Z" fill="#a2a1a1"></path>
      <path d="m196.6366,403.4801c.0076-.1609.0541-.3099.139-.4463.1028.1887.0567.3373-.139.4463Z" fill="#a2a1a1"></path>
      <path d="m196.0434,405.3105c.0056-.1805.061-.3443.1656-.4908.0952.2073.0402.3708-.1656.4908Z" fill="#a2a1a1"></path>
      <path d="m191.8928,418.5493c.1631-.2592.3262-.5183.4893-.7778-.1631.2591-.3262.5184-.4893.7778Z" fill="#a2a1a1"></path>
      <path d="m323.3815,418.0553c.093.1365.1448.2871.1553.4515-.201-.1058-.2528-.2563-.1553-.4515Z" fill="#a2a1a1"></path>
      <path d="m425.1397,193.8897c.2193.0291.3485.1524.3873.3698-.1459-.106-.2749-.2293-.3873-.3698Z" fill="#a2a1a1"></path>
      <path d="m424.5393,193.3103c.1981.0286.311.142.3384.34-.1205-.106-.2332-.2193-.3384-.34Z" fill="#a2a1a1"></path>
      <path d="m189.4274,425.7496c.0107-.1718.0637-.3296.1581-.4729.0974.2005.0449.3579-.1581.4729Z" fill="#a2a1a1"></path>
      <path d="m389.5497,430.5463c-.1265-.3144-.253-.6288-.3797-.9442.1265.314.2531.6291.3797.9442Z" fill="#a2a1a1"></path>
      <path d="m306.0383,193.788c-.1156-.2403-.2311-.4805-.3466-.7207.1156.2403.2311.4805.3466.7207Z" fill="#a2a1a1"></path>
      <path d="m477.6385,432.3455c-.0941-.1825-.1046-.3696-.0314-.5615.0632.1281.143.2517.1795.3869.0113.0418-.0955.1154-.1481.1745Z" fill="#a2a1a1"></path>
      <path d="m417.3345,159.342c-.0095.1786-.062.3438-.1568.4951.0526-.1653.1047-.3302.1568-.4951Z" fill="#a2a1a1"></path>
      <path d="m219.9215,158.6085c-.0495.2687-.099.5374-.1482.8062.0496-.2687.0989-.5374.1482-.8062Z" fill="#a2a1a1"></path>
      <path d="m477.0039,434.1943c.1489-.2345.2978-.4689.4467-.7034-.1489.2344-.2978.4689-.4467.7034Z" fill="#a2a1a1"></path>
      <path d="m476.4219,434.7983c.159-.1509.3181-.3017.477-.4523-.159.151-.318.3016-.477.4523Z" fill="#a2a1a1"></path>
      <path d="m290.5505,156.741c-.2684-.0201-.5368-.0402-.8053-.0606.2683.02.5368.0403.8053.0606Z" fill="#a2a1a1"></path>
      <path d="m423.935,192.6173c.1317.1457.2633.2915.3948.4371-.1611-.1193-.2926-.265-.3948-.4371Z" fill="#a2a1a1"></path>
      <path d="m222.6078,156.6741c-.266.0289-.532.0578-.7981.0866.266-.029.532-.0578.7981-.0866Z" fill="#a2a1a1"></path>
      <path d="m215.0724,186.4538c-.113.2379-.226.4757-.3389.7138.113-.2378.2259-.4758.3389-.7138Z" fill="#a2a1a1"></path>
      <path d="m459.2156,138.2166c-.3201-.1309-.6403-.2617-.9604-.3926.3201.1309.6403.2618.9604.3926Z" fill="#a2a1a1"></path>
      <path d="m216.1831,182.8719c-.0897.2077-.1793.4155-.269.6234.0897-.2077.1793-.4156.269-.6234Z" fill="#a2a1a1"></path>
      <path d="m479.9775,179.8198c.1519-.2597.3038-.5193.4557-.7794-.152.2595-.3038.5195-.4557.7794Z" fill="#a2a1a1"></path>
      <path d="m299.4261,175.1379c-.1146-.2372-.2292-.4743-.3438-.7114.1146.2372.2292.4743.3438.7114Z" fill="#a2a1a1"></path>
      <path d="m218.5741,173.8625c-.0742.2349-.1484.4698-.2225.7053.0742-.2347.1483-.47.2225-.7053Z" fill="#a2a1a1"></path>
      <path d="m481.1824,173.242c.1624-.034.3237-.0725.4839-.1161-.1366.2124-.2732.4253-.4098.6383-.0939-.1642-.1186-.3383-.0741-.5222Z" fill="#a2a1a1"></path>
      <path d="m415.5607,173.1111c.1606.0458.3221.0882.4844.1274.0427.1865.0167.3628-.0778.5291-.1355-.2188-.271-.4377-.4065-.6565Z" fill="#a2a1a1"></path>
      <path d="m444.9953,136.9657c-.2228.0217-.4457.0434-.6685.0652.0846-.1551.1696-.31.2549-.4647.1644.1057.3023.2389.4135.3995Z" fill="#a2a1a1"></path>
      <path d="m444.5817,136.5661c-.0853.1547-.1703.3096-.2549.4647-.1748-.0058-.3402-.0481-.4963-.1269.2504-.1126.5009-.2252.7513-.3378Z" fill="#a2a1a1"></path>
      <path d="m229.7512,296.5686c.1532-.4871.3064-.9742.4589-1.4607.0605-.1206.1023-.2479.1246-.3814.1319-.4601.2637-.9203.3948-1.3798.1091-.1486.1712-.3155.1858-.5.041-.2053.082-.4106.123-.6158.1494-.4218.2989-.8436.4483-1.2655.0821-.3876.1642-.7751.2462-1.1626.1389-.3583.2778-.7167.4168-1.0751.1266-.4645.2532-.929.3791-1.393.1129-.1542.175-.3274.1854-.5191.0395-.1994.079-.3989.1185-.5983.1758-.5585.3516-1.117.5275-1.6755.1357-.4782.2714-.9565.4063-1.4341.0927-.1461.1454-.3061.1574-.4793.0396-.2075.0792-.4149.1187-.6224.1723-.5615.3446-1.1231.5169-1.6846.1193-.4661.2386-.9323.3572-1.3978.1236-.1603.1896-.3423.197-.5455.2348-.793.4696-1.5861.7044-2.3792.1839-.5567.3678-1.1134.5517-1.6701.0539-.253.1078-.506.1617-.7589.1428-.3599.2856-.7198.4284-1.0797.1481-.4742.2961-.9484.4435-1.4219.0735-.1272.1217-.264.1438-.4098.1295-.4535.2589-.9069.3877-1.3598.1145-.1472.1807-.3144.1979-.501.0427-.2074.0854-.4148.1282-.6222.1498-.415.2996-.8301.4495-1.2451-.0579-.2063-.017-.3907.1226-.5532.153-.4334.3061-.8669.4591-1.3004.083-.3764.166-.7529.249-1.1293.1416-.36.2833-.72.425-1.0801.1436-.4718.2872-.9436.4301-1.4147.0822-.1344.1331-.2804.152-.4374.1145-.4392.2291-.8783.343-1.317.0779-.1883.1563-.3771.2348-.5659.0414-.1917.0829-.3834.1243-.5751.1517-.4259.3035-.8519.4552-1.2778.0846-.3845.1691-.769.2537-1.1534.1393-.3529.2786-.7058.4179-1.0587.1493-.4816.2985-.9633.4471-1.4443.0689-.1266.1142-.2619.1351-.4051.1219-.4498.2437-.8996.3649-1.3489.1284-.1543.1999-.3323.2138-.5336.042-.1992.084-.3983.1259-.5974.1505-.4214.3011-.8427.4517-1.2641-.0567-.2008-.0161-.3795.1219-.536.1827-.5602.3654-1.1203.5481-1.6805.1536-.4874.3072-.9747.4601-1.4615.0596-.1203.1008-.2473.1228-.3803.1284-.4583.2569-.9166.3846-1.3743.1146-.1487.1801-.3174.1959-.5053.0425-.2056.085-.4113.1275-.6169.1497-.4171.2994-.8343.4491-1.2514-.0574-.2046-.0168-.3873.122-.5482.1822-.5561.3645-1.1123.5467-1.6684.0539-.2532.1077-.5063.1615-.7595.1429-.3595.2858-.719.4288-1.0786.1502-.4759.3003-.9518.4497-1.4271.0697-.1255.1159-.2598.138-.4023.125-.4531.25-.9062.3743-1.3587.1233-.1562.1908-.3345.2018-.5342.0408-.1969.0815-.3937.1222-.5906.1498-.4281.2997-.8562.4496-1.2843.0796-.3804.1593-.7608.2389-1.1411.1396-.3717.2793-.7434.4189-1.1151.0402-.2247.0805-.4494.1207-.674.1442-.4195.2883-.839.4325-1.2585.1688-.622.3375-1.2439.5056-1.8653.0749-.1391.1188-.2879.1309-.4458.0387-.2128.0775-.4257.1162-.6385.1696-.5675.3391-1.1351.5087-1.7026.0883-.446.1765-.892.2647-1.3378.0902-.2188.1805-.4378.2707-.6568.1164-.5853.2328-1.1706.349-1.7556.0858-.2112.1718-.4227.2579-.6343.1141-.596.2281-1.192.3419-1.7877.1082-.3426.2166-.6854.3251-1.0282.0376-.2415.0752-.483.1128-.7245.1594-.571.3188-1.1421.4781-1.7132.0355-.2295.0709-.459.1064-.6884.1545-.6014.309-1.2028.4636-1.8043.118-.6263.236-1.2526.3534-1.8785.0954-.3469.1914-.6943.2874-1.0416,0,0,.009-.0518.009-.0517.1619-.631.3238-1.262.4857-1.893,0,0-.0322-.0062-.0319-.0059.2234.0354.4464.0704.6694.1054,0,0,.0113.0495.0114.0495.1781.573.3563,1.1462.5344,1.7193.0376.1929.0752.3858.1128.5787.0071.1998.0703.3799.1896.5402.1223.4653.2446.9305.3669,1.3957.1748.5643.3496,1.1288.5244,1.6933.0386.1996.0773.3992.1159.5988.0095.1869.0675.3574.1739.5116.1283.4723.2567.9447.385,1.4169.1724.5599.3448,1.1199.5172,1.6799.0392.2105.0784.421.1175.6314.0128.1653.0616.3194.1466.4622.165.6118.33,1.2235.495,1.8354.1434.4268.2868.8534.4302,1.28.0395.2211.079.4423.1185.6633.1386.3752.2772.7505.4158,1.1257.0758.3893.1516.7785.2274,1.1679.1431.4168.2862.8336.4294,1.2503.0406.2296.0812.4591.1218.6886.178.5749.356,1.1499.534,1.7249.138.1635.1751.3473.1112.5516.0768.1962.1536.3923.2305.5884.1081.4507.2163.9014.3244,1.352.1778.5722.3556,1.1445.5334,1.7167.1386.165.1774.3507.1161.5574.1464.4134.2929.8267.4394,1.2401.0424.2226.0849.4452.1274.6677.0188.1478.0645.2872.1369.4181.1462.4839.2925.9678.4387,1.4516.1801.5591.3602,1.1184.5403,1.6777.1393.1646.1798.3508.1215.5585.1505.4142.3011.8283.4516,1.2424.0421.2088.0841.4176.1262.6263.0166.1792.0777.3419.1831.4881.1332.4616.2665.9232.3997,1.3846.0228.1313.0639.2569.1234.3766.1539.4863.3078.9725.4617,1.4586.1405.3523.281.7048.4215,1.0572.087.3753.1741.7505.2611,1.1259.1551.4355.3102.8709.4653,1.3062.2379.7872.4758,1.5744.7137,2.3617.1509.4135.3018.8269.4527,1.2403.0426.2066.0852.4132.1278.6198.017.1863.0825.3537.1965.5022.1297.4533.2594.9066.3891,1.3597.0216.1439.0683.2795.14.4066.149.4748.2981.9496.4471,1.4243.1434.3611.2869.7223.4303,1.0835.0533.2515.1066.5029.1599.7543.1839.5572.3678,1.1146.5517,1.6719.2363.7911.4726,1.5821.7088,2.3732.1508.4098.3017.8195.4525,1.2293.0429.2108.0857.4216.1286.6324.0181.1775.0795.3386.1844.4831.1341.4586.2682.9171.4023,1.3755.0223.1376.0662.2683.1318.3919.1516.48.3031.9599.4547,1.4397.1427.3575.2853.7152.428,1.0729.0836.3742.1672.7484.2508,1.1227.1545.4354.3091.8707.4637,1.306.1383.1562.1792.3348.1227.5358.1527.4217.3055.8433.4582,1.2649.0422.194.0845.388.1267.582.1503.4059.3006.8117.4509,1.2176.0427.2179.0855.4359.1282.6537.0182.1586.069.3062.1527.4426.1421.473.2842.946.4263,1.4189.1396.3582.2791.7166.4187,1.0749.0833.3826.1665.7652.2497,1.1479.1513.4268.3026.8535.454,1.2802.0407.1942.0815.3883.1222.5825.0731.1836.1463.3671.2195.5507.1185.4483.237.8966.3555,1.3447.0204.1412.0643.2751.1315.4015.1499.4829.2997.9657.4496,1.4485.1829.5625.3658,1.1251.5487,1.6877.2377.7858.4754,1.5716.7131,2.3575.152.4155.3041.831.4561,1.2464.0424.201.0848.4019.1272.6028.0157.1989.0872.375.2147.5284.1258.4359.2517.8717.3775,1.3075.0202.1791.0849.3404.1942.4839.1339.4467.2677.8933.4016,1.3399.0215.1634.0785.3135.171.4503.1421.4568.2842.9135.4263,1.3702.0231.1529.0763.2947.1596.4255.1476.4582.2953.9164.4429,1.3744.0244.1593.0824.3056.174.4388.1441.4488.2882.8977.4323,1.3464.0232.1736.0879.3302.194.4699.1379.4376.2757.8751.4136,1.3126.0215.1901.0939.3583.2172.5047.1271.4364.2542.8728.3814,1.309.0201.1777.084.3381.1916.4812.1346.4478.2693.8956.4039,1.3433.0219.1627.0789.3122.1711.4485.1413.46.2826.9201.4239,1.38.022.1414.0678.275.1371.4007.1493.4788.2987.9576.448,1.4362.1412.3569.2824.7138.4235,1.0708.0839.3779.1678.7557.2517,1.1337.1509.4315.302.8629.453,1.2942.0395.1932.0789.3864.1184.5798.0097.2044.0783.3865.2056.5465.126.4333.252.8666.3781,1.3-.014.3299-.028.6599-.042.9897-.6949.0594-1.3898.1703-2.0846.1706-20.6383.0089-41.2766.0074-61.9149.0027-.4993-.0001-.9987-.0553-1.498-.0847-.1762-.1634-.3523-.3268-.5285-.4902.2025-.7971.405-1.5942.6072-2.3911.1817-.5811.3636-1.1623.5455-1.7435,0,0,.0771-.0466.0769-.0465.154-.2426.3083-.4853.4626-.728,1.0428-3.177,2.0856-6.3541,3.1284-9.5311.1559-.4337.3117-.8674.4676-1.3012.0899-.3789.1797-.7577.2695-1.1365.1374-.3493.2749-.6987.4123-1.0481Z" fill="#a2a1a1"></path>
      <path d="m244.7856,247.2577c-.1827.5602-.3654,1.1203-.5481,1.6805.1827-.5602.3654-1.1203.5481-1.6805Z" fill="#a2a1a1"></path>
      <path d="m236.3698,274.3289c-.1839.5567-.3678,1.1134-.5517,1.6701.1839-.5567.3678-1.1134.5517-1.6701Z" fill="#a2a1a1"></path>
      <path d="m247.1944,239.4513c-.1823.5561-.3645,1.1123-.5467,1.6684.1823-.5561.3645-1.1123.5467-1.6684Z" fill="#a2a1a1"></path>
      <path d="m265.7021,237.5141c-.1801-.5593-.3602-1.1185-.5403-1.6777.1801.5593.3602,1.1185.5403,1.6777Z" fill="#a2a1a1"></path>
      <path d="m234.5594,280.3215c-.1723.5615-.3446,1.1231-.5169,1.6846.1723-.5616.3446-1.1231.5169-1.6846Z" fill="#a2a1a1"></path>
      <path d="m280.747,285.6238c-.1829-.5626-.3658-1.1253-.5487-1.6877.1829.5627.3658,1.1252.5487,1.6877Z" fill="#a2a1a1"></path>
      <path d="m263.9034,231.5016c-.1778-.5723-.3556-1.1446-.5335-1.7167.1778.5723.3556,1.1445.5335,1.7167Z" fill="#a2a1a1"></path>
      <path d="m233.36,284.5419c-.1758.5585-.3517,1.117-.5275,1.6755.1758-.5585.3517-1.117.5275-1.6755Z" fill="#a2a1a1"></path>
      <path d="m262.7039,227.2928c-.178-.575-.356-1.15-.534-1.7249.178.575.356,1.15.534,1.7249Z" fill="#a2a1a1"></path>
      <path d="m251.9927,223.175c-.1696.5675-.3392,1.1351-.5088,1.7026.1696-.5675.3392-1.1351.5088-1.7026Z" fill="#a2a1a1"></path>
      <path d="m224.9339,310.3601c-.1819.5812-.3638,1.1624-.5455,1.7435.182-.5812.3637-1.1624.5455-1.7435Z" fill="#a2a1a1"></path>
      <path d="m272.3262,258.5629c-.1839-.5573-.3678-1.1147-.5517-1.6719.1839.5574.3678,1.1146.5517,1.6719Z" fill="#a2a1a1"></path>
      <path d="m259.6675,216.4629c-.1724-.56-.3448-1.1201-.5172-1.6799.1724.5601.3448,1.12.5172,1.6799Z" fill="#a2a1a1"></path>
      <path d="m254.3929,213.537c-.1594.5711-.3188,1.1421-.4781,1.7132.1594-.5711.3188-1.1421.4781-1.7132Z" fill="#a2a1a1"></path>
      <path d="m254.9629,211.0443c-.1545.6014-.309,1.2028-.4636,1.8043.1545-.6014.309-1.2029.4636-1.8043Z" fill="#a2a1a1"></path>
      <path d="m256.0984,206.1795c-.1619.631-.3238,1.262-.4857,1.893.1619-.631.3238-1.262.4857-1.893Z" fill="#a2a1a1"></path>
      <path d="m257.2816,208.0478c-.1781-.5731-.3562-1.1463-.5344-1.7193.1781.5732.3562,1.1463.5344,1.7193Z" fill="#a2a1a1"></path>
      <path d="m258.4755,212.2557c-.1748-.5645-.3496-1.1289-.5244-1.6933.1748.5645.3496,1.1289.5244,1.6933Z" fill="#a2a1a1"></path>
      <path d="m255.6037,208.1242c-.096.3474-.1919.6948-.2874,1.0416.0961-.3475.1917-.6946.2874-1.0416Z" fill="#a2a1a1"></path>
      <path d="m256.7359,206.279c-.223-.035-.4461-.07-.6694-.1054.1385-.222.2773-.4437.4161-.6654l.2534.7708Z" fill="#a2a1a1"></path>
      <path d="m289.8072,314.8964c.014-.3299.028-.6598.042-.9897-.014.3299-.028.6598-.042.9897Z" fill="#a2a1a1"></path>
      <path d="m253.802,215.9746c-.1085.3428-.2169.6857-.3251,1.0282.1085-.3429.2168-.6856.3251-1.0282Z" fill="#a2a1a1"></path>
      <path d="m289.1472,311.4804c-.151-.4314-.302-.8627-.453-1.2942.151.4313.302.8628.453,1.2942Z" fill="#a2a1a1"></path>
      <path d="m260.8569,220.672c-.1434-.4266-.2868-.8532-.4302-1.28.1434.4266.2868.8533.4302,1.28Z" fill="#a2a1a1"></path>
      <path d="m288.4426,309.0524c-.1412-.357-.2823-.714-.4235-1.0708.1412.3571.2823.7139.4235,1.0708Z" fill="#a2a1a1"></path>
      <path d="m261.3912,222.4611c-.1386-.3753-.2772-.7506-.4158-1.1257.1386.3753.2772.7505.4158,1.1257Z" fill="#a2a1a1"></path>
      <path d="m262.048,224.8792c-.1431-.4167-.2863-.8335-.4294-1.2503.1431.4167.2863.8335.4294,1.2503Z" fill="#a2a1a1"></path>
      <path d="m229.0694,298.7533c-.1559.4337-.3118.8674-.4677,1.3012.1559-.4337.3118-.8674.4677-1.3012Z" fill="#a2a1a1"></path>
      <path d="m229.7512,296.5686c-.1375.3494-.2749.6988-.4124,1.0481.1375-.3494.2749-.6988.4124-1.0481Z" fill="#a2a1a1"></path>
      <path d="m231.4866,290.9654c-.1494.4218-.2989.8436-.4483,1.2655.1494-.4218.2989-.8436.4483-1.2655Z" fill="#a2a1a1"></path>
      <path d="m232.1496,288.7278c-.1389.3584-.2779.7167-.4168,1.0751.1389-.3584.2778-.7167.4168-1.0751Z" fill="#a2a1a1"></path>
      <path d="m250.7313,227.8272c-.1442.4195-.2883.839-.4325,1.2585.1442-.4195.2883-.839.4325-1.2585Z" fill="#a2a1a1"></path>
      <path d="m281.9162,289.2277c-.152-.4154-.3041-.8309-.4561-1.2464.1521.4154.3041.8309.4561,1.2464Z" fill="#a2a1a1"></path>
      <path d="m250.1781,229.7597c-.1396.3717-.2793.7434-.4189,1.1151.1397-.3717.2793-.7434.4189-1.1151Z" fill="#a2a1a1"></path>
      <path d="m249.5203,232.016c-.1499.4281-.2997.8562-.4496,1.2843.1498-.4281.2997-.8562.4496-1.2843Z" fill="#a2a1a1"></path>
      <path d="m264.4589,233.2991c-.1465-.4133-.2929-.8267-.4394-1.2401.1465.4133.2929.8267.4394,1.2401Z" fill="#a2a1a1"></path>
      <path d="m278.9199,279.6082c-.1513-.4267-.3027-.8534-.454-1.2802.1514.4267.3027.8534.454,1.2802Z" fill="#a2a1a1"></path>
      <path d="m247.7847,237.6132c-.1429.3595-.2859.7191-.4288,1.0786.143-.3595.2859-.7191.4288-1.0786Z" fill="#a2a1a1"></path>
      <path d="m266.2753,239.315c-.1505-.4141-.3011-.8282-.4516-1.2424.1506.4141.3011.8282.4516,1.2424Z" fill="#a2a1a1"></path>
      <path d="m278.2162,277.1801c-.1395-.3584-.2791-.7167-.4187-1.0749.1395.3584.2791.7167.4187,1.0749Z" fill="#a2a1a1"></path>
      <path d="m246.5257,241.6679c-.1497.4172-.2994.8343-.4491,1.2514.1497-.4172.2994-.8343.4491-1.2514Z" fill="#a2a1a1"></path>
      <path d="m277.0904,273.59c-.1503-.4059-.3006-.8117-.4509-1.2176.1503.4058.3006.8117.4509,1.2176Z" fill="#a2a1a1"></path>
      <path d="m236.96,272.4903c-.1428.3599-.2857.7198-.4285,1.0797.1428-.3599.2856-.7198.4285-1.0797Z" fill="#a2a1a1"></path>
      <path d="m267.9909,244.7065c-.1405-.3524-.281-.7049-.4215-1.0572.1405.3525.281.7049.4215,1.0572Z" fill="#a2a1a1"></path>
      <path d="m276.5128,271.7903c-.1527-.4216-.3055-.8432-.4582-1.2649.1528.4216.3055.8433.4582,1.2649Z" fill="#a2a1a1"></path>
      <path d="m268.7173,247.1386c-.1551-.4354-.3103-.8707-.4653-1.3062.1551.4353.3102.8708.4653,1.3062Z" fill="#a2a1a1"></path>
      <path d="m244.1157,249.4742c-.1506.4214-.3011.8427-.4517,1.2641.1506-.4214.3011-.8427.4517-1.2641Z" fill="#a2a1a1"></path>
      <path d="m269.8836,250.7405c-.1509-.4134-.3018-.8268-.4527-1.2403.1509.4134.3018.8268.4527,1.2403Z" fill="#a2a1a1"></path>
      <path d="m275.9319,269.9896c-.1546-.4353-.3092-.8705-.4637-1.306.1546.4352.3091.8706.4637,1.306Z" fill="#a2a1a1"></path>
      <path d="m238.7105,266.9305c-.1498.4151-.2997.8301-.4495,1.2451.1498-.4151.2996-.8301.4495-1.2451Z" fill="#a2a1a1"></path>
      <path d="m275.2174,267.5609c-.1426-.3577-.2853-.7153-.428-1.0729.1426.3577.2853.7153.428,1.0729Z" fill="#a2a1a1"></path>
      <path d="m242.3772,255.0676c-.1393.3529-.2786.7059-.4179,1.0587.1393-.353.2786-.7059.4179-1.0587Z" fill="#a2a1a1"></path>
      <path d="m271.6146,256.1368c-.1434-.3612-.2869-.7224-.4303-1.0835.1434.3613.2869.7224.4303,1.0835Z" fill="#a2a1a1"></path>
      <path d="m239.2923,265.077c-.1531.4335-.3061.8669-.4591,1.3004.153-.4335.3061-.8669.4591-1.3004Z" fill="#a2a1a1"></path>
      <path d="m239.9663,262.8677c-.1417.36-.2834.7201-.425,1.0801.1417-.36.2834-.72.425-1.0801Z" fill="#a2a1a1"></path>
      <path d="m241.7057,257.2797c-.1518.4259-.3035.8519-.4552,1.2778.1518-.4259.3035-.8519.4552-1.2778Z" fill="#a2a1a1"></path>
      <path d="m273.4876,262.1654c-.1509-.4097-.3017-.8195-.4525-1.2293.1509.4097.3017.8195.4525,1.2293Z" fill="#a2a1a1"></path>
      <path d="m240.5484,261.0156c-.0189.157-.0698.303-.152.4374-.0938-.192-.0434-.3376.152-.4374Z" fill="#a2a1a1"></path>
      <path d="m241.1262,259.1327c-.0785.1888-.1569.3776-.2348.5659.0787-.1889.1567-.3774.2348-.5659Z" fill="#a2a1a1"></path>
      <path d="m273.8006,263.2809c-.1049-.1446-.1663-.3057-.1844-.4831.2045.1106.266.2717.1844.4831Z" fill="#a2a1a1"></path>
      <path d="m274.3347,265.0484c-.0656-.1236-.1096-.2543-.1319-.3919.1893.0874.2333.218.1319.3919Z" fill="#a2a1a1"></path>
      <path d="m270.7371,253.6289c-.0718-.1272-.1185-.2627-.14-.4066.1917.091.2384.2265.14.4066Z" fill="#a2a1a1"></path>
      <path d="m242.9594,253.2182c-.0209.1432-.0661.2785-.1351.4051-.1001-.1786-.0553-.3134.1351-.4051Z" fill="#a2a1a1"></path>
      <path d="m238.1329,268.7979c-.0172.1866-.0835.3538-.198.501.0665-.1674.1322-.3342.198-.501Z" fill="#a2a1a1"></path>
      <path d="m243.5381,251.3358c-.0139.2013-.0854.3793-.2138.5336.0717-.1782.1427-.3559.2138-.5336Z" fill="#a2a1a1"></path>
      <path d="m237.5473,270.6586c-.0222.1458-.0704.2826-.1438.4098-.0974-.1824-.0497-.3188.1438-.4098Z" fill="#a2a1a1"></path>
      <path d="m245.3685,245.416c-.022.133-.0632.2599-.1228.3803-.1054-.1683-.0647-.2949.1228-.3803Z" fill="#a2a1a1"></path>
      <path d="m245.949,243.5363c-.0158.188-.0813.3566-.1959.5053.0658-.1688.1308-.3371.1959-.5053Z" fill="#a2a1a1"></path>
      <path d="m267.1077,242.1906c-.0595-.1198-.1006-.2454-.1234-.3766,0,.0002.1719.1572.1719.1572l-.0486.2194Z" fill="#a2a1a1"></path>
      <path d="m277.3713,274.6863c-.0836-.1365-.1345-.2841-.1527-.4426.1957.1021.2466.2496.1527.4426Z" fill="#a2a1a1"></path>
      <path d="m266.5846,240.4293c-.1054-.1462-.1664-.3089-.1831-.4881.2036.1131.2646.2758.1831.4881Z" fill="#a2a1a1"></path>
      <path d="m235.1137,278.3781c-.0075.2032-.0734.3853-.1971.5455.0661-.1822.1316-.3639.1971-.5455Z" fill="#a2a1a1"></path>
      <path d="m248.3725,235.7838c-.0221.1424-.0683.2767-.138.4023-.0985-.1787-.0527-.3126.138-.4023Z" fill="#a2a1a1"></path>
      <path d="m264.7231,234.3848c-.0724-.1308-.118-.2702-.1369-.4181.1929.0966.2385.2359.1369.4181Z" fill="#a2a1a1"></path>
      <path d="m279.2616,280.7414c-.0732-.1836-.1463-.3671-.2195-.5507.0732.1836.1463.3671.2195.5507Z" fill="#a2a1a1"></path>
      <path d="m279.7487,282.4876c-.0673-.1264-.1111-.2603-.1315-.4015.19.0915.2339.2253.1315.4015Z" fill="#a2a1a1"></path>
      <path d="m233.9237,282.6285c-.012.1732-.0647.3332-.1574.4793-.0939-.2039-.0417-.3635.1574-.4793Z" fill="#a2a1a1"></path>
      <path d="m248.9485,233.8909c-.011.1997-.0785.378-.2018.5342.0677-.1784.1348-.3563.2018-.5342Z" fill="#a2a1a1"></path>
      <path d="m232.7141,286.8157c-.0104.1917-.0725.3649-.1854.5191.0623-.1734.1238-.3463.1854-.5191Z" fill="#a2a1a1"></path>
      <path d="m263.0456,228.4328c-.0768-.1961-.1537-.3922-.2305-.5884.0768.1961.1537.3922.2305.5884Z" fill="#a2a1a1"></path>
      <path d="m282.2581,290.3589c-.1275-.1533-.199-.3295-.2147-.5284.0716.1761.1431.3522.2147.5284Z" fill="#a2a1a1"></path>
      <path d="m282.8297,292.1504c-.1092-.1435-.174-.3049-.1942-.4839.2064.1084.2712.2697.1942.4839Z" fill="#a2a1a1"></path>
      <path d="m230.9153,292.8467c-.0146.1846-.0767.3515-.1858.5.0624-.1671.1241-.3336.1858-.5Z" fill="#a2a1a1"></path>
      <path d="m283.4023,293.9405c-.0925-.1368-.1495-.2869-.171-.4503.2.1003.257.2503.171.4503Z" fill="#a2a1a1"></path>
      <path d="m230.3346,294.7265c-.0223.1335-.064.2609-.1245.3814-.1041-.1692-.0628-.2961.1245-.3814Z" fill="#a2a1a1"></path>
      <path d="m283.9881,295.7361c-.0833-.1308-.1364-.2726-.1596-.4255.197.093.2502.2348.1596.4255Z" fill="#a2a1a1"></path>
      <path d="m251.3678,225.5161c-.0121.158-.056.3068-.1309.4458-.1051-.1877-.0617-.3361.1309-.4458Z" fill="#a2a1a1"></path>
      <path d="m284.605,297.5493c-.0916-.1331-.1496-.2794-.174-.4388.2003.0946.2583.2408.174.4388Z" fill="#a2a1a1"></path>
      <path d="m285.2313,299.3656c-.1061-.1396-.1708-.2963-.194-.4699.2049.1028.2695.2594.194.4699Z" fill="#a2a1a1"></path>
      <path d="m285.862,301.1828c-.1232-.1463-.1956-.3146-.2172-.5047.0724.1683.1448.3365.2172.5047Z" fill="#a2a1a1"></path>
      <path d="m286.435,302.973c-.1077-.1431-.1716-.3035-.1917-.4812.2054.1079.2693.2683.1917.4812Z" fill="#a2a1a1"></path>
      <path d="m287.01,304.7647c-.0922-.1362-.1492-.2858-.1711-.4485.2002.0995.2572.249.1711.4485Z" fill="#a2a1a1"></path>
      <path d="m287.571,306.5454c-.0694-.1257-.1151-.2593-.1371-.4007.1919.0894.2376.2229.1371.4007Z" fill="#a2a1a1"></path>
      <path d="m252.5282,221.1804c-.0903.219-.1806.4379-.2707.6568.0903-.219.1805-.4379.2707-.6568Z" fill="#a2a1a1"></path>
      <path d="m225.4733,309.5855c-.1543.2427-.3086.4854-.4625.7281.1544-.2428.3085-.4854.4625-.7281Z" fill="#a2a1a1"></path>
      <path d="m253.135,218.7906c-.086.2115-.1721.423-.2579.6343.0861-.2116.172-.4229.2579-.6343Z" fill="#a2a1a1"></path>
      <path d="m259.9317,217.5566c-.085-.1428-.1338-.2969-.1466-.4622.1959.1119.2447.2659.1466.4622Z" fill="#a2a1a1"></path>
      <path d="m223.7812,314.4947c.1762.1634.3523.3268.5285.4902-.1762-.1634-.3523-.3268-.5285-.4902Z" fill="#a2a1a1"></path>
      <path d="m258.7653,213.3661c-.1064-.1542-.1644-.3247-.1739-.5116.058.1705.1159.3411.1739.5116Z" fill="#a2a1a1"></path>
      <path d="m257.5841,209.1667c-.1193-.1604-.1825-.3404-.1896-.5402.0632.18.1264.3601.1896.5402Z" fill="#a2a1a1"></path>
      <path d="m270.208,251.8625c-.114-.1485-.1795-.3159-.1965-.5022.0655.1674.131.3348.1965.5022Z" fill="#a2a1a1"></path>
    </g>
  </g>
</svg>
