<?xml version="1.0" encoding="UTF-8"?>
<svg xmlns="http://www.w3.org/2000/svg" id="Layer_1" viewBox="0 0 697.9091 256.699">
  <g id="hSrtHj">
    <g>
      <path d="m265.6795,164.4006c5.0599-14.3078,9.7973-27.7142,14.5427-41.1178,2.8232-7.9743,5.7394-15.9171,8.4389-23.9329.7815-2.3204,1.8016-3.3412,4.4141-3.2386,5.6377.2214,11.2901.0681,17.3145.0681-.4537,1.4812-.7274,2.6476-1.1613,3.7511-11.1319,28.316-22.3087,56.6144-33.3757,84.9556-.9383,2.4028-2.0693,3.5208-4.7713,3.3437-3.6755-.241-7.3893-.2306-11.0666-.003-2.6681.1652-3.8938-.8761-4.8343-3.3043-6.0702-15.6739-12.2826-31.2927-18.4579-46.9259-.4395-1.1126-.9551-2.195-2.2268-3.2506-.0621,1.2207-.1778,2.4414-.1784,3.6621-.0121,25.4703.0278,50.9406-.0317,76.4108-.0245,10.4888-5.3863,17.8329-14.5115,20.04-1.7619.4261-3.6478.4691-5.4765.4698-56.97.023-113.94.0229-170.91.0154-12.6661-.0017-20.702-7.9857-20.7366-20.723-.0538-19.8101-.0152-39.6204-.0153-59.4306,0-38.39-.0042-76.78.0053-115.17.0014-5.5304,1.0512-10.7185,4.7798-15.1133,4.2407-4.9983,9.6866-6.6833,16.0679-6.6675,32.4836.0801,64.9676.0359,97.4514.0361,24.2398.0002,48.4797-.0274,72.7195.0167,10.2639.0187,17.4196,4.911,19.8744,13.7246.678,2.4342.7339,5.0954.743,7.6536.0612,17.103.0954,34.2068-.0194,51.3092-.0235,3.4959.4718,5.8778,4.7477,5.1219,2.8384-.5018,3.1129,1.8293,3.7348,3.5888,6.9866,19.7675,13.9313,39.5499,20.8963,59.3251.5254,1.4918,1.1201,2.9592,2.0427,5.3848Zm-187.9241-46.7624c-1.2549,5.1208-2.4269,9.7189-3.5047,14.3391-2.5049,10.738-5.594,21.3904-7.2561,32.2595-1.5125,9.8909,2.94,17.5653,12.4821,20.1437,6.0938,1.6467,12.3946,1.7138,17.9089-1.5743,5.0657-3.0205,9.5815-6.9632,13.6562-9.9916-.6469,2.7726-1.5786,6.7657-2.6302,11.2725,6.479,0,12.4872-.1816,18.4766.0757,3.0501.131,4.2443-.888,4.9632-3.8266,3.7893-15.4907,7.7357-30.944,11.766-46.3742,1.613-6.1755,4.2645-11.8509,10.0322-15.3263,4.4362-2.673,9.1842-2.7278,13.7124-.4381,4.4912,2.271,5.1403,6.6279,4.8032,11.1041-.192,2.5495-.6895,5.1065-1.335,7.5858-2.131,8.1852-4.6035,16.2865-6.5468,24.5141-2.1757,9.2112,1.4707,18.0778,8.6568,21.576,6.7793,3.3001,13.7399,3.5367,20.6286.2576,9.5359-4.539,13.3803-13.1683,16.2589-22.7977-2.1556-.8952-4.2381-1.6145-6.1823-2.6054-2.2775-1.1608-3.2258-.2378-4.1364,1.8326-1.1792,2.6813-2.5152,5.3509-4.1904,7.7404-1.6155,2.3045-4.3745,4.3135-6.862,2.4764-1.5547-1.1482-2.5527-4.6047-2.0971-6.6451,1.7592-7.8792,4.0907-15.6395,6.4268-23.3783,1.9746-6.5412,3.0905-13.1628,2.4604-19.9729-.6359-6.8728-3.3046-12.8672-8.9598-17.0718-8.7389-6.4973-20.7651-5.4964-30.6348,2.4959-3.7938,3.0721-7.3405,6.4494-10.23,9.0065.7553-3.6845,1.7739-8.6534,2.8949-14.1217-11.1323,0-21.6789-.0241-32.2246.0579-.655.0051-1.7076.7191-1.8915,1.3144-1.5824,5.1232-3.0073,10.295-4.6762,16.1423h15.4653c-3.0103,11.7918-5.747,22.9747-8.7395,34.0887-2.4112,8.9552-8.1727,15.0917-17.0457,17.7386-2.7011.8058-6.8829,1.0668-8.5779-.4474-1.6133-1.4412-1.6534-5.7087-1.0242-8.4175,3.3853-14.5746,7.197-29.0501,10.8572-43.5609,1.3721-5.44,2.7323-10.883,4.2345-16.8685-12.3157,0-24.0928-.0217-35.8693.0593-.6394.0044-1.6617.7468-1.8482,1.3492-1.5842,5.1177-3.0157,10.2827-4.6521,15.9881h15.4305Zm4.9382-46.5483c-.0023,7.053,5.7332,12.8954,12.8253,13.0642,7.0306.1674,13.2706-5.962,13.2837-13.0483.013-7.0065-5.8349-12.8955-12.891-12.9815-7.2673-.0887-13.2157,5.7461-13.2181,12.9656Z" fill="#a2a1a1"></path>
      <path d="m566.5942,142.1025c-.1982,27.3848-20.8142,47.7666-48.0719,47.5258-26.8024-.2367-46.5859-20.8618-46.4046-48.2159.1609-24.2776,18.5347-47.3686,47.4379-47.2056,29.0069.1636,47.3091,22.9873,47.0387,47.8957Zm-19.5603-3.1054c-.8483-2.6161-1.8847-7.987-4.2428-12.6959-8.8297-17.6326-33.5799-19.3691-45.0285-3.368-6.4124,8.9623-7.5173,18.9311-4.3353,29.1562,6.0271,19.3679,26.7944,25.1489,40.8,15.8053,9.2199-6.151,12.2425-15.5475,12.8066-28.8975Z" fill="#a2a1a1"></path>
      <path d="m599.5426,96.1792v14.3473c1.5702-1.8725,2.4602-2.9053,3.3197-3.9631,11.0319-13.5786,28.6636-16.5348,43.2345-7.0167,7.6033,4.9667,11.3101,12.6209,12.3918,21.3061.8462,6.7943.7742,13.7215.828,20.5919.1109,14.1435-.0437,28.2893.0965,42.4322.0286,2.8832-.7826,3.9794-3.7066,3.8386-3.804-.1833-7.6235-.0308-11.4363-.0453-4.7701-.0181-4.7865-.0279-4.7899-5.0215-.0093-13.8984.0633-27.7973-.0443-41.6949-.0322-4.1589-.127-8.3981-.9305-12.4545-2.0449-10.3237-8.4218-15.5962-18.2849-15.7086-10.0114-.1141-17.6847,5.8904-19.8763,15.7848-.5777,2.6081-.7954,5.3432-.808,8.0216-.0733,15.6201-.1574,31.2423.0548,46.8599.0485,3.5654-1.1549,4.4583-4.4018,4.2662-3.677-.2174-7.3925-.263-11.0621.0092-3.6714.2723-4.5482-1.2478-4.5229-4.6854.1371-18.5712.0642-37.1439.0643-55.7161,0-9.1016.1109-18.2052-.0584-27.3037-.0576-3.098.9793-4.0445,4.0201-3.9104,5.1283.2263,10.2739.062,15.9123.062Z" fill="#a2a1a1"></path>
      <path d="m354.327,176.339c5.2548-8.0798,12.3703-10.3072,20.8102-6.8541,6.872,2.8116,13.8805,4.9301,21.4541,3.4948,5.2721-.9992,8.6642-4.0263,9.2135-8.2114.646-4.9221-1.0794-8.2465-6.6704-10.5289-6.9135-2.8223-14.1719-4.7937-21.1171-7.5472-4.065-1.6116-8.3124-3.4304-11.6108-6.1916-13.4526-11.2618-9.8865-34.2926,6.2086-41.957,13.0946-6.2356,26.0466-4.3707,38.8706.7462,3.5789,1.428,6.8951,3.5146,10.3348,5.3007-4.542,8.342-11.5137,11.2176-19.7772,8.7199-5.6418-1.7052-11.2795-3.3768-17.3238-2.1145-4.7817.9986-8.2881,3.8356-8.7702,7.7497-.5433,4.4118,1.8566,7.3869,5.5724,9.0511,5.3597,2.4004,10.9805,4.2137,16.3659,6.562,5.8225,2.539,12.104,4.5869,17.1313,8.2828,14.8846,10.9427,11.1727,36.0636-6.0531,43.0797-16.433,6.6933-31.9974,3.5172-47.0118-4.5517-2.6737-1.4368-5.0946-3.344-7.6271-5.0305Z" fill="#a2a1a1"></path>
      <path d="m322.0053,96.1996c5.8505,0,11.6082-.0681,17.3597.0892.6918.0189,1.5713,1.1542,1.9575,1.9655.3371.7081.1161,1.6891.1162,2.5495.0027,27.2997.0059,54.5995-.0011,81.8992-.0013,4.9414-.0215,4.9526-4.8421,4.9671-4.058.0122-8.1165-.0413-12.1739.0049-1.9403.0221-2.8521-.5813-2.8468-2.7601.0704-29.1438.0637-58.2877.085-87.4316.0002-.2333.1206-.4666.3456-1.2836Z" fill="#a2a1a1"></path>
      <path d="m438.6317,96.3863h19.0341c.0714,1.504.1878,2.8188.1883,4.1338.0105,27.5199-.0749,55.0404.1022,82.5591.025,3.884-1.2373,4.8901-4.8257,4.6544-4.0371-.2652-8.1046-.0842-12.1587-.0693-1.6916.0062-2.7645-.4003-2.7587-2.4688.0823-29.359.1119-58.7182.1594-88.0773.0002-.1125.0762-.2249.259-.7319Z" fill="#a2a1a1"></path>
    </g>
  </g>
</svg>
