<?xml version="1.0" encoding="UTF-8"?>
<svg xmlns="http://www.w3.org/2000/svg" id="Layer_1" viewBox="0 0 638.9566 622.9892">
  <g id="Oh9e7z.tif">
    <g>
      <path d="m537.1157,622.9892H101.7959c-2.0767-.4256-4.1409-.9289-6.2319-1.2656C40.3926,612.838.0764,565.8514.0432,509.9978-.0355,377.7376.0087,245.4773.0547,113.217c.0016-4.6405.3276-9.3073.8774-13.9171C7.6564,42.9164,55.3734.1588,112.2091.1001c138.0884-.1425,276.1771-.1212,414.2656-.0096,50.9785.0412,95.0903,34.1145,108.4494,83.3667,1.6389,6.0424,2.7023,12.241,4.0325,18.3672v419.328c-.3414,1.0827-.8271,2.1426-1.0033,3.2515-7.2094,45.3967-32.4069,76.2405-75.36,92.3042-8.1374,3.0432-16.9673,4.235-25.4776,6.2811ZM201.4802,351.2721c3.3378,0,6.115-.0507,8.8899.0081,21.303.4512,42.5845.5799,63.4106-4.967,32.7347-8.7187,56.4361-27.482,66.762-60.7492,4.0319-12.9899,5.0333-26.3996,3.8885-39.9401-2.9332-34.6943-19.6904-59.9999-51.3344-75.0298-16.1534-7.6724-33.4062-11.4714-51.1272-11.5812-31.1057-.1928-62.217.6372-93.3272.8961-4.2216.0351-4.8518,2.0862-4.8496,5.6302.0572,89.688.0691,179.376-.0261,269.064-.0047,4.4396,1.5882,5.7218,5.8582,5.666,14.9738-.1962,29.9517-.0685,44.928-.0791,6.692-.0048,6.9215-.2414,6.9237-7.1772.008-25.126.0034-50.2519.0036-75.3779,0-1.9489,0-3.8978,0-6.363Zm315.6057-91.6098c0-6.1566-.3224-12.3351.096-18.4631.3741-5.4778-1.8666-8.0262-6.9671-9.6612-21.7606-6.9755-44.0795-7.7481-66.5675-6.2863-12.5328.8147-24.4539,4.2185-35.6502,10.1536-27.6729,14.6692-40.8013,46.7599-30.5153,75.4637,5.8099,16.2129,17.5595,27.4285,32.4168,35.06,13.8454,7.1117,28.4427,12.7454,42.533,19.4025,5.0392,2.3807,10.0895,5.2653,14.2034,8.9576,6.7844,6.0891,5.0179,16.0985-3.4513,19.5107-5.1249,2.0648-10.8808,3.2712-16.41,3.5021-23.8862.9972-46.5044-4.0557-67.6045-15.5032-4.6644-2.5306-5.6111-1.9082-5.6255,3.6643-.0346,13.4778.1808,26.9599-.1121,40.4314-.1079,4.9646,1.7805,7.5477,6.2445,9.3815,20.5344,8.4354,42.0891,10.7533,63.9632,10.5001,16.2004-.1875,32.1489-2.6014,46.9923-9.6748,21.9899-10.4789,35.0736-27.6363,37.2457-52.1016,2.2571-25.4211-8.2291-44.7386-30.4129-57.0998-11.1221-6.1975-23.0621-10.9177-34.571-16.4338-9.1043-4.3637-18.3227-8.5577-27.0826-13.5436-4.5835-2.6088-7.461-7.1618-6.19-13.0756,1.3304-6.19,5.7268-9.0762,11.479-10.3338,12.0794-2.6408,24.2905-2.0035,36.151.4965,10.9569,2.3096,21.6159,6.1535,32.2709,9.7249,5.7781,1.9367,7.541,1.0672,7.5597-5.1032.0191-6.3229.0043-12.6459.0045-18.9688Z" fill="#a2a1a1"></path>
      <path d="m201.8191,300.483v-89.7289c5.0161,0,9.909.065,14.7996-.0124,13.7947-.2184,27.583-.7451,40.9901,3.6784,19.0815,6.2957,29.369,20.057,29.3924,39.6963.0266,22.3139-9.7105,35.9908-29.7864,42.5113-16.7987,5.456-34.0314,5.3173-51.3408,4.6783-1.2943-.0478-2.5731-.5115-4.0548-.823Z" fill="#a2a1a1"></path>
    </g>
  </g>
</svg>
