<?xml version="1.0" encoding="UTF-8"?>
<svg xmlns="http://www.w3.org/2000/svg" id="Layer_1" viewBox="0 0 996.8716 225.5498">
  <g>
    <path d="m975.1181,187.5864c-.0462-22.7207.1621-45.4465-.2999-68.1588-.1321-6.4924-1.6818-13.1016-3.5566-19.3674-1.5056-5.0323-5.3567-8.1414-10.7251-10.2715-11.6792-4.6341-22.3368-3.6281-32.5694,3.2579-5.4046,3.637-8.1087,8.824-9.1052,15.3298-3.7975,24.7924-.6349,49.7111-1.6876,74.5448-.0752,1.7729-.0099,3.5518-.0099,5.4915h-21.0356V17.5864h21.2195v59.779c7.5336-3.0544,14.312-7.3038,21.5803-8.44,15.5976-2.4381,31.323-2.0667,43.7896,9.784,3.7801,3.5934,6.0561,8.7292,9.2062,13.0237,1.4144,1.9283,3.284,3.5249,4.947,5.272v13.9389c-.3326,1.6894-.9491,3.3779-.9549,5.0684-.0829,24.146-.0834,48.2923-.1037,72.4385-6.6352-.004-13.2705-.0081-19.9057-.0122-.2631-.2841-.5262-.5682-.7893-.8523Z" fill="#a2a1a1"></path>
    <path d="m995.8131,188.4509c.0203-24.1462.0207-48.2925.1037-72.4385.0058-1.6906.6223-3.379.9549-5.0684v77.6594c-.3529-.0508-.7057-.1016-1.0585-.1525Z" fill="#a2a1a1"></path>
    <path d="m431.3842,167.7107c-1.9662,2.3755-3.9325,4.751-5.8987,7.1264-.2579.2684-.5158.5368-.7737.8052-11.2473,9.1228-24.0745,13.7966-38.5731,15.0844-12.1934,1.0831-23.7924-.069-35.3696-3.9732-15.3792-5.1863-25.6664-15.4645-31.0598-30.365-2.4182-6.681-3.1668-13.9623-4.751-21.3341h22.3459c.4947,8.8901,2.7811,17.2724,8.9893,23.8291,8.2962,8.7619,18.8667,12.5965,30.8693,11.7214,7.1389-.5205,14.5094-.9516,21.2607-3.0606,14.9249-4.6623,23.1069-17.3779,16.9501-33.3253-3.3828-8.7623-11.3749-12.02-19.5744-14.2309-14.5359-3.9195-29.3029-7.0004-43.7982-11.0536-17.1499-4.7955-26.1502-18.916-27.6809-34.9654-2.5105-26.3234,17.0996-45.3077,39.6233-49.7767,14.6542-2.9076,28.817-2.2047,42.5749,3.1977,5.0246,1.9731,9.487,5.4734,14.0178,8.552,2.8239,1.9188,5.2955,4.3524,7.9252,6.555.2583.2447.5166.4893.7748.734,1.585,4.3305,3.5135,8.5715,4.6771,13.0117,1.8976,7.2408,3.296,14.6116,5.0041,22.378h-21.657c-1.2541-5.5653-1.9979-11.1644-3.802-16.4006-3.9536-11.4746-13.4756-17.0019-24.5315-18.5329-11.4048-1.5793-23.3462-1.7848-33.2654,5.9697-6.6075,5.1656-10.7446,12.0936-10.0256,20.699.7663,9.1722,6.0926,15.499,14.7397,18.5891,6.494,2.3207,13.1753,5.4012,19.8455,5.5888,6.5967.1855,11.9907,2.924,17.9661,4.3232,4.5599,1.0677,9.3877,1.0922,13.8643,2.3811,2.3429.6745,4.0327,3.3326,6.2797,4.6507,16.3913,9.6152,23.8259,25.4115,20.0441,43.8406-1.1092,5.4055-3.2877,10.593-4.9761,15.8805-.6716.7002-1.3432,1.4005-2.0148,2.1007Z" fill="#a2a1a1"></path>
    <path d="m684.4667,147.7834c-3.7919,15.2555-12.1758,26.6961-24.9152,34.6645-11.7201,7.3308-25.1198,9.9703-38.5355,7.9215-25.2591-3.8575-42.1612-18.1996-48.4676-44.2411-6.0233-24.8722-.2794-47.1874,18.5167-65.113,8.4667-8.0747,19.1471-12.4085,31.1165-12.8875,12.0032-.4803,23.764.0819,34.6479,6.1544,15.2019,8.4817,24.0945,21.4819,27.2199,38.2552,1.4013,7.5205,1.3279,15.314,1.9778,23.6814h-92.7742c-.6661,16.7878,15.1972,34.3958,33.8943,34.607,9.7917.1106,18.3941-2.5078,25.6115-8.6111,3.5758-3.0238,5.6576-7.773,8.5659-11.6288.8545-1.1328,2.1942-2.6301,3.3641-2.6776,6.4359-.2613,12.8881-.1248,19.7782-.1248Zm-90.1847-30.0755c22.9652.0006,45.9305.0012,68.8957.0018.336-.1829.6721-.3658,1.0081-.5487-.3075-.4534-.615-.9068-.9224-1.3602-.9956-9.8787-6.2264-17.312-14.1717-22.7069-8.2113-5.5756-17.3588-6.3272-27.2792-5.2577-14.7819,1.5936-26.9689,16.7206-28.3087,29.0709.2594.2669.5188.5339.7783.8008Z" fill="#a2a1a1"></path>
    <path d="m488.4417,123.9091c17.009-17.1616,33.9971-34.3441,51.0737-51.4387,1.1628-1.164,2.9722-2.3244,4.5131-2.3685,8.1425-.2328,16.2956-.1304,24.4443-.058.5977.0053,1.1894.692,1.7838,1.0619-5.9942,5.9406-11.9884,11.8812-17.9826,17.8218-9.4536,9.3031-18.9693,18.5457-28.2582,28.0095-.8642.8805-1.0199,3.6947-.2725,4.7125,8.0771,10.9994,16.4168,21.8067,24.6531,32.6904,8.2719,10.9309,16.508,21.8888,25.1828,33.3959-8.6473,0-16.5949.344-24.4744-.2345-2.0473-.1503-4.2226-2.9236-5.7596-4.9326-11.8129-15.4407-23.4796-30.9924-35.2116-46.4947-.3819-.5047-.9767-.8493-1.8906-1.6226-6.9891,6.7513-13.9464,13.4719-20.9038,20.1925-.3164,1.4831-.8887,2.9629-.9077,4.4498-.1209,9.49-.12,18.9815-.1592,28.4725h-21.0252V17.3962h21.0249v111.3033c2.0249-2.3263,3.0974-3.5583,4.1698-4.7903Z" fill="#a2a1a1"></path>
    <path d="m853.0274,107.9604c-1.3817-6.1065-5.3568-10.3935-10.026-14.1933-.3769-.2515-.7537-.5031-1.1306-.7546-17.1781-10.941-44.8132-7.0304-53.5696,16.8855-5.9856,16.3481-5.3699,32.793,5.6786,47.5476,6.0873,8.1293,14.3209,12.3995,24.3808,13.2206,8.4964.6934,16.4093-1.0702,23.5097-5.9439.3796-.2493.759-.4985,1.1384-.7478,4.6176-3.8409,8.5498-8.1622,10.0249-14.2059.9431-1.4596,1.8862-2.9191,2.8293-4.3787.825-.8621,1.6246-2.4414,2.479-2.4714,6.1241-.215,12.2594-.1149,18.4203-.1149-2.2506,23.5884-21.7024,43.789-44.8204,46.9879-16.607,2.298-31.5269-.5187-44.9269-10.2976-11.1603-8.1444-18.1267-19.6209-21.7197-32.6226-5.3251-19.2702-2.213-37.6653,8.8276-54.492,10.5741-16.1155,25.4714-24.124,44.9525-24.3633,13.3926-.1645,25.9048,1.767,36.8333,10.0586,12.4085,9.4144,18.9278,22.1129,21.4417,37.8458-6.6984,0-12.9788.1948-19.2251-.1776-1.1397-.068-2.1406-2.4491-3.2055-3.7624-.6308-1.3401-1.2616-2.6801-1.8924-4.0202Z" fill="#a2a1a1"></path>
    <path d="m711.1061,89.0636c-5.9839-.0077-11.969-.0889-17.9512.0107-2.6129.0435-4.09-.6176-4.0108-3.5848.1318-4.9404.036-9.8869.036-15.367,6.0002,0,11.7629-.1602,17.5109.0596,3.4933.1336,4.6621-1.1015,4.6022-4.5793-.151-8.7744.0285-17.5545.0755-26.3323.2679-.2819.5359-.5637.8038-.8456,6.7579,0,13.5159,0,20.6105,0v31.3779h25.1652v18.2169c-.2902.259-.5805.518-.8708.777-7.9364,0-15.8728,0-24.1674,0,0,13.1616-.0248,25.7244.0076,38.2872.0269,10.4464.0015,20.8952.2277,31.338.1465,6.7595,3.9698,10.1984,10.83,10.2649,2.3293.0226,4.6706.1479,6.9851-.0379,2.2281-.1789,4.4286-.6993,6.9945-1.1287v18.1111c-.2778.2735-.5556.5469-.8335.8204-12.7366,4.249-25.238,3.4028-35.8932-4.6878-6.4567-4.9026-9.7555-12.9895-9.8563-21.2798-.2852-23.4684-.0398-46.9432-.0034-70.4155.3732-.2261.7464-.4523,1.1196-.6784-.4607-.1088-.9214-.2177-1.3822-.3265Z" fill="#a2a1a1"></path>
    <path d="m855.863,145.3901c-.9431,1.4596-1.8862,2.9191-2.8293,4.3787-.4404-1.1142-.8808-2.2284-1.3855-3.5051,1.6984-.352,2.9566-.6128,4.2148-.8736Z" fill="#a2a1a1"></path>
    <path d="m853.0274,107.9604c.6308,1.3401,1.2616,2.6801,1.8924,4.0202-.6308-1.3401-1.2616-2.6801-1.8924-4.0202Z" fill="#a2a1a1"></path>
    <path d="m711.1061,89.0636c.4607.1088.9214.2176,1.3822.3265-.3732.2261-.7464.4523-1.1196.6784-.0875-.335-.1751-.6699-.2626-1.0049Z" fill="#a2a1a1"></path>
    <path d="m841.8708,93.0125c.3769.2515.7537.5031,1.1306.7546-.3769-.2515-.7537-.5031-1.1306-.7546Z" fill="#a2a1a1"></path>
    <path d="m843.0088,163.9746c-.3794.2492-.7589.4985-1.1384.7477.3793-.2492.7589-.4985,1.1384-.7477Z" fill="#a2a1a1"></path>
    <path d="m429.2361,43.231c-.2583-.2447-.5165-.4893-.7748-.734.2583.2447.5165.4893.7748.734Z" fill="#a2a1a1"></path>
    <path d="m712.1725,38.4249c-.2679.2819-.5359.5637-.8038.8456.2679-.2819.5358-.5637.8038-.8456Z" fill="#a2a1a1"></path>
    <path d="m757.1215,186.4515c.2779-.2735.5557-.5469.8335-.8203-.2778.2735-.5556.5469-.8335.8203Z" fill="#a2a1a1"></path>
    <path d="m975.1181,187.5864c.2631.2841.5262.5682.7893.8523-.2631-.2841-.5262-.5682-.7893-.8523Z" fill="#a2a1a1"></path>
    <path d="m757.0774,88.7967c.2902-.259.5805-.518.8708-.777-.2902.259-.5805.518-.8708.777Z" fill="#a2a1a1"></path>
    <path d="m663.1777,117.7097c.0285-.6363.0571-1.2726.0857-1.9089.3074.4534.6149.9068.9224,1.3602-.336.1829-.6721.3658-1.0081.5487Z" fill="#a2a1a1"></path>
    <path d="m593.5038,116.9071c.2594.2669.5188.5339.7783.8008-.2594-.2669-.5188-.5339-.7783-.8008Z" fill="#a2a1a1"></path>
  </g>
  <g id="D6Mxqj.tif">
    <g>
      <path d="m124.713,0h.7844c.0037.0487.0032.0973-.0014.146.183.3595.298.7812.5605,1.0681,1.3979,1.5277,2.8511,3.0047,4.2496,4.5319,1.3576,1.4825,2.6537,3.0213,4.0104,4.5047,1.8105,1.9795,3.6629,3.9207,5.4793,5.8948,1.1844,1.2872,2.3147,2.6244,3.5088,3.9021,1.8091,1.9357,3.6692,3.8237,5.4772,5.7605,1.8559,1.9881,3.668,4.017,5.5124,6.0159,2.0833,2.2577,4.1878,4.4959,6.2711,6.7537,1.7774,1.9264,3.5359,3.8702,5.3062,5.8032,1.4623,1.5967,2.9223,3.1957,4.3973,4.7807.8803.9459,1.7875,1.8668,2.6826,2.799l.1918.1941c1.2686,1.3766,2.5385,2.7519,3.8055,4.13,2.8586,3.1093,5.7207,6.2155,8.5715,9.3319,1.4465,1.5812,2.8717,3.1818,4.3065,4.7737.1912.1985.3823.397.5735.5954.5924.6512,1.1849,1.3024,1.7773,1.9536.1919.1985.3839.3969.5758.5954.5925.6512,1.1851,1.3024,1.7776,1.9536.1918.1985.3837.3969.5755.5954.9842,1.1029,1.9684,2.2057,2.9525,3.3088.0234,1.0315-.7445.7963-1.3211.7965-22.4818.0063-44.9637.0054-67.4455.0054-25.3901,0-50.7802.0023-76.1703-.0162-.5166-.0004-1.0329-.2433-1.5494-.373.0016-.0651.0044-.1301.0084-.1951.1895-.1335.379-.2669.5685-.4004.197-.2001.3941-.4001.5911-.6002.8535-.9774,1.6839-1.9762,2.5653-2.9277,2.0097-2.1694,4.0444-4.3157,6.0689-6.4713.3202-.3256.6404-.6512.9606-.9768.2182-.3092.4091-.6427.6592-.9234,1.416-1.5892,2.8462-3.1657,4.2716-4.7465.1962-.2002.3924-.4005.5886-.6007,2.1191-2.2824,4.2424-4.5609,6.3564-6.848,3.913-4.2336,7.821-8.4719,11.7301-12.7091,2.3075-2.5012,4.6121-5.005,6.9197-7.5062,3.9091-4.2371,7.8202-8.4725,11.7291-12.7098,2.2909-2.4834,4.5718-4.9762,6.8706-7.4524,3.6351-3.9158,7.2907-7.8126,10.9156-11.7379.762-.8252,1.4286-1.7386,2.1391-2.6114,0,0-.002.0037-.002.0037.0678-.0758.1357-.1515.2035-.2273-.0047-.0546-.006-.1093-.0039-.1641Z" fill="#e9e8e8"></path>
      <path d="m0,80.39c.2357-.0785.4713-.1571.7074-.2354.0915.1456.1825.291.2735.4363-.1648.0671-.3296.1343-.4944.2014-.1622-.0034-.3244-.0068-.4866-.0103,0-.1307,0-.2614,0-.3921Z" fill="#adacad"></path>
      <path d="m248.8734,81.6296c-2.1524,2.5372-4.2929,5.0848-6.4595,7.6099-7.1017,8.2767-14.2127,16.5454-21.3206,24.8168-5.7014,6.6346-11.4043,13.268-17.1054,19.9029-6.2544,7.2789-12.5061,14.5602-18.7614,21.8384-8.1707,9.5068-16.3465,19.0093-24.5153,28.5178-8.5094,9.905-17.0106,19.8171-25.5208,29.7214-2.8937,3.3678-5.804,6.7214-8.7067,10.0815.0417-.4729-.0523-1.0144.1465-1.4078,1.6763-3.3169,3.4202-6.5995,5.1169-9.9062,2.9034-5.6582,5.7863-11.327,8.6799-16.9903,3.0126-5.8964,6.0259-11.7925,9.0418-17.6872,2.9714-5.8077,5.9486-11.6124,8.9194-17.4204,3.0734-6.0086,6.1409-12.0202,9.2132-18.0293,2.8658-5.6052,5.7364-11.2079,8.6013-16.8136,3.1643-6.1914,6.3177-12.3884,9.4893-18.576,1.6665-3.2512,3.3782-6.4793,5.04-9.7328,2.6437-5.1757,5.2656-10.3625,7.8857-15.5501.1706-.3379.2468-.7234.3675-1.0861.0664.0002.1294-.0136.1896-.0406.4497.1643.8992.4714,1.3492.4721,15.6906.0248,31.3812.0186,47.0718.0315.426.0003.8518.1619,1.2777.2483Z" fill="#898989"></path>
      <path d="m123.5193,223.9554c-2.6507-3.0541-5.3123-6.0988-7.9498-9.1642-6.1988-7.2043-12.3851-14.4194-18.5786-21.6283-6.9596-8.1005-13.9217-16.1989-20.882-24.2988-.4041-.4702-.8016-.946-1.2022-1.4192-.0603-.064-.1206-.1281-.1809-.1921-9.4321-10.9698-18.8666-21.9376-28.2955-32.9102-5.4276-6.3161-10.8415-12.6439-16.2697-18.9596-8.1489-9.4812-16.3077-18.9539-24.4549-28.4365-1.403-1.633-2.7698-3.2971-4.1533-4.9469.3751-.1444.75-.4145,1.1253-.4151,15.5081-.0212,31.0162-.0138,46.5243-.0346.5928-.0008,1.1853-.2444,1.778-.3749.1268.1365.2535.2731.3802.4096.5057,1.0628.9862,2.1385,1.5214,3.1863,2.4347,4.7669,4.8933,9.5216,7.327,14.289,2.4872,4.8723,4.9475,9.7584,7.4344,14.6308,2.296,4.4982,4.6196,8.9824,6.9168,13.48,2.7149,5.3156,5.4032,10.6447,8.1237,15.9574,2.9454,5.7518,5.9337,11.4817,8.867,17.2397,2.2182,4.3543,4.2426,8.8134,6.6113,13.0828,1.742,3.1399,3.0912,6.4663,4.8963,9.5706,1.1285,1.9407,2.0136,4.0216,3.045,6.0204,2.5384,4.9194,5.1109,9.8212,7.6461,14.7422,3.016,5.8543,6.0075,11.7213,9.0096,17.5828.3835.7836.767,1.5671,1.1504,2.3506-.13.0793-.26.1587-.39.238Z" fill="#898989"></path>
      <path d="m125.496.146c.8502.0825,1.7004.165,2.5506.2475,3.0011.3285,6.0039.6431,9.0029.9895,2.5774.2977,5.1474.6602,7.7264.9412,2.2269.2426,4.4642.3889,6.6928.6169,3.4875.3568,6.971.7533,10.4576,1.1199,2.1641.2276,4.3322.4169,6.4958.649,2.7431.2943,5.4822.6254,8.2252.9203,2.131.2291,4.2674.4087,6.3978.6435,2.7084.2985,5.4114.6462,8.1202.9408,1.1301.1229,2.2744.1216,3.4012.2641.3963.0501.7597.3611,1.138.5529-.0656.3947-.1312.7893-.1968,1.184.0608.416.155.8302.177,1.2482.2068,3.9233.3988,7.8473.6003,11.7709.1249,2.4312.2563,4.8621.3896,7.2929.1936,3.533.4082,7.0648.5826,10.5987.1561,3.1627.3203,6.3265.3833,9.4917.0372,1.8678.211,3.714.3683,5.5716.323,3.8157.4362,7.6493.6358,11.4754.0012.4572.0024.9145.0035,1.3717.0586.7193.1172,1.4387.1759,2.158-.1158.0831-.2318.1662-.3477.2493.1174.1126.2348.2253.3523.3379.0057.3922.0114.7844.0172,1.1766.0632.7196.1263,1.4393.1895,2.1589l-.0142-.0042c-.0994.0517-.1988.1033-.2981.155.1006.0797.2012.1594.3018.2391.0052.3921.0104.7842.0156,1.1762.0594.7193.1189,1.4385.1783,2.1578-.1166.0828-.2333.1656-.3499.2485.1175.1131.2349.2262.3524.3393.0046.0654.0093.1309.0139.1963-.0564.5273-.1127,1.0547-.1695,1.5819-.3358-.2719-.6712-.5438-1.0066-.8156-.9842-1.1029-1.9684-2.2057-2.9526-3.3086-.1918-.1985-.3837-.3969-.5755-.5953-.5925-.6512-1.1851-1.3024-1.7776-1.9536-.1919-.1985-.3839-.3969-.5758-.5953-.5924-.6512-1.1849-1.3024-1.7773-1.9537-.1912-.1985-.3823-.3969-.5735-.5954-1.4348-1.5918-2.8601-3.1925-4.3065-4.7737-2.8509-3.1164-5.7129-6.2226-8.5715-9.3319-1.267-1.3781-2.5369-2.7534-3.8055-4.13-.0639-.0647-.1279-.1294-.1918-.1942-.8951-.9321-1.8023-1.853-2.6826-2.799-1.475-1.585-2.935-3.1839-4.3973-4.7807-1.7702-1.933-3.5287-3.8768-5.3062-5.8032-2.0832-2.2578-4.1877-4.496-6.2711-6.7537-1.8445-1.9989-3.6565-4.0278-5.5124-6.0159-1.808-1.9367-3.6681-3.8248-5.4772-5.7605-1.1942-1.2777-2.3245-2.6149-3.5088-3.9021-1.8165-1.9741-3.6688-3.9153-5.4793-5.8948-1.3567-1.4833-2.6528-3.0222-4.0104-4.5047-1.3985-1.5271-2.8517-3.0042-4.2496-4.5319-.2625-.2868-.3774-.7086-.5605-1.0681Z" fill="#c3c3c3"></path>
      <path d="m199.0659,80.2076c.0564-.5273.1127-1.0547.169-1.582.0998-.0508.1998-.1015.2997-.1523-.1005-.0801-.201-.1602-.3015-.2403-.0048-.1305-.0097-.261-.0145-.3914-.0594-.7193-.1188-1.4385-.1784-2.1578.6133-.5239.6245-1.046-.0049-1.5661-.0632-.7196-.1263-1.4393-.1896-2.1589.8182-.4542.8164-.9743-.0058-1.5687-.0042-.0651-.0095-.1302-.016-.1951-.0586-.7193-.1172-1.4387-.1759-2.158.5361-.5093.5352-.8679-.0034-1.3718-.1996-3.8262-.3128-7.6597-.6358-11.4754-.1572-1.8576-.3311-3.7038-.3683-5.5716-.063-3.1652-.2272-6.329-.3833-9.4917-.1744-3.5339-.389-7.0658-.5826-10.5987-.1332-2.4308-.2647-4.8617-.3896-7.2929-.2016-3.9236-.3935-7.8476-.6003-11.7709-.022-.418-.1163-.8323-.1771-1.2482.2543-.1289.5087-.2578.7632-.3867,2.9401,3.9113,5.8914,7.8143,8.818,11.7357,8.1593,10.9327,16.3085,21.8729,24.4613,32.8104,6.5145,8.7396,13.0285,17.4795,19.5396,26.2216.0752.101.1081.2335.1607.3516-.0069.2145-.0137.4286-.0205.6428-1.7301.0019-3.4602.005-5.1904.0055-14.9184.0038-29.8368.007-44.7552.0105-.0728-.1331-.1457-.2663-.2185-.3994Z" fill="#ababab"></path>
      <path d="m123.9093,223.7173c-.3835-.7836-.767-1.5671-1.1505-2.3506.3619.2705.823.4735,1.0637.8266.4027.5907.6648,1.2773,1.0498,2.0516.25-.3379.4042-.4995.5046-.6895.7888-1.4939,1.5753-2.9891,2.3473-4.4917,1.519-2.9569,3.0157-5.9254,4.5442-8.8773,2.4717-4.7736,4.971-9.5329,7.4404-14.3078,1.677-3.2427,3.3346-6.4957,4.9793-9.7549,1.8201-3.6069,3.6052-7.2314,5.425-10.8384,1.4965-2.9661,3.0215-5.9178,4.5337-8.8759,1.4982-2.9309,2.9966-5.8617,4.4939-8.7929,1.5567-3.0476,3.0918-6.1064,4.6755-9.1399,1.0856-2.0794,2.2717-4.1064,3.3527-6.1881,1.3643-2.6274,2.6601-5.2902,3.9989-7.931,1.6057-3.1671,3.237-6.3211,4.8361-9.4915,1.8342-3.6364,3.6351-7.2895,5.4698-10.9257,1.4974-2.9678,3.0234-5.9211,4.5364-8.881,1.4973-2.9291,2.9968-5.8571,4.4906-8.7879,1.8951-3.7182,3.7748-7.4443,5.684-11.1553.6518-1.2668,1.3727-2.4981,2.062-3.7456.2143-.1563.4286-.3126.6429-.4688l.0491-.0013.046.0172c-.1201.3634-.1963.7489-.367,1.0868-2.62,5.1877-5.242,10.3745-7.8857,15.5501-1.6619,3.2535-3.3736,6.4816-5.04,9.7328-3.1716,6.1877-6.325,12.3846-9.4893,18.576-2.8649,5.6057-5.7356,11.2084-8.6013,16.8136-3.0723,6.0091-6.1398,12.0207-9.2132,18.0293-2.9708,5.808-5.948,11.6127-8.9194,17.4204-3.0159,5.8947-6.0293,11.7908-9.0418,17.6872-2.8935,5.6634-5.7764,11.3321-8.6799,16.9903-1.6967,3.3067-3.4406,6.5893-5.1169,9.9062-.1989.3935-.1048.935-.1465,1.4078-.0535.0653-.1071.1306-.1607.1959-.6374.0372-.6442.0438-.6146.5958-.5868.8587-.7223.8562-1.3937-.0258-.1335-.1892-.2671-.3783-.4006-.5675,0,0,.004.0043.004.0043-.0029-.2012-.0059-.4024-.0088-.6035Z" fill="#acabab"></path>
      <path d="m50.98,81.175c-.5927.1305-1.1852.3741-1.778.3749-15.5081.0208-31.0162.0135-46.5243.0346-.3753.0005-.7502.2706-1.1253.4151-.3551-.4023-.7102-.8048-1.0655-1.2072.1645-.0672.3293-.1343.4941-.2015,16.4711.0001,32.9423.0003,49.4135.0005.1291-.0003.2581-.0007.3872-.001.0519.03.1041.0595.1569.0879.014.1652.0278.3309.0415.4967Z" fill="#898989"></path>
      <path d="m199.2844,80.607c14.9184-.0034,29.8368-.0067,44.7552-.0105,1.7301-.0004,3.4602-.0036,5.1904-.0055.1371-.0063.2741-.0126.4112-.0189-.256.3524-.512.7048-.7678,1.0574-.4258-.0863-.8516-.2478-1.2776-.2482-15.6906-.0129-31.3812-.0067-47.0718-.0315-.45-.0007-.8995-.3079-1.3489-.4715.0367-.09.073-.1806.1093-.2713Z" fill="#898989"></path>
      <path d="m196.2708,8.8289c-.2544.1289-.5088.2578-.7632.3867.0657-.3946.1312-.7893.1968-1.184.1888.2657.3776.5315.5663.7973Z" fill="#adacad"></path>
      <path d="m125.7084,224.9098c-.0296-.5519-.0228-.5585.6146-.5958-.2048.1986-.4097.3972-.6146.5958Z" fill="#8c8c8c"></path>
      <path d="m249.6412,80.5721c-.1371.0063-.2741.0126-.4112.0189.0068-.2141.0136-.4283.0205-.6427.1303.2077.2605.4158.3907.6238Z" fill="#adacad"></path>
      <path d="m123.9092,223.7173c.0029.2012.0059.4024.0088.6035-.1329-.1219-.2658-.2438-.3987-.3656.1299-.0793.2599-.1586.3899-.238Z" fill="#8d8c8d"></path>
      <path d="m123.914,224.3166c.1336.1892.2671.3783.4006.5675-.1335-.1892-.2671-.3783-.4006-.5675Z" fill="#8d8c8d"></path>
      <path d="m74.7258,167.2527c.0603.064.1206.1281.1809.1921-.0603-.064-.1206-.1281-.1809-.1921Z" fill="#8d8c8d"></path>
      <path d="m122.1639.391c.7838-.0011,1.5677-.0023,2.3515-.0034-.7105.8728-1.377,1.7862-2.1391,2.6114-3.6249,3.9253-7.2805,7.8221-10.9156,11.7379-2.2987,2.4762-4.5796,4.969-6.8706,7.4524-3.9089,4.2373-7.82,8.4727-11.7291,12.7098-2.3075,2.5012-4.6122,5.005-6.9197,7.5062-3.9091,4.2373-7.8171,8.4755-11.7301,12.7091-2.1139,2.2872-4.2373,4.5656-6.3565,6.848-.1962.2002-.3924.4005-.5886.6008-1.4254,1.5808-2.8556,3.1574-4.2716,4.7465-.2501.2807-.441.6143-.659.9234-.3201.3256-.6405.6512-.9608.9768-2.0245,2.1557-4.0593,4.3019-6.0689,6.4713-.8814.9515-1.7118,1.9504-2.5652,2.9279-.197.2001-.3941.4001-.5912.6-.1895.1335-.379.2669-.5686.4004-.2623-.0011-.5244-.0022-.7866-.0033.0598-.9153.1195-1.8306.1793-2.7458.0021-.196.0041-.3919.0062-.5879.0047-.7171.0093-1.4341.014-2.1512.0611-.5901.1223-1.1802.1834-1.7703.004-.652.0081-1.304.0121-1.956.0619-.6552.1237-1.3104.1856-1.9656.0621-.6537.1242-1.3074.1863-1.9611.0055-.392.0109-.784.0163-1.1761.1005-.0503.2009-.1006.3013-.1509-.1-.0812-.2-.1623-.3-.2434l-.0129.0045.193-2.3555.0028-.7837c.0681-.9804.1362-1.9608.2043-2.9413,1.2022-.5463.4334-1.2819.1891-1.9672.131-2.7936.2578-5.5874.3944-8.3807.1254-2.5652.2536-5.1303.3946-7.6946.1873-3.4072.3974-6.8131.5805-10.2204.2076-3.8632.3961-7.7274.5932-11.5911.1292-2.5319.2592-5.0638.3889-7.5957.0002-.3922.0005-.7844.0007-1.1765-.0006-.7234-.0013-1.4468-.0019-2.1701,0,0-.0079.0097-.0079.0096.0279-.0141.081-.0335.0794-.0415-.0101-.0484-.0326-.0942-.051-.1408.2706-.1312.5315-.3488.8133-.3804,3.6116-.4052,7.2251-.7936,10.8402-1.1658,2.8109-.2894,5.6268-.5312,8.4369-.828,4.0355-.4263,8.0664-.8958,12.1018-1.3231,2.8103-.2976,5.6265-.5397,8.437-.8351,2.7117-.2849,5.4186-.6156,8.1295-.9087,2.1286-.2301,4.2611-.4236,6.3899-.6515,2.7756-.2972,5.5491-.6136,8.3238-.9192,1.3881-.1529,2.7769-.3002,4.1653-.4501Z" fill="#c3c3c3"></path>
      <path d="m199.2845,80.607c-.0363.0906-.0727.1813-.1093.2713-.0605.0264-.1235.0402-.1899.04-.0005-.0007-.0465-.0179-.0465-.0179,0,0-.0491.0013-.0495.0019-.4131-.1002-.8258-.2893-1.2385-.2894-48.4824-.0133-96.9648-.0127-145.4472-.0092-.4218,0-.8435.0492-1.2653.0754-.0525-.029-.1047-.0585-.1566-.0885.0042-.131.0083-.262.0124-.3929l.0182.0136c.2534-.1355.5069-.2709.7603-.4064.5165.1298,1.0328.3727,1.5494.373,25.3901.0185,50.7802.0162,76.1703.0162,22.4818,0,44.9637.001,67.4455-.0054.5765-.0002,1.3444.235,1.3211-.7965.3355.2717.6708.5435,1.0066.8154.0733.1332.1461.2663.2189.3995Z" fill="#e8e8e8"></path>
      <path d="m61.3748,69.21c.3203-.3256.6407-.6512.9608-.9768-.3204.3256-.6406.6512-.9608.9768Z" fill="#c5c4c4"></path>
      <path d="m51.5726,79.8047c-.2534.1355-.5069.2709-.7605.4063-.0061-.2017-.0119-.4032-.0178-.6047.2622.0011.5243.0021.7866.0033-.0038.065-.0066.13-.0083.1951Z" fill="#c5c4c4"></path>
      <path d="m189.8267,70.39c.1912.1984.3824.3969.5735.5954-.1912-.1984-.3824-.3969-.5735-.5954Z" fill="#c4c4c4"></path>
      <path d="m192.1775,72.939c.1919.1984.3839.3968.5758.5953-.192-.1984-.3839-.3968-.5758-.5953Z" fill="#c4c4c4"></path>
      <path d="m194.5309,75.488c.1919.1984.3837.3968.5755.5953-.1919-.1984-.3837-.3969-.5755-.5953Z" fill="#c4c4c4"></path>
      <path d="m52.1495,79.2092c.1971-.2.3942-.3999.5912-.6-.1971.1999-.3942.3999-.5912.6Z" fill="#e8e8e8"></path>
      <path d="m67.2662,62.5632c.1962-.2003.3923-.4005.5886-.6008-.1961.2003-.3924.4005-.5886.6008Z" fill="#c4c4c4"></path>
      <path d="m172.9513,51.9603c.0639.0647.1279.1295.1918.1942-.064-.0647-.1279-.1295-.1918-.1942Z" fill="#e7e7e7"></path>
      <path d="m124.5134.3913c.0678-.0755.1356-.1511.2035-.2269-.0678.0754-.1356.1512-.2035.2269Z" fill="#c5c4c4"></path>
      <path d="m50.7943,79.6063c.0059.2015.0117.403.0178.6047.0002.0001-.018-.0135-.018-.0135-.1332.1313-.2664.2626-.3996.394-16.4712-.0002-32.9423-.0004-49.4135-.0005-.091-.1453-.182-.2907-.2735-.4363,1.944-2.6563,3.8729-5.3241,5.8359-7.9664,5.9903-8.0631,11.9889-16.1201,17.9933-24.1726,7.6028-10.196,15.215-20.3851,22.8221-30.5779,2.1847-2.9273,4.3639-5.8588,6.5523-8.7834.1716-.2294.3951-.42.5945-.6287.0006.7234.0013,1.4467.002,2.1701-.5992.3917-.5982.7839-.0008,1.1765-.1296,2.5319-.2596,5.0638-.3889,7.5957-.1972,3.8637-.3856,7.7279-.5932,11.5911-.1831,3.4074-.3933,6.8133-.5805,10.2204-.1409,2.5644-.2692,5.1294-.3946,7.6946-.1366,2.7933-.2633,5.5871-.3943,8.3808-.063.6557-.1261,1.3114-.1891,1.9671-.0681.9804-.1362,1.9608-.2043,2.9413-.124.1144-.3677.2601-.3476.3369.0437.1675.2216.3.3447.4468-.0643.7852-.1287,1.5703-.1929,2.3555-.6968.5783-.6981.9751-.0048,1.566-.0621.6537-.1242,1.3074-.1863,1.9611-.7559.5386-.8045,1.0541-.1856,1.9656-.004.652-.0081,1.304-.0121,1.956-.7434.5194-.4023,1.1512-.1834,1.7703-.0047.7171-.0093,1.4341-.014,2.1512-.1183.1125-.2366.225-.3549.3375.1162.0835.2324.1669.3486.2504-.0598.9153-.1195,1.8306-.1793,2.7458Z" fill="#ababab"></path>
      <path d="m54.5261,7.8529c.0184.0467.0409.0925.051.1408.0017.008-.0515.0273-.0794.0415-.0089-.0636.0006-.1244.0284-.1823Z" fill="#adacad"></path>
      <path d="m198.2467,81.3704c-.6893,1.2475-1.4102,2.4788-2.062,3.7456-1.9092,3.7109-3.7888,7.4371-5.684,11.1553-1.4939,2.9308-2.9934,5.8588-4.4906,8.7879-1.513,2.9599-3.0389,5.9133-4.5364,8.881-1.8347,3.6361-3.6355,7.2893-5.4698,10.9257-1.5992,3.1703-3.2305,6.3244-4.8361,9.4915-1.3388,2.6407-2.6345,5.3036-3.9989,7.931-1.081,2.0817-2.267,4.1088-3.3527,6.1881-1.5838,3.0334-3.1188,6.0923-4.6755,9.1399-1.4974,2.9313-2.9958,5.8621-4.4939,8.7929-1.5122,2.9582-3.0372,5.9098-4.5337,8.8759-1.8198,3.607-3.6049,7.2316-5.425,10.8384-1.6447,3.2593-3.3023,6.5122-4.9793,9.7549-2.4694,4.7748-4.9687,9.5341-7.4404,14.3078-1.5285,2.952-3.0252,5.9204-4.5442,8.8773-.772,1.5027-1.5585,2.9978-2.3473,4.4917-.1003.19-.2546.3516-.5046.6895-.385-.7743-.647-1.4609-1.0498-2.0516-.2408-.3531-.7018-.5561-1.0637-.8266-3.002-5.8615-5.9934-11.7285-9.0095-17.5828-2.5352-4.921-5.1077-9.8228-7.6461-14.7422-1.0314-1.9988-1.9165-4.0797-3.045-6.0204-1.8051-3.1043-3.1543-6.4307-4.8963-9.5706-2.3687-4.2694-4.3931-8.7285-6.6113-13.0828-2.9333-5.758-5.9216-11.4878-8.867-17.2397-2.7205-5.3127-5.4088-10.6418-8.1237-15.9574-2.2972-4.4976-4.6208-8.9818-6.9168-13.48-2.487-4.8725-4.9472-9.7585-7.4344-14.6308-2.4337-4.7674-4.8923-9.5221-7.327-14.289-.5352-1.0478-1.0157-2.1234-1.5212-3.1864.4346-.0715.869-.2052,1.3035-.2052,48.5276-.0094,97.0552-.0088,145.5827-.0088Z" fill="#ababab"></path>
      <path d="m198.2467,81.3704c-48.5276,0-97.0552-.0006-145.5827.0088-.4344,0-.8689.1338-1.3035.2052-.1269-.1364-.2536-.2729-.3804-.4095-.0138-.1657-.0275-.3315-.0415-.4967.4215-.0256.8433-.0748,1.265-.0748,48.4824-.0035,96.9648-.004,145.4472.0092.4127.0001.8254.1892,1.2385.2894-.2139.1557-.4282.3119-.6425.4682Z" fill="#ababab"></path>
      <path d="m198.84,70.3901c.8221.5944.824,1.1145.0058,1.5687-.0056-.3922-.0113-.7844-.017-1.1766.0038-.1307.0075-.2614.0112-.392Z" fill="#acacac"></path>
      <path d="m199.0354,74.1176c.6294.5201.6182,1.0422.0049,1.5661-.0051-.3921-.0103-.7842-.0154-1.1763-.0012-.1313-.0024-.2627-.0037-.3941l.0142.0042Z" fill="#acacac"></path>
      <path d="m198.6447,66.6652c.5387.5039.5395.8625.0034,1.3718-.0011-.4573-.0023-.9145-.0034-1.3718Z" fill="#acacac"></path>
      <path d="m198.84,70.3901c-.0037.1307-.0074.2614-.0112.392-.1175-.1126-.2349-.2253-.3523-.3379.1159-.0831.2319-.1662.3477-.2493.0063.065.0117.13.0158.1952Z" fill="#c3c3c3"></path>
      <path d="m199.2187,77.8416c.0048.1305.0097.261.0145.3914-.0041.0654-.008.1309-.012.1963-.1175-.1131-.2349-.2262-.3524-.3393.1166-.0828.2333-.1656.3499-.2485Z" fill="#c3c3c3"></path>
      <path d="m199.0212,74.1135c.0013.1314.0025.2627.0037.3941-.1007-.0797-.2013-.1594-.3019-.2391.0994-.0517.1988-.1033.2981-.155Z" fill="#c3c3c3"></path>
      <path d="m199.2211,78.4293c.004-.0654.0079-.1309.012-.1963.1006.0801.2011.1602.3016.2403-.0999.0508-.1999.1015-.2997.1523-.0045-.0654-.0092-.1309-.0138-.1963Z" fill="#adacad"></path>
      <path d="m50.3944,80.5915c.1332-.1313.2664-.2627.3996-.394-.0041.131-.0082.262-.0124.393-.1291.0004-.2582.0007-.3872.001Z" fill="#adacad"></path>
      <path d="m51.1892,70.3952c-.6189-.9115-.5702-1.427.1856-1.9656-.0619.6552-.1237,1.3104-.1856,1.9656Z" fill="#acacac"></path>
      <path d="m51.9661,58.822c.0631-.6557.1261-1.3114.1891-1.9671.2443.6852,1.0131,1.4209-.1891,1.9671Z" fill="#c2c2c2"></path>
      <path d="m50.9938,74.1214c-.2189-.6191-.56-1.2509.1834-1.7703-.0612.5901-.1223,1.1802-.1834,1.7703Z" fill="#acacac"></path>
      <path d="m51.5612,66.4685c-.6933-.5909-.692-.9877.0048-1.566,0,0,.0129-.0044.0128-.0044-.0005.1314-.0009.2629-.0012.3943-.0054.392-.0109.784-.0163,1.1761Z" fill="#acacac"></path>
      <path d="m54.5067,11.3723c-.5974-.3926-.5984-.7848.0008-1.1765-.0003.3922-.0006.7844-.0008,1.1765Z" fill="#adacad"></path>
      <path d="m51.7589,62.5471c-.1231-.1468-.301-.2793-.3447-.4468-.02-.0769.2236-.2225.3476-.3369-.001.2613-.0019.5225-.0029.7837Z" fill="#acacac"></path>
      <path d="m50.9736,76.8605c-.1162-.0835-.2324-.1669-.3486-.2504.1183-.1125.2366-.225.3549-.3375-.0021.196-.0042.3919-.0062.5879Z" fill="#acacac"></path>
      <path d="m51.5775,65.2924c.0004-.1314.0008-.2629.0012-.3943.1001.0811.2001.1623.3001.2434-.1004.0503-.2009.1006-.3013.1509Z" fill="#c2c2c2"></path>
    </g>
  </g>
</svg>
