<?xml version="1.0" encoding="UTF-8"?>
<svg xmlns="http://www.w3.org/2000/svg" id="Layer_1" viewBox="0 0 954.2686 241.456">
  <path d="m729.6761,150.0473c.6764.2539,1.3529.5079,2.0293.7619-.6764-.2539-1.3529-.5079-2.0293-.7619Z" fill="#121110"></path>
  <path d="m796.6625,145.7642c.6689-.5942,1.3379-1.1885,2.0067-1.7826-.6688.5942-1.3376,1.1885-2.0067,1.7826Z" fill="#201e1e"></path>
  <path d="m843.6377,125.5834c.5507-.528,1.1015-1.056,1.6522-1.584-.5507.528-1.1015,1.056-1.6522,1.584Z" fill="#1a1919"></path>
  <path d="m684.6992,146.0466c.2281-.4035.4562-.807.6842-1.2105.1187.4035.2375.8069.3563,1.2104-.2254.231-.4509.4621-.6763.6931-.1215-.231-.2429-.4621-.3642-.693Z" fill="#121110"></path>
  <path d="m939.8124,141.984c.2691.3295.5382.6591.8073.9886-.2691-.3295-.5382-.6591-.8073-.9886Z" fill="#262525"></path>
  <g>
    <path d="m929.4648,175.2836c.1655.2465.3311.4929.4967.7394.5818.6348,1.1636,1.2695,1.7454,1.9043.286.3964.572.7928.8581,1.1892.5818.6006,1.1636,1.2012,1.7455,1.8018.2931.3701.5862.7403.8793,1.1104.3447.4908.6893.9816,1.034,1.4724,1.2744,1.4107,2.5488,2.8214,3.8231,4.2321.344.4572.688.9144,1.032,1.3715.5283.5155,1.0566,1.0311,1.5849,1.5466.181.2455.362.491.5431.7365.568.6517,1.136,1.3034,1.7041,1.9551.3449.4562.6899.9125,1.0348,1.3687.5271.5161,1.0543,1.0323,1.5814,1.5484.177.2447.354.4895.531.7342.5723.6527,1.1446,1.3053,1.7169,1.9579.4589.4668.9179.9335,1.3769,1.4003.2924.3687.5847.7375.8771,1.1063.4602.503.9204,1.0061,1.3806,1.5091.1674.3573.3348.7147.5022,1.072.1189.2574.2378.5148.3567.7723-.7426.0331-1.4851.0941-2.2277.095-16.4826.0216-32.9651.0365-49.4477.0526-.3556-.1793-.7113-.3586-1.0669-.5379-3.8853-4.7355-7.8063-9.4424-11.6467-14.2139-4.5519-5.6554-9.0125-11.384-13.5529-17.0488-4.595-5.7328-9.2317-11.4323-13.8647-17.1346-2.97-3.6556-5.9663-7.29-9.1658-11.1964v60.1182h-40.4186c-.2534-.0533-.5068-.1066-.7602-.16-.0352-.362-.0703-.724-.1055-1.086.0188-.7458.054-1.4916.054-2.2374.0026-65.12.0024-130.2399.0024-195.3599v-2.3246c.4018-.0286.6928-.0674.9838-.0675,12.902-.0031,25.8039-.0033,38.7058.0005.3716.0001.7432.0483,1.1148.0741.1037.1145.2074.229.311.3434.0201.6836.0576,1.3672.0577,2.0507.0028,37.6785.0026,75.3571.0026,113.0356v2.5863c3.3795-4.0436,6.4872-7.7619,9.5947-11.4802.2923-.3954.5846-.7908.877-1.1863.3397-.352.6795-.7039,1.0192-1.0559.2842-.3947.5685-.7895.8527-1.1842,3.5753-4.2286,7.1506-8.4572,10.7259-12.6858.1703-.245.3406-.49.5108-.7349.4617-.4886.9233-.9773,1.3849-1.4659.2828-.3947.5657-.7894.8486-1.184,3.5739-4.2287,7.1479-8.4573,10.7218-12.686.1716-.2453.3431-.4906.5147-.7359.4587-.4883.9173-.9766,1.376-1.4648.2858-.3949.5717-.7897.8574-1.1846,2.1282-2.4779,4.2221-4.9866,6.4117-7.4091.4726-.5229,1.2888-1.0429,1.9486-1.0453,16.0649-.0569,32.1301-.0438,48.1952-.0386.2385,0,.4769.0593.9937.1277-6.6628,7.874-13.2033,15.6034-19.7436,23.3328-.1273.0986-.2546.1972-.3819.2957-.5118.6436-1.0237,1.2871-1.5355,1.9307-.3596.3977-.7194.7954-1.079,1.1931-.3926.4731-.7852.9463-1.1779,1.4194-.3585.3652-.7169.7304-1.0754,1.0955-5.6069,6.4374-11.2147,12.874-16.8137,19.3182-.1117.1287-.1203.3468-.1771.5232-.1959.2553-.3917.5106-.5876.7659,0,0,.004-.0047.004-.0047-.1274.0983-.2549.1967-.3823.295l-1.8644,2.3191c-.1269.0986-.2538.1971-.3807.2957-.2865.3965-.573.7931-.8596,1.1896-.585.6445-1.17,1.2891-1.755,1.9336-.1642.2275-.3286.4549-.4928.6824-.5872.6038-1.1745,1.2076-1.7617,1.8114l-.4859.8046c-.3359.3753-.6719.7507-1.0079,1.126-.413.4967-.8259.9933-1.2389,1.49-.3353.3755-.6706.751-1.006,1.1265-.4135.4965-.8269.9931-1.2403,1.4896-.4566.5081-.9132,1.0162-1.3699,1.5244-.261.3328-.5221.6656-.8374,1.0675,1.2634,1.4046,2.5398,2.8237,3.8163,4.2429.4602.4676.9204.9352,1.3807,1.4028.2884.4005.5768.8009.8652,1.2013.3005.3495.6011.6989.9015,1.0484.5725.6474,1.1451,1.2949,1.7176,1.9423.465.4622.9299.9244,1.3948,1.3865.1653.2441.3304.4881.4957.7322.5813.637,1.1625,1.274,1.7439,1.9109l.8561,1.1968c.5826.598,1.1654,1.196,1.748,1.794.1716.2357.3434.4713.5151.707.5806.6362,1.1613,1.2724,1.7421,1.9085.2863.3993.5726.7987.8589,1.198.5815.5976,1.1631,1.1952,1.7445,1.7928.2935.3705.5869.7411.8804,1.1116.4595.5012.919,1.0025,1.3785,1.5037.4112.5328.8223,1.0656,1.2335,1.5984.1849.216.3698.432.5547.6479.5658.6187,1.1317,1.2374,1.6976,1.8561.4583.5013.9166,1.0026,1.3748,1.504.2881.4002.5762.8003.8644,1.2005.3032.3497.6064.6994.9096,1.049.5698.6475,1.1396,1.2951,1.7094,1.9426.4661.4623.9321.9246,1.3982,1.3869.1634.2455.3269.491.4902.7366.5823.6354,1.1646,1.2707,1.7469,1.9061.4096.5258.8193,1.0516,1.2289,1.5773.4636.4617.9272.9235,1.3908,1.3852Z" fill="#a2a1a1"></path>
    <path d="m503.4103,102.8469c2.5271-5.9855,6.0217-11.3734,10.1467-16.37,5.1477-6.2352,11.2719-11.3232,18.2181-15.4428.1405-.0841.2811-.1682.4216-.2522,1.3756-.6644,2.7513-1.3288,4.1269-1.9932.1206-.0802.2412-.1603.3618-.2405,5.4174-2.2283,10.9726-3.9319,16.821-4.6196,5.5516-.6528,11.0503-.4129,16.5899.3226,7.1078.9438,13.7209,3.2036,19.86,6.8074,3.6839,2.1626,7.1108,4.7096,9.787,8.1389.3587.4597,1.1118.6122,1.6823.907.0916.586.1832,1.1719.2747,1.7578.267-.0366.5341-.0732.8011-.1097l-.3563-2.1373v-13.2801h41.1349c.0319.5802.0929,1.172.0929,1.7638.0044,44.9546.0044,89.9093.0004,134.8639,0,.495-.0552.9899-.0847,1.4849-.1136.0967-.2272.1935-.3409.2903h-40.7044v-16.2062c-3.0277,4.5043-6.5006,7.7876-10.5779,10.4466-5.0626,3.3015-10.5968,5.6042-16.3682,7.2151-2.9534.8243-6.1314.845-9.2077,1.2306-1.0293.129-2.0556.353-3.0874.3807-6.6354.1782-13.1373-.7791-19.4465-2.7617-3.2368-1.0171-6.3728-2.4022-9.4642-3.8174-2.4647-1.1283-5.0318-2.2535-7.1278-3.9157-3.4566-2.741-6.7058-5.781-9.8006-8.9319-7.8729-8.0152-13.2006-17.5837-16.7374-28.1942-1.756-5.268-3.0489-10.6462-3.3472-16.1925-.2824-5.2514-.7147-10.5511-.3107-15.7701.6171-7.9719,2.6543-15.7075,5.5697-23.1823.044-.1129.0395-.2448.0576-.3679.3384-.6081.6767-1.2163,1.015-1.8244Zm77.0683-.0631c-3.6442-.5069-7.0548-2.3509-10.9493-1.534-2.5378.5323-5.1843.5477-7.7821.7947-.369.2308-.738.4617-1.107.6925-3.2656.4987-6.1332,1.9202-8.807,3.7906-.3218.1655-.6436.331-.9654.4966-.228.213-.4559.426-.6839.639-.1283.085-.2565.1699-.3847.2549-.545.4098-1.0901.8195-1.6351,1.2293-.2216.1594-.4432.3189-.6648.4783-.0343.1182-.0299.2905-.1087.3467-3.8517,2.7469-6.1734,6.6545-8.2145,10.7763-.0797.1167-.1594.2335-.2392.3502-2.6076,5.7638-3.8647,11.6974-3.0646,18.0969.9125,7.2995,3.6884,13.678,8.5278,19.1546,5.58,6.3147,12.6489,10.2375,20.95,11.2188,5.1585.6098,10.4165.2796,15.6018-1.2793,8.5372-2.5667,15.4559-7.1592,20.5109-14.4914.4217-.6117.6894-1.466.692-2.2088.037-10.7719.0164-21.544.0096-32.3161-.3151-.5105-.6302-1.021-.9452-1.5315-.5524-.843-.975-1.8189-1.6805-2.5048-2.4379-2.3703-4.9744-4.6396-7.4732-6.9474-.1328-.0825-.2655-.165-.3983-.2475-.2418-.1691-.4835-.3382-.7252-.5072-.1388-.0847-.2775-.1694-.4162-.2542-2.3536-1.1417-4.7072-2.2833-7.0608-3.425-.1245-.1032-.2491-.2063-.3736-.3095-.6224-.1458-1.2449-.2916-1.8673-.4375-.2485-.1085-.4969-.2169-.7454-.3254Z" fill="#a2a1a1"></path>
    <path d="m773.1597,113.1012l-2.3037,1.2764c-.3546.1974-.7092.3949-1.0639.5923-.6089.3075-1.2178.615-1.8267.9225-.5137.3154-1.0273.6308-1.541.9462-.6095.3072-1.219.6144-1.8285.9216-.641.1237-1.2821.2473-1.9231.3709-.2265-.3015-.4531-.6031-.6796-.9046-.3538-.4522-.7077-.9044-1.0617-1.3566-2.0895-3.7132-5.149-6.4546-8.7202-8.6832-.1356-.0874-.2711-.1747-.4066-.2621-.3589-.1705-.7178-.3409-1.0767-.5114l-1.1576-.6233c-1.2679-.7467-2.5358-1.4933-3.8037-2.24-.0322-.2211-.0645-.4422-.0967-.6632-.3033.121-.6065.242-.9098.363-4.2432-1.4644-8.5975-2.1583-13.0952-1.9735-.4942.0203-.9948-.434-1.5086-.4772-.4131-.0348-.8505.2194-1.2772.3454,0,0-.0555.0737-.0555.0737-2.0982.5274-4.2024,1.0323-6.2935,1.5869-4.8238,1.2793-8.8255,4.015-12.5961,7.1512-.1472.1075-.2943.215-.4415.3225-4.3066,4.1256-7.2518,9.0938-9.3025,14.6655-1.7722,4.8149-1.8394,9.8228-1.3581,14.7525.3008,3.0809,1.7651,6.0486,2.7078,9.0669,2.1156,6.7736,6.9707,11.3493,12.4295,15.4358.2345.1756.5507.2423.8289.3598.2242.2034.4484.4069.6726.6103.1522-.336.3044-.6721.4566-1.0081.1222.0052.2445.0103.3666.0155v1.6712c.3479-.324.5082-.4734.6686-.6228.2065.3556.3373.9319.6312,1.0324,2.863.9797,5.7109,2.0614,8.6494,2.7432,2.2118.5132,4.5455.5668,6.8321.6806,5.639.2805,10.7858-1.3215,15.8062-3.8429,6.0672-3.0471,10.4775-7.6876,14.1768-13.4211,1.3341.7449,2.6725,1.4962,4.0146,2.2409,9.0115,5.0005,18.0045,10.0352,27.0548,14.9647,1.5478.8431,1.7473,1.5451.7563,2.9574-1.735,2.4729-3.3269,5.046-4.9788,7.5771-.2149.25-.4298.5-.6447.7501,0,0-.001.0014-.001.0014-.1232.0996-.2466.1991-.3699.2987-.3164.3962-.6329.7923-.9492,1.1885-.1854.2459-.3706.4918-.556.7377-2.4012,2.3799-4.8024,4.7599-7.2036,7.1398-.2339.1384-.468.2769-.7019.4153-.0188.1378-.0958.2234-.231.2569-.1538.1255-.3077.2509-.4615.3763-6.3639,5.2055-13.4675,9.1097-21.1552,11.982-.2826.1056-.6062.1019-.9106.1492-1.0153-.2562-1.8266-.0521-2.2623.9999-.8485.2445-1.687.5345-2.5476.724-1.8609.4097-3.7236.8258-5.6028,1.1342-3.2186.5281-6.4385,1.0972-9.6809,1.4157-2.2757.2235-4.5914.1112-6.8847.0264-.4784-.0177-.9368-.5731-1.3453-.5449-1.3147,0-2.6382.0966-3.9422-.0216-2.2217-.2014-4.4312-.5377-6.6458-.8173-.3513-.2124-.7026-.4247-1.054-.6371-1.5583-.3064-3.1392-.529-4.6682-.9429-1.4913-.4036-2.9295-1.0027-4.3909-1.516-.2469-.1166-.4938-.2331-.7407-.3497-.3788-.1319-.7576-.2639-1.1364-.3958-.1273-.1038-.2547-.2076-.3821-.3114l-1.4819-.4454c-.4917-.2528-.9835-.5056-1.4752-.7585-1.0086-.5087-2.0172-1.0174-3.0257-1.5261-.1214-.0883-.2428-.1766-.3642-.2648-.1234-.0409-.2468-.0819-.3702-.1228-.5844-.2105-1.1688-.421-1.7532-.6315-.2938-.2858-.5876-.5717-.8814-.8575-.1412-.0846-.2823-.1691-.4235-.2537-2.5976-1.7831-5.1951-3.5662-7.7926-5.3493-.3847-.3324-.7694-.6647-1.1541-.9971-.4733-.4664-.9467-.9327-1.42-1.399-.3849-.2867-.7697-.5734-1.1546-.8601-1.3829-1.3574-2.7658-2.7148-4.1486-4.0722-.4584-.5106-.9169-1.0212-1.3753-1.5319-3.8921-4.9275-7.7338-9.9161-10.2599-15.7022-2.4489-5.6091-4.5977-11.349-6.653-16.47,0-1.7296.0625-2.9285-.0115-4.119-.2397-3.8569-.5588-7.7089-.7932-11.566-.3365-5.5403.2768-11.0744,1.667-16.3593,1.3862-5.2697,3.502-10.41,5.8284-15.3582,5.1117-10.8719,12.8827-19.6106,22.6046-26.641.4461-.3226.8593-.6905,1.2879-1.0373.1448-.0969.2896-.1939.4343-.2908.2298-.1524.4597-.3048.6896-.4571.144-.0936.288-.1872.432-.2809.2334-.1559.4668-.3118.7002-.4678.1398-.0859.2796-.1718.4194-.2576.4823-.2878.9646-.5756,1.447-.8634.1414-.0864.2827-.1729.424-.2593,2.98-1.4561,5.8763-3.131,8.963-4.308,3.2059-1.2224,6.5693-2.0723,9.913-2.8826,3.1583-.7653,6.3803-1.2689,9.5755-1.8813.1806-.0346.374.003.5585-.0183,1.6285-.1877,3.2684-.0628,4.9142-.2161,3.1229-.291,6.3294.3683,9.5051.5714,2.9389.1879,5.8869.2474,8.8212.4829.5292.0425.9645.8182,1.5246.9894,1.8915.5783,3.8196,1.0368,5.7337,1.5412.106.012.2123.0165.319.0135.1389.025.2778.0501.4167.0751.2574.2163.5147.4326.772.6489,1.3088.4946,2.6525.9137,3.9207,1.4962,6.8584,3.1504,13.3763,6.871,18.9401,12.0319,2.7074,2.5113,5.2023,5.251,7.7935,7.8873.2297.3342.4594.6684.6891,1.0026.1498.1226.2997.2451.4496.3677,1.7401,2.5398,3.4803,5.0795,5.2204,7.6193.1982.212.3965.424.5947.6361-.1852.6222-.3704,1.2444-.5556,1.8666-.5126.3152-1.025.6304-1.5376.9457-.6099.3077-1.2199.6153-1.8298.923-.5126.3152-1.0251.6305-1.5377.9457-.6099.3077-1.2199.6153-1.8298.923-.5126.3153-1.0251.6305-1.5377.9457-.6097.3078-1.2193.6156-1.829.9234-.5128.3151-1.0257.6302-1.5385.9453-.6089.3081-1.2178.6163-1.8267.9244-.5136.3154-1.0271.6309-1.5407.9463-.6099.3071-1.2198.6141-1.8297.9211-.5127.3159-1.0252.6317-1.5379.9476-.7678.4255-1.5357.8509-2.3035,1.2764-.3546.1975-.7092.3949-1.0639.5923Z" fill="#a2a1a1"></path>
    <path d="m385.1516,205.8697c-2.8857.4011-5.8039.6467-8.6492,1.2405-4.0215.8392-8.066.6964-12.1165.7056-1.1829.0027-2.3659-.0373-3.5489-.0578-.2532-.0951-.5064-.1901-.7596-.2852-2.334-.1469-4.6692-.2781-7.0009-.4542-.4628-.035-1.115-.0982-1.3289-.3982-.5658-.7933-.9273-.4788-1.7202-.2847-1.2646.3097-2.6955-.0453-4.0547-.139-.7818-.0539-1.561-.1464-2.3414-.2216-.0444-.151-.0889-.302-.1333-.4531-.0853.1511-.1707.3021-.2561.4531-6.8171-2.1164-13.6766-4.1086-20.4321-6.4058-2.9976-1.0194-5.782-2.662-8.6713-4.0042-.5003-.2324-1.0416-.3771-1.5639-.5623-.6966-.3407-1.3932-.6814-2.0898-1.0222-1.6353-1.302-3.2705-2.6041-4.9601-3.9493.7505-2.0008,1.5239-4.0626,2.2973-6.1245l1.0325-2.1582c.0028-.158.0055-.316.0083-.4741.3724-.7102.7448-1.4203,1.1173-2.1305,1.2699-3.0222,2.5398-6.0444,3.8098-9.0666.3435-.6176.6871-1.2351,1.0307-1.8527.1474-.5069.2948-1.0138.4422-1.5206.0999-.1218.1998-.2437.2997-.3655.275-.7474.55-1.4949.8251-2.2423.227-.3652.4539-.7304.6809-1.0956.4355.0335.9128-.0349,1.2975.1225.7126.2916,1.371.7151,2.052,1.0837.2601.2075.5203.4151.7804.6226,3.9811,2.0258,7.9623,4.0517,11.9434,6.0775.2534.219.5068.4379.7602.6569,1.9518.6263,3.8798,1.3445,5.8614,1.8554,2.4334.6274,4.9082,1.0976,7.3712,1.606,2.359.4869,4.7078,1.1154,7.094,1.3562,3.0636.3091,6.1595.3085,9.2425.4101,1.3665.0451,2.7356.0136,4.1035.0169.3772-.141.7543-.2819,1.1315-.4229,3.0352.1816,5.8695-.5805,8.6007-1.8271l.3571-.2368.4093-.1321c.1133-.0819.2266-.1639.3399-.2459.133-.0434.266-.0869.399-.1303.118-.0929.2359-.1859.3538-.2788.231-.1571.4621-.3142.6931-.4714.1432-.0928.2864-.1856.4295-.2785.6582-.6537,1.3164-1.3073,1.9746-1.961.3525-.4597.7051-.9195,1.0576-1.3793.3601-1.7833.7203-3.5667,1.0804-5.35-.1646-.7509-.3291-1.5018-.4937-2.2528-1.6769-2.6388-4.0135-4.418-6.9952-5.3567-.1228-.0798-.2457-.1597-.3685-.2395-1.743-.3959-3.4861-.7917-5.2291-1.1875.0591-.9702-.3454-1.1563-1.1445-.6752-3.0134-.8184-6.0268-1.6367-9.0402-2.4551-.2119.0344-.4239.0687-.6358.1031-.9142-.2916-1.8284-.5832-2.7427-.8748-.2065.0373-.4131.0745-.6196.1117-2.7634-.6507-5.5394-1.2534-8.2864-1.9671-2.2655-.5886-4.4904-1.3322-6.7483-1.9524-.5148-.1414-1.1113.0246-1.6346-.1-.5933-.1412-1.1465-.4501-1.7172-.686-.2353-.166-.4706-.332-.7059-.498-1.6346-.6386-3.2693-1.2771-4.9039-1.9157-.1172-.0808-.2343-.1615-.3515-.2423-.1315-.0373-.263-.0746-.3946-.112-.1225-.0858-.2449-.1716-.3674-.2573-1.1241-.5325-2.2482-1.0649-3.3723-1.5974-.1179-.0921-.2359-.1842-.3538-.2763-.1335-.0447-.2669-.0895-.4004-.1342-.1315-.0743-.263-.1486-.3945-.223l-1.475-.8905c-.1379-.081-.2758-.1621-.4137-.2431-.235-.162-.4699-.3239-.7049-.4859l-.3137-.2603c-3.883-2.895-7.5896-5.9648-10.1242-10.1957-.4486-.7158-.8972-1.4317-1.3458-2.1475-.0562-.2598-.1123-.5195-.1685-.7793-.4502-.8609-.9004-1.7218-1.3506-2.5827-.6783-2.1429-1.3567-4.2858-2.035-6.4287-.1001-.0967-.2001-.1935-.3002-.2902-.3709-8.8775-.1477-17.6716,3.9668-25.8537,2.0262-4.0293,4.5997-7.6808,7.7067-10.9747,5.7048-6.0481,12.6436-10.2712,20.4053-12.8921,4.9249-1.663,10.2086-2.2632,15.3277-3.357,1.2757-.2726,2.5364-.6144,3.8062-.9151.2092-.0495.4353-.0931.6445-.0671,1.5602.1942,3.1125.5004,4.6779.5937,3.2157.1916,6.4372.3013,9.6578.392,5.4994.1549,10.7214,1.7489,16.0239,2.9635,9.0288,2.0682,17.2574,5.8253,24.729,11.2849.9151.6687,1.3191,1.1517.8157,2.4017-3.4291,8.5164-6.77,17.0684-10.0834,25.6306-.593,1.5324-1.6252,1.3019-2.475.641-5.5045-4.2808-11.889-6.754-18.3768-8.9792-3.1614-1.0843-6.3935-2.0829-9.6742-2.6735-5.747-1.0347-11.5751-1.8933-17.4227-1.2859-3.6909.3834-7.1898,1.6627-10.0382,4.2718-4.157,3.8078-4.1517,9.5018.5335,12.5733,3.4657,2.272,7.3587,4.0944,11.3,5.3964,6.3989,2.1139,13.0161,3.5586,19.4963,5.4399,3.8892,1.1291,7.6905,2.559,11.5377,3.8344.7534.2498,1.5362.4112,2.3054.6133.5897,1.081.9234,1.1726,1.5049.4132,1.2203.7767,2.3742,1.693,3.6713,2.3077,9.5811,4.5405,17.0582,11.1251,20.7739,21.3226.8887,2.4389,1.7694,4.9736,2.021,7.5264.282,2.8601.0769,5.8241-.3352,8.6826-.5529,3.8349-1.1005,7.7543-2.3725,11.3851-2.839,8.1039-8.1963,14.4076-15.2348,19.3003-.298.2071-.5403.4943-.8085.7442-.2061.1976-.4123.3953-.6184.5929-1.0726.553-2.147,1.1029-3.2177,1.6597-4.3404,2.2568-8.7162,4.421-13.6148,5.2271-.2503.2224-.5007.4448-.7511.6673Z" fill="#a2a1a1"></path>
    <path d="m439.0387,3.8197c3.3028-.0372,6.6055-.1021,9.9083-.1066,10.2235-.014,20.4471-.0051,30.8057-.0051v201.1182c-.3039.0293-.5902.0809-.8764.081-12.9708.0041-25.9416.0042-38.9124.0001-.3089,0-.6177-.0538-.9266-.0825-.1007-.1233-.2015-.2467-.3022-.37-.0192-.5588-.0552-1.1175-.0552-1.6763-.0025-65.6572-.0026-131.3145,0-196.9717,0-.5588.036-1.1175.0552-1.6763.1012-.1036.2024-.2072.3036-.3108Z" fill="#a2a1a1"></path>
    <g>
      <path d="m148.68,241.456c-.3654-.1605-.7236-.3407-1.0974-.4783-3.082-1.1341-6.5897-1.6819-9.1396-3.5412-2.9226-2.1312-5.2759-5.2315-7.3672-8.2615-2.5622-3.7121-3.7607-8.0178-3.7449-12.6084.0282-8.1518.0028-16.3037.0044-24.4555,0-.4215.043-.843.0719-1.3736.6335-.0304,1.1768-.0789,1.7201-.0792,7.7252-.0047,15.4505-.024,23.1756.0026,11.3278.0389,20.4466,6.5499,24.4343,17.1415,1.553,4.1248,1.6379,8.3819.8883,12.4629-2.1161,11.5205-9.3748,18.2994-20.7114,20.868l-1.499.3228c-2.245,0-4.4901,0-6.7351,0Z" fill="#878787"></path>
      <path d="m216.7591,178.0095c-19.3213-.0148-38.6426-.0272-57.9639-.047-3.0629-.0031-6.1512.2021-9.1828-.1161-4.9166-.5161-9.3202-2.5137-13.112-5.696-7.1686-6.0162-9.847-13.8674-9.0964-23.0027.1701-2.0703.595-4.1502,1.1841-6.1427.2875-.9724,1.315-1.7005,1.8499-2.6298,4.9945-8.6773,12.6257-13.0279,22.5007-13.096,21.0039-.1449,42.0096-.0961,63.0142-.0223,9.4058.033,16.6339,4.1501,22.05,11.8795,1.5232,2.1738,1.4925,4.7193,2.7581,6.7995,1.4445,2.3742.5988,4.8272.7321,7.2557.3205,5.8356-1.9967,10.7832-5.3378,15.2592-3.5956,4.8169-8.5977,7.6313-14.433,9.0152-1.2766.3028-2.5125.7766-3.7672,1.1717-.3987-.2094-.7973-.4188-1.196-.6282Z" fill="#878787"></path>
    </g>
    <g>
      <path d="m.0642,91.5891c.001-1.7459.0019-3.4919.0028-5.2378,1.19-9.1347,5.9932-15.8241,14.0248-20.1415,3.484-1.8728,7.3856-2.5877,11.3511-2.592,21.2639-.0227,42.5294-.1646,63.791.0576,10.4369.1091,18.3195,5.1464,22.7364,14.6238,4.3717,9.3804,3.2097,18.5154-3.2277,26.6608-4.6698,5.9087-10.9808,9.3186-18.5753,9.3616-22.5096.1275-45.0217.114-67.5305-.0914-5.2267-.0477-9.8031-2.5828-13.7821-5.9514C3.6927,103.9086.8637,98.2721.0642,91.5891Z" fill="#a2a1a1"></path>
      <path d="m114.3548,50.6967c-.5623.0553-.8624.1104-1.1625.1106-9.2721.0082-18.5488.1719-27.8133-.0908-2.5341-.0718-5.2704-1.0067-7.4995-2.2733-5.7396-3.2611-10.0689-7.8434-12.7224-14.1154-1.9639-4.6418-1.9591-9.343-1.0066-13.8851C67.1373,6.2003,79.4519-.4652,90.3878.0252c11.2753.5057,21.629,9.588,23.5909,20.4687.6024,3.3407.2437,6.5811.3256,9.8578.168,6.7129.0504,13.4329.0504,20.3451Z" fill="#a2a1a1"></path>
    </g>
    <g>
      <path d="m175.8422,99.0664c-3.3326,7.4091-8.826,12.3456-16.7176,14.4939-.6915.1882-1.4715.0522-2.2103.0667-.3228.2298-.6457.4596-.9685.6894-2.2584-.0079-4.5185.0305-6.7742-.0522-.6727-.0247-1.3329-.3891-1.9988-.5978-.2405-.1485-.481-.297-.7215-.4454-1.6148-.4583-3.332-.7017-4.8262-1.4128-5.8652-2.7916-10.1678-7.2289-12.4002-13.3119-1.0706-2.9172-1.7864-6.1438-1.8087-9.2364-.1535-21.3005-.076-42.6027-.0925-63.9043-.0012-1.5258-.3574-3.0757-.1757-4.5691.1301-1.0691.9825-2.0293,1.3427-3.0954,1.8992-5.6223,5.4137-9.9169,10.146-13.4954,3.7966-2.871,8.0085-3.5161,12.4972-3.832,6.0086-.4228,11.4978.8752,16.3691,4.4471,6.9362,5.0859,10.5154,12.0568,10.5754,20.5571.1473,20.8646.1005,41.7312-.0087,62.5963-.0142,2.7114-.8623,5.4174-1.3059,8.1289-.0596.3642-.0117.7459-.0135,1.1195-.5705.4871-1.5273.7853-.9081,1.8539Z" fill="#b5b5b6"></path>
      <path d="m239.9825,80.3583c1.9008,5.5232,1.8959,11.0706.2193,16.6416-.4685,1.5569-.7539,3.197-1.4384,4.651-.4657.9893-1.5535,1.666-2.2367,2.5769-4.2849,5.7133-10.1601,8.7607-17.0155,10.119-1.1395.2258-2.3616.0374-3.5455.0375-7.7295.0005-15.459.0003-23.1885.0003-.6059,0-1.2119,0-1.9606,0,0-1.1907-.0028-2.1756.0004-3.1605.0266-8.0313-.0248-16.0638.1077-24.0933.1004-6.0875,2.6978-11.2229,6.8394-15.5358,5.1006-5.3117,11.3039-7.8737,18.8208-7.7342,9.1142.1692,15.9286,4.1121,20.9257,11.4787.9537,1.4059,1.4728,3.1058,2.1925,4.67.0931.1163.1862.2326.2793.3489Z" fill="#b5b5b6"></path>
    </g>
    <path d="m934.3105,180.9182c-.5819-.6006-1.1637-1.2012-1.7455-1.8018,1.6202-.4031,1.8163.5703,1.7455,1.8018Z" fill="#201e1e"></path>
    <path d="m900.0127,124.7845c.5872-.6038,1.1745-1.2076,1.7617-1.8114.2401,1.4065-.1946,2.1584-1.7617,1.8114Z" fill="#a2a1a1"></path>
    <path d="m902.2673,122.2907c.585-.6445,1.17-1.2891,1.755-1.9336.3288,1.472-.3433,2.0377-1.755,1.9336Z" fill="#a2a1a1"></path>
    <path d="m602.1451,79.6153l.3563,2.1373c-.267.0366-.5341.0732-.8011.1097l-.2747-1.7578c.2398-.1631.4797-.3262.7196-.4892Z" fill="#a2a1a1"></path>
    <path d="m313.1235,127.0831c.4486.7158.8972,1.4317,1.3458,2.1475-1.4481-.0909-1.516-1.0448-1.3458-2.1475Z" fill="#1a1919"></path>
    <path d="m311.6044,123.7211c.4502.8609.9004,1.7218,1.3506,2.5827-.7459-.7066-1.8801-1.2106-1.3506-2.5827Z" fill="#1a1919"></path>
    <path d="m309.9798,179.1443c-.3724.7102-.7448,1.4203-1.1173,2.1305.3724-.7102.7448-1.4204,1.1173-2.1305Z" fill="#201e1e"></path>
    <path d="m308.8542,181.7489l-1.0325,2.1582c-.09-.9266-.5924-2.0501,1.0325-2.1582Z" fill="#201e1e"></path>
    <path d="m383.9071,161.8419c.1646.7509.3291,1.5018.4937,2.2528-.1646-.7509-.3291-1.5018-.4937-2.2528Z" fill="#a2a1a1"></path>
    <path d="m907.7463,150.2714c-.5826-.598-1.1654-1.196-1.748-1.794.5826.598,1.1654,1.196,1.748,1.794Z" fill="#a2a1a1"></path>
    <path d="m924.6079,169.6784c-.4661-.4623-.9321-.9246-1.3982-1.3869,1.0429-.1179,1.7252.1269,1.3982,1.3869Z" fill="#a2a1a1"></path>
    <path d="m929.4648,175.2836l-1.3908-1.3852c1.0165-.092,1.7601.0892,1.3908,1.3852Z" fill="#201e1e"></path>
    <path d="m912.6069,155.8777c-.5814-.5976-1.163-1.1952-1.7445-1.7928,1.2716-.0723,1.5412.8281,1.7445,1.7928Z" fill="#a2a1a1"></path>
    <path d="m902.9026,144.6374c-.465-.4622-.9299-.9244-1.3948-1.3865,1.0266-.1015,1.7532.0981,1.3948,1.3865Z" fill="#a2a1a1"></path>
    <path d="m926.845,172.3211c-.5823-.6354-1.1646-1.2707-1.7469-1.9061.5823.6354,1.1646,1.2707,1.7469,1.9061Z" fill="#201e1e"></path>
    <path d="m905.1422,147.2806c-.5814-.637-1.1626-1.274-1.7439-1.9109.5814.637,1.1626,1.2739,1.7439,1.9109Z" fill="#a2a1a1"></path>
    <path d="m931.7069,177.9273c-.5818-.6348-1.1636-1.2695-1.7454-1.9043.5818.6348,1.1636,1.2695,1.7454,1.9043Z" fill="#201e1e"></path>
    <path d="m910.0035,152.8869c-.5807-.6362-1.1614-1.2723-1.7421-1.9085.5807.6361,1.1613,1.2723,1.7421,1.9085Z" fill="#a2a1a1"></path>
    <path d="m310.4845,193.981c.6966.3407,1.3932.6815,2.0898,1.0222-.6966-.3407-1.3932-.6814-2.0898-1.0222Z" fill="#201e1e"></path>
    <path d="m314.8202,168.225c-.3436.6176-.6871,1.2351-1.0307,1.8527-.1364-.884.1678-1.5234,1.0307-1.8527Z" fill="#201e1e"></path>
    <path d="m893.664,132.3456c.4567-.5081.9133-1.0162,1.3699-1.5243-.0928.8343-.2734,1.5899-1.3699,1.5243Z" fill="#a2a1a1"></path>
    <path d="m762.6729,118.1312c.641-.1236,1.2821-.2473,1.9231-.3709-.3924.3562-.7598.7522-1.2019,1.0292-.0736.0461-.4726-.4258-.7212-.6583Z" fill="#a2a1a1"></path>
    <path d="m945.9458,194.7116c-.3449-.4563-.6899-.9125-1.0348-1.3688,1.1468-.1486,1.3566.4096,1.0348,1.3688Z" fill="#201e1e"></path>
    <path d="m941.0789,189.1047c-.344-.4572-.688-.9143-1.032-1.3715,1.1465-.1453,1.3476.4192,1.032,1.3715Z" fill="#201e1e"></path>
    <path d="m919.7264,164.0993c-.4582-.5013-.9165-1.0026-1.3748-1.504.4583.5013.9166,1.0026,1.3748,1.504Z" fill="#a2a1a1"></path>
    <path d="m503.4103,102.8469c-.3384.6081-.6767,1.2163-1.015,1.8244-.4557-1.0489.2569-1.4493,1.015-1.8244Z" fill="#a2a1a1"></path>
    <path d="m936.2238,183.5011c-.3447-.4908-.6893-.9816-1.034-1.4724.8919.1074,1.5343.3897,1.034,1.4724Z" fill="#201e1e"></path>
    <path d="m914.8658,158.493c-.4595-.5013-.919-1.0025-1.3785-1.5037.4595.5013.919,1.0025,1.3785,1.5037Z" fill="#a2a1a1"></path>
    <path d="m678.6162,183.1474c.4584.5106.9169,1.0212,1.3753,1.5319-.4584-.5106-.9169-1.0212-1.3753-1.5319Z" fill="#1a1919"></path>
    <path d="m898.0235,139.0589l-1.3807-1.4028,1.3807,1.4028Z" fill="#a2a1a1"></path>
    <path d="m783.2621,107.4931c.5128-.3151,1.0257-.6302,1.5385-.9454-.5128.3151-1.0257.6302-1.5385.9454Z" fill="#a2a1a1"></path>
    <path d="m779.8946,109.3638c.5136-.3154,1.0271-.6309,1.5407-.9463-.5136.3154-1.0271.6309-1.5407.9463Z" fill="#a2a1a1"></path>
    <path d="m786.6296,105.6244c.5126-.3152,1.0251-.6305,1.5377-.9457-.5126.3153-1.0251.6305-1.5377.9457Z" fill="#a2a1a1"></path>
    <path d="m789.9971,103.7557c.5126-.3153,1.0251-.6305,1.5377-.9457-.5126.3153-1.0251.6305-1.5377.9457Z" fill="#a2a1a1"></path>
    <path d="m776.5271,111.2325c.5127-.3159,1.0252-.6317,1.5379-.9476-.5127.3159-1.0252.6317-1.5379.9476Z" fill="#a2a1a1"></path>
    <path d="m793.3647,101.887c.5126-.3152,1.025-.6304,1.5376-.9456-.5126.3152-1.025.6305-1.5376.9456Z" fill="#a2a1a1"></path>
    <path d="m766.4244,116.8387c.5137-.3154,1.0273-.6308,1.541-.9462-.5137.3154-1.0273.6308-1.541.9462Z" fill="#a2a1a1"></path>
    <path d="m383.3204,169.4447c-.3525.4598-.7051.9195-1.0576,1.3793.3525-.4598.7051-.9195,1.0576-1.3793Z" fill="#1a1919"></path>
    <path d="m395.6383,126.4537c-.5814.7594-.9151.6678-1.5049-.4132.5016.1377,1.0033.2755,1.5049.4132Z" fill="#a2a1a1"></path>
    <path d="m715.9274,164.1615c-.1522.336-.3044.6721-.4566,1.0081-.2242-.2034-.4484-.4068-.6726-.6103.3764-.1326.7528-.2652,1.1292-.3978Z" fill="#a2a1a1"></path>
    <path d="m760.9317,115.8701c.3539.4522.7078.9044,1.0616,1.3566-.3539-.4522-.7078-.9044-1.0616-1.3566Z" fill="#a2a1a1"></path>
    <path d="m925.0836,95.6551c.3585-.3652.7169-.7304,1.0754-1.0956.1871.8995-.1019,1.3327-1.0754,1.0956Z" fill="#a2a1a1"></path>
    <path d="m927.3369,93.1402c.3596-.3977.7194-.7954,1.079-1.1931.2287.9286-.2397,1.2282-1.079,1.1931Z" fill="#a2a1a1"></path>
    <path d="m921.5003,166.3489c-.3032-.3497-.6064-.6993-.9096-1.049.3032.3497.6064.6993.9096,1.049Z" fill="#a2a1a1"></path>
    <path d="m892.5278,74.753c-.2857.3949-.5716.7897-.8574,1.1846.2858-.3949.5717-.7897.8574-1.1846Z" fill="#a2a1a1"></path>
    <path d="m899.7902,141.3086c-.3005-.3495-.601-.6989-.9015-1.0484.3005.3495.6011.6989.9015,1.0484Z" fill="#a2a1a1"></path>
    <path d="m898.519,126.7152c.336-.3753.672-.7507,1.0079-1.1261-.336.3753-.6719.7507-1.0079,1.1261Z" fill="#a2a1a1"></path>
    <path d="m368.7057,176.3858c-.3772.141-.7543.2819-1.1315.4229.3772-.141.7543-.2819,1.1315-.4229Z" fill="#121110"></path>
    <path d="m863.7158,109.1351c-.2923.3954-.5846.7908-.877,1.1862.2923-.3954.5846-.7908.877-1.1862Z" fill="#a2a1a1"></path>
    <path d="m865.5877,106.895c-.2842.3947-.5685.7895-.8527,1.1842.2842-.3947.5685-.7895.8527-1.1842Z" fill="#a2a1a1"></path>
    <path d="m370.1699,154.383c.7991-.4812,1.2036-.295,1.1445.6752-.3815-.2251-.763-.4501-1.1445-.6752Z" fill="#151414"></path>
    <path d="m684.1401,188.7514c.3849.2867.7697.5734,1.1546.8601-.3849-.2867-.7697-.5734-1.1546-.8601Z" fill="#201e1e"></path>
    <path d="m896.2741,129.3316c.3353-.3755.6706-.751,1.006-1.1265-.3353.3755-.6706.751-1.006,1.1265Z" fill="#a2a1a1"></path>
    <path d="m879.0578,90.8243c-.2828.3947-.5657.7894-.8486,1.184.2828-.3947.5657-.7894.8486-1.184Z" fill="#a2a1a1"></path>
    <path d="m686.7148,191.0105c.3847.3323.7694.6647,1.1541.997-.3847-.3324-.7694-.6647-1.1541-.997Z" fill="#201e1e"></path>
    <path d="m716.9627,165.2253c-.1604.1494-.3208.2988-.6686.6228v-1.6712c.2229.3495.4458.6989.6686,1.0483Z" fill="#a2a1a1"></path>
    <g>
      <path d="m63.6524,216.7627c.0105-20.7887.1949-41.5796-.0567-62.3652-.0967-7.9891,2.4141-14.6775,7.9124-20.1863,3.2709-3.277,7.3985-5.4189,12.0398-6.3447.1813-.0362.4352.0518.5499-.044,2.4915-2.0812,5.185-.1568,7.7312-.1794,2.7158-.0241,5.5997,1.0137,8.1228,2.1985,2.4865,1.1676,4.8704,2.8347,6.8471,4.7486,4.9374,4.7805,7.4838,10.6683,7.4791,17.6612-.0144,21.3446.1123,42.6893.0868,64.0339-.0092,7.6432-2.9421,12.6155-5.9868,16.188-4.0722,4.778-9.2885,7.5823-15.4464,8.6892-.3752.0978-.7504.1957-1.1256.2935h-9.3543c-1.3697-.7964-2.6972-1.6785-4.1163-2.3744-6.1901-3.0355-10.2855-7.8434-13.2443-14.0573-1.0464-2.1975-.612-4.7184-2.1934-6.6165-.0788-.0946.0488-.3609.0803-.5473.2248-.3659.4497-.7319.6745-1.0978Z" fill="#c6c6c5"></path>
      <path d="m50.8973,127.3977c.0313.4951.0814.9203.0816,1.3455.0042,7.9026.1468,15.8091-.0674,23.7059-.0884,3.2596-.4321,6.6924-1.5718,9.7017-1.7605,4.6482-5.0445,8.4082-9.203,11.2464-6.3298,4.3202-13.2617,5.6653-20.7308,3.8177-7.5482-1.8672-13.097-6.3799-16.5384-13.2733-4.5923-9.1988-3.5597-18.1051,2.3142-26.3803,4.9063-6.912,11.9293-10.1174,20.2922-10.2741,8.158-.1529,16.321-.0444,24.4818-.0419.2966,0,.5931.0937.9415.1524Z" fill="#c6c6c5"></path>
      <path d="m63.6524,216.7627c-.2248.3659-.4497.7319-.6745,1.0978.2248-.3659.4497-.7318.6745-1.0978Z" fill="#c6c6c5"></path>
    </g>
    <path d="m789.1932,90.4517c-.2297-.3342-.4595-.6684-.6891-1.0026.3628.3028.7255.6057,1.0883.9088-.133.0314-.2661.0626-.3992.0938Z" fill="#a2a1a1"></path>
    <path d="m216.7591,178.0095c.3987.2094.7973.4188,1.196.6282-.3987-.2094-.7973-.4188-1.196-.6282Z" fill="#fcebce"></path>
    <path d="m317.068,163.0009c-.227.3652-.4539.7304-.6809,1.0956.227-.3652.4539-.7304.6809-1.0956Z" fill="#201e1e"></path>
    <path d="m773.1597,113.1012l1.0639-.5923-1.0639.5923Z" fill="#a2a1a1"></path>
    <path d="m769.7921,114.9699l1.0639-.5923-1.0639.5923Z" fill="#a2a1a1"></path>
    <path d="m749.5705,105.7902l1.1576.6233-1.1576-.6233Z" fill="#a2a1a1"></path>
    <path d="m779.4791,190.6891c.2339-.1384.468-.2769.7019-.4153.0192.1529.0385.3059.0577.4588-.2532-.0145-.5064-.029-.7597-.0435Z" fill="#201e1e"></path>
    <path d="m360.4939,152.031c.212-.0344.4239-.0687.6358-.1031-.0531.1399-.1062.2798-.1593.4197-.1589-.1055-.3177-.211-.4766-.3166Z" fill="#151414"></path>
    <path d="m357.1315,151.2679c.2065-.0372.4131-.0745.6196-.1117-.047.1423-.094.2846-.141.4269-.1595-.105-.3191-.2101-.4786-.3151Z" fill="#151414"></path>
    <path d="m338.0392,146.0643c.2353.166.4706.332.7059.498-.2353-.166-.4706-.332-.7059-.498Z" fill="#1a1919"></path>
    <path d="m916.654,160.7393c-.1849-.216-.3698-.432-.5547-.6479.1849.216.3698.4319.5547.6479Z" fill="#a2a1a1"></path>
    <path d="m757.8498,68.0336c-.2573-.2163-.5147-.4326-.772-.6489.2574.2163.5147.4326.772.6489Z" fill="#a2a1a1"></path>
    <path d="m321.1979,164.8297c-.2601-.2075-.5203-.415-.7804-.6226.2601.2075.5203.4151.7804.6226Z" fill="#201e1e"></path>
    <path d="m890.2943,77.4024c-.1716.2453-.3431.4906-.5147.7359.1716-.2453.3431-.4907.5147-.7359Z" fill="#a2a1a1"></path>
    <path d="m907.5052,116.2624c.1959-.2553.3917-.5106.5876-.7659-.1959.2553-.3917.5106-.5876.7659Z" fill="#a2a1a1"></path>
    <path d="m333.9016,171.5641c-.2534-.219-.5068-.438-.7602-.6569.2534.219.5068.4379.7602.6569Z" fill="#201e1e"></path>
    <path d="m943.2069,191.3877c-.1811-.2455-.3621-.491-.5431-.7365.1811.2455.362.491.5431.7365Z" fill="#201e1e"></path>
    <path d="m876.8244,93.4743c-.1703.245-.3406.49-.5108.7349.1703-.245.3406-.4899.5108-.7349Z" fill="#a2a1a1"></path>
    <path d="m795.4579,99.0747l-.5947-.6361.5947.6361Z" fill="#a2a1a1"></path>
    <path d="m787.3847,183.134c.1854-.2459.3706-.4918.556-.7377-.1854.2459-.3706.4918-.556.7377Z" fill="#1a1919"></path>
    <path d="m789.2608,180.9077c.2149-.25.4298-.5.6447-.7501-.2149.25-.4298.5-.6447.7501Z" fill="#1a1919"></path>
    <path d="m778.7866,191.3223c.1538-.1254.3077-.2509.4615-.3764-.1538.1254-.3077.2509-.4615.3764Z" fill="#201e1e"></path>
    <path d="m788.8899,181.2078c.1233-.0996.2466-.1991.3699-.2987-.1232.0995-.2466.1991-.3699.2987Z" fill="#1a1919"></path>
    <path d="m751.8048,106.9248c.1355.0874.2711.1747.4066.2621-.1356-.0874-.2711-.1747-.4066-.2621Z" fill="#a2a1a1"></path>
    <path d="m377.6635,174.3219c-.119.079-.2381.1579-.3571.2369.119-.0789.2381-.1579.3571-.2369Z" fill="#1a1919"></path>
    <path d="m378.4127,173.944c-.1133.0819-.2266.1639-.3399.2459.1133-.0819.2266-.1639.3399-.2459Z" fill="#1a1919"></path>
    <path d="m379.1655,173.5349c-.1179.0929-.2359.1859-.3538.2788.118-.0929.2359-.1858.3538-.2788Z" fill="#1a1919"></path>
    <path d="m380.2881,172.785c-.1432.0928-.2863.1856-.4296.2784.1432-.0928.2864-.1856.4296-.2784Z" fill="#1a1919"></path>
    <path d="m929.9514,90.0164c.1273-.0986.2546-.1972.3819-.2957-.1273.0986-.2546.1972-.3819.2957Z" fill="#a2a1a1"></path>
    <path d="m907.1269,116.5527c.1274-.0983.2549-.1967.3823-.295-.1274.0983-.2549.1967-.3823.295Z" fill="#a2a1a1"></path>
    <path d="m309.2691,117.0022c.1001.0967.2002.1935.3002.2902-.1001-.0967-.2002-.1935-.3002-.2902Z" fill="#1a1919"></path>
    <path d="m904.8819,119.1674c.1269-.0985.2538-.1971.3807-.2956-.1269.0986-.2538.1971-.3807.2956Z" fill="#a2a1a1"></path>
    <path d="m315.5621,166.3388c-.0999.1218-.1998.2437-.2997.3655.0999-.1218.1998-.2437.2997-.3655Z" fill="#201e1e"></path>
    <path d="m692.7209,75.6036c-.1447.0969-.2895.1939-.4343.2908.1447-.0969.2895-.1939.4343-.2908Z" fill="#a2a1a1"></path>
    <path d="m693.8424,74.8656c-.144.0936-.2879.1872-.432.2809.144-.0936.2879-.1872.432-.2809Z" fill="#a2a1a1"></path>
    <path d="m694.962,74.1402c-.1398.0859-.2796.1718-.4194.2576.1398-.0859.2796-.1717.4194-.2576Z" fill="#a2a1a1"></path>
    <path d="m696.8331,73.0176c-.1414.0864-.2827.1728-.424.2593.1413-.0864.2827-.1728.424-.2593Z" fill="#a2a1a1"></path>
    <path d="m532.1966,70.7819c-.1405.0841-.281.1681-.4216.2522.1405-.0841.281-.1682.4216-.2522Z" fill="#a2a1a1"></path>
    <path d="m325.6121,140.1725c.1379.081.2758.1621.4137.2431-.1379-.081-.2758-.1621-.4137-.2431Z" fill="#1a1919"></path>
    <path d="m536.6854,68.5482c-.1206.0802-.2412.1603-.3618.2405.1206-.0802.2412-.1603.3618-.2405Z" fill="#a2a1a1"></path>
    <path d="m327.5008,141.3061c.1315.0743.263.1487.3945.223-.1315-.0743-.263-.1487-.3945-.223Z" fill="#1a1919"></path>
    <path d="m328.2957,141.6633c.1179.0921.2359.1842.3538.2763-.1179-.0921-.2359-.1842-.3538-.2763Z" fill="#1a1919"></path>
    <path d="m332.0218,143.5369c.1225.0858.2449.1716.3674.2574-.1225-.0858-.2449-.1716-.3674-.2574Z" fill="#1a1919"></path>
    <path d="m756.661,67.3096c-.1067.003-.213-.0015-.319-.0135.079-.0844.1579-.1688.237-.2531.0274.0889.0547.1778.082.2666Z" fill="#a2a1a1"></path>
    <path d="m853.1838,4.1289l-.311-.3434.311.3434Z" fill="#121110"></path>
    <path d="m332.7838,143.9063c.1172.0808.2343.1615.3515.2423-.1172-.0808-.2343-.1615-.3515-.2423Z" fill="#1a1919"></path>
    <path d="m439.0387,3.8197c-.1012.1036-.2024.2072-.3036.3108.1012-.1036.2024-.2072.3036-.3108Z" fill="#262525"></path>
    <path d="m376.5434,156.2457c.1228.0798.2456.1597.3685.2395-.1228-.0799-.2457-.1597-.3685-.2395Z" fill="#a2a1a1"></path>
    <path d="m324.5935,139.4263l.3137.2603c-.1046-.0868-.2091-.1735-.3137-.2603Z" fill="#1a1919"></path>
    <path d="m602.1644,119.2738c-.3151-.5105-.6302-1.021-.9452-1.5315.3151.5105.6302,1.021.9452,1.5315Z" fill="#a2a1a1"></path>
    <path d="m561.7472,102.0445l-1.107.6925,1.107-.6925Z" fill="#a2a1a1"></path>
    <path d="m551.8332,106.5277c-.3218.1655-.6436.331-.9654.4966.3218-.1655.6436-.331.9654-.4966Z" fill="#a2a1a1"></path>
    <path d="m581.224,103.1092l-.7454-.3254.7454.3254Z" fill="#a2a1a1"></path>
    <path d="m548.1641,109.1476c-.2216.1594-.4432.3189-.6648.4783.2216-.1594.4432-.3189.6648-.4783Z" fill="#a2a1a1"></path>
    <path d="m550.1839,107.6633c-.1283.085-.2565.1699-.3847.2549.1282-.085.2564-.1699.3847-.2549Z" fill="#a2a1a1"></path>
    <path d="m590.9419,107.5354c-.1387-.0847-.2774-.1694-.4161-.2541.1387.0847.2774.1694.4161.2541Z" fill="#a2a1a1"></path>
    <path d="m592.0654,108.2901c-.1328-.0825-.2655-.165-.3983-.2475.1328.0825.2655.165.3983.2475Z" fill="#a2a1a1"></path>
    <path d="m583.4649,103.8562c-.1245-.1032-.2491-.2063-.3736-.3095.1245.1032.2491.2063.3736.3095Z" fill="#a2a1a1"></path>
    <path d="m539.1762,120.7489c-.0797.1167-.1594.2335-.2392.3502.0797-.1167.1595-.2335.2392-.3502Z" fill="#a2a1a1"></path>
  </g>
</svg>
