<?xml version="1.0" encoding="UTF-8"?>
<svg xmlns="http://www.w3.org/2000/svg" id="Layer_1" viewBox="0 0 659.6964 643.1861">
  <g id="_5NZhRe.tif">
    <g>
      <path d="m550.844,643.1861H108.8376c-.7904-.1794-1.5767-.3799-2.3719-.5348-8.1523-1.588-16.5312-2.4383-24.4226-4.8709C33.3394,622.7672.1275,578.0476.0763,527.1132-.0616,390.047.0287,252.9805.0329,115.9142c.0003-9.5676,1.2218-18.9928,3.6425-28.2401C17.2639,35.7644,63.0861.0919,116.7466.0552,258.8551-.042,400.9637.0156,543.0723.0307c19.3993.0021,37.7974,4.3676,54.7921,13.7422,32.2736,17.8027,52.2442,44.8317,59.6503,81.0006.9502,4.6403,1.4651,9.3698,2.1817,14.0579v425.5046c-.174.7003-.3872,1.3934-.5158,2.102-1.3357,7.3543-1.8813,14.9558-4.1101,22.0273-14.0862,44.6948-44.122,72.2935-89.9334,82.5037-4.6958,1.0466-9.5255,1.4925-14.2931,2.217Zm-49.8765-412.2834c-1.4156,0-2.4131.0742-3.3968-.011-17.2966-1.498-34.4476-.4746-51.2304,3.9648-42.1189,11.1413-70.5069,37.1508-83.5218,78.9808-6.4251,20.6503-5.5891,41.7692-1.6633,62.7985,3.3682,18.0428,11.1467,33.971,23.528,47.6175,17.7301,19.5415,40.5896,28.7975,65.969,32.9522,14.5626,2.3839,29.1903,1.9484,43.8328.6654,22.3934-1.962,44.0822-6.8211,64.8977-15.399,3.751-1.5458,4.2156-2.3241,4.0671-6.4325-.5261-14.5477-1.3868-29.0945-1.4653-43.6451-.2069-38.3884-.0701-76.7786-.0701-115.1681-.0001-43.8868.0016-87.7736-.0035-131.6603-.0005-4.0872-.2808-4.3475-4.3764-4.3476-17.2252-.0005-34.4505-.0023-51.6757.0025-4.7482.0013-4.8905.1532-4.8907,5.0062-.0012,26.9368-.0006,53.8735-.0007,80.8103v3.8653Zm-148.6217,222.1699c.28-.2626.56-.5252.84-.7878-.8068-1.7414-1.4523-3.581-2.4439-5.21-28.223-46.3666-56.4661-92.721-84.7797-139.0323-1.3091-2.1413-1.3832-3.6596-.0493-5.8523,26.8776-44.1834,53.6714-88.4178,80.4434-132.6653.5167-.854,1.0992-2.399.714-2.8968-.5773-.7462-1.9844-1.1728-3.0413-1.1778-19.3295-.0922-38.6594-.0944-57.9892-.1371-2.0435-.0045-3.4379.7431-4.3132,2.6966-1.1202,2.5001-2.4452,4.9101-3.7203,7.3388-16.8439,32.082-33.6934,64.161-50.552,96.2352-.3139.5971-.7563,1.1267-1.3701,2.0274-.7493-1.3875-1.309-2.4104-1.8564-3.4399-5.7992-10.9048-11.3496-21.9508-17.4462-32.6867-12.4277-21.8848-25.1474-43.6107-35.3927-66.6402-1.8819-4.2303-4.5696-5.8669-9.0739-5.8391-19.6963.1216-39.3939.0271-59.0907.1016-1.5247.0058-3.0468.7121-4.5701,1.0929.4879,1.4081.754,2.9469,1.4958,4.2054,26.957,45.73,53.9497,91.439,80.9885,137.1207.9765,1.6498.9751,2.8443-.0346,4.4732-6.1723,9.9573-12.2331,19.9838-18.3324,29.9863-21.7287,35.6341-43.4665,71.2627-65.1529,106.9226-.7745,1.2735-1.0432,2.8545-1.6489,4.5806,1.3539.0776,1.9802.1448,2.6065.1449,12.826.0017,25.652.0089,38.4779-.0137,7.6946-.0135,15.3892-.0825,23.0838-.1119,2.2441-.0086,3.6982-1.0195,4.7707-3.0332,18.197-34.1657,36.4401-68.3067,54.6757-102.4517.4588-.8591.949-1.7016,1.6543-2.9626.7335,1.1403,1.2638,1.853,1.6796,2.6272,17.3621,32.3269,34.9134,64.5551,51.8929,97.0818,3.2566,6.2385,7.0292,8.5289,13.823,8.4187,19.8751-.3224,39.7588-.1153,59.6391-.1156,1.3574,0,2.7148,0,4.0722,0Z" fill="#a2a1a1"></path>
      <path d="m500.9673,343.7716c0,19.2275-.0045,38.4551.0088,57.6826.001,1.5046.1594,3.007-1.9255,3.2737-19.7508,2.5262-39.2078,2.8812-56.4624-9.2952-10.7738-7.6031-16.5019-18.6332-19.5264-31.1682-3.7297-15.4578-3.8626-30.9787,1.8149-45.9229,6.4994-17.1076,19.7427-27.5902,36.5976-33.6001,11.8734-4.2337,24.1418-4.6413,36.549-2.441,2.4601.4363,3.0035,1.4707,2.9931,3.7888-.0864,19.2271-.049,38.4548-.0491,57.6824Z" fill="#a2a1a1"></path>
    </g>
  </g>
</svg>
